<svg version="1.1" id="Layer_1" xmlns="http://www.w3.org/2000/svg" xmlns:xlink="http://www.w3.org/1999/xlink" x="0px" y="0px"
	 viewBox="-226 350.2 141.7 141.7" style="enable-background:new -226 350.2 141.7 141.7;" xml:space="preserve">
<circle class="st0" cx="-155.1" cy="421.1" r="70.9"/>
<g>
	<g>
		<defs>
			<circle id="SVGID_2_" cx="-155.1" cy="421.1" r="46.7"/>
		</defs>
		<clipPath id="SVGID_3_">
			<use xlink:href="#SVGID_2_"  style="overflow:visible;"/>
		</clipPath>
		<path class="st1" d="M-67,512.4c0.1-8-8.4-13-15.9-9.5c-4.9,2.3-6.2,5.9-4.7,11.1c0.8,2.8,3.2,4.3,6.2,4.4c0.5,0,1,0,1.5,0
			c-0.1,2.8-2.2,4.1-5.3,3.5c-2.6-0.5-4.6-1.8-5.2-4.2c-0.8-3.1-2.5-4.1-5.8-3.6c-4.6,0.6-6.9-2.7-6.7-6.4c0.1-1.1,0.1-2.3,0.3-3.4
			c0.7-3.6,4.7-5.7,8-4.2c1.2,0.6,2.1,1.4,2.1,2.8c0.1,1.6-0.3,3-2,3.8c-0.6,0.3-1.2,0.5-1.8,0.7c-0.7,0.2-1.5,0.2-1.4,1.3
			c0.1,1,0.7,1.6,1.7,1.7c2.2,0.4,4.7-0.8,6-2.6c1.4-1.9,2.9-3.8,4.7-5.5c3.3-3.2,9.6-3.8,13.9-1.9c2.9,1.3,5.6,2.8,7.2,5.6
			c1.7,2.8,2.5,6,2.7,9.2c0.1,2.5,0.3,5-0.7,7.4c-0.6,1.5-0.7,3.3-1.2,4.9c-0.5,1.4-1.2,2.9-2.1,4.1c-1.3,1.7-2.8,3.2-4.4,4.7
			c-3.3,3-7.3,5-11.7,5.8c-2.3,0.4-4.7,0.5-7.1,0.7c-1.1,0.1-2.2,0.2-3.6,0.3c0.6,0.8,0.9,1.4,1.4,1.9c4.9,4.1,8.4,9.1,11.2,14.7
			c0.5,1.1,0.9,2.3,0.9,3.5c0,2.6-0.2,5.2-0.6,7.7c-0.3,2.4-2.1,4.2-3.9,6.2c-0.5-0.7-1-1.3-1.5-1.8c5-4.9,4.6-10.2,1.9-14.8
			c0,0.9-0.1,1.9,0,2.8c0.3,4.3-3.2,8.6-7.5,9.5c-2.7,0.5-5.5-1-6.2-3.4c0.5,0,1-0.2,1.4-0.1c3.6,0.6,5.9-1.1,7.6-3.7
			c3-4.6,2.5-9.2-0.3-13.6c-2.3-3.7-5.3-6.8-9.4-8.8c-1.3-0.6-2.5-1.6-3.8-2.3c-1.3-0.7-0.8-1.6-0.3-2.4c0.6-1.1,1.4-0.3,1.9,0
			c3.9,2.6,7.8,2.2,11.7-0.1c2.5-1.5,2.8-5.6,0.4-7.2c-0.8-0.5-2-0.4-3-0.6c0.9-2.7,2.6-3.2,5.4-3.1c4.4,0.2,5.1,2.8,4.7,7.1
			c-0.1,1.4-0.6,2.8-1.1,4.6c1.1-0.2,2.1-0.3,3-0.6c3.5-1.4,6.1-3.7,8.4-6.5c2.3-2.8,3.4-5.9,3.2-9.4c-0.1-2.4-1.2-4.2-3.2-5.7
			c-0.6-0.5-1.4-0.8-1.9-1.3c-0.5-0.4-1.2-1.2-1.1-1.6c0.2-0.7,0.9-1.5,1.5-1.7c1.1-0.3,2.3-0.2,3.5-0.2
			C-67.8,512.2-67.4,512.3-67,512.4z M-67.6,449.6c-0.5-0.1-1.1-0.1-1.6-0.1c-4.4,0-7.9,1.4-10.1,5.3c-1,1.8-2,3.7-2.9,5.5
			c-0.7,1.3-1.4,2.3-3.2,2.4c-1.5,0.1-2.9,0.5-4.4,0.7c-5,1-9.8,2.6-13.8,5.6c-2.7,2-5.7,3.1-8.5,4.6c-2.6,1.3-5.5,1.3-8.4,1.2
			c-6.4-0.1-11.4-2.9-15.6-7.3c-0.5-0.5-0.8-1.2-1.3-1.8c-1.6,1.1-1.8,1.9-0.8,2.8c1.7,1.6,3.4,3.3,5.3,4.6c4.6,3,9.8,4,15.2,3.5
			c1.9-0.2,3.9-0.7,6.1-1.1c-0.6,1-0.9,1.8-1.4,2.5c-3.4,4.8-6.1,10-7.1,15.8c-0.5,2.6-0.9,5.2-1.5,7.7c-0.3,1.3,0.8,1.1,1.5,1.2
			c0.3,0.1,1-0.4,1-0.7c0.6-5,1.8-9.6,4.8-13.9c2.1-3.1,4.2-6.1,7.2-8.4c1-0.8,0.9-1.5-0.3-2.3c-1.9,1.7-3.7,3.4-5.5,5.1
			c0-0.6,0.1-1,0.3-1.4c4.5-6.9,10.3-12.3,18.9-14.4c4.5-1.1,9.1-1.5,13.6,0.2c3.1,1.2,3.9,2.3,3.8,5.5c-0.1,2.7,0.9,5.1,2.5,7.2
			c2.6,3.6,6.6,5.3,10.9,6.4c0.7,0.2,1.5,0.2,2.2,0.3c0.8-8.6-3.2-16.2-12.7-18.1c-1.9-0.4-3.4-1.7-4.8-3.6c1.2-0.2,2.1-0.2,2.9-0.5
			c1.9-0.6,3.7-1.2,5.6-1.9c2.5-0.8,4.8-0.7,7,0.9c0.9,0.6,2,1.1,3.1,1.3c2.5,0.4,4.9,0.5,6.9-1.6c-0.7-0.8-1.2-1.6-1.9-2.3
			c-2.1-2.1-5.6-4-9.3-1.8c-0.6,0.3-1.3,0.5-1.9,0.6c-1.6,0.4-3.2,0.6-4.7,1.1c-2.7,0.8-5.4,2.1-8.3,1.8c-0.8-0.1-1.5-0.6-2.2-0.8
			c0.7-0.5,1.3-0.9,2-1.4c0.1-0.1,0.3,0,0.4,0c2.9-0.3,5.2-1.8,7.3-3.4s3.1-4.2,4.5-6.3c0.1-0.1,0-0.3,0-0.5
			C-67.1,449.8-67.3,449.6-67.6,449.6z M-201.2,522.9c3.7-3.1,5.6-6.9,5.5-11.6c0-2-1.1-3.2-3-3.2c-1.9,0.1-2.9,1.2-3,3.1
			c-0.1,4.2-2.1,7.6-5.6,10.2c-2.2,1.6-4.7,1.9-7.3,1.5c-1.1-0.2-2.1,0.9-1.6,1.7c0.3,0.5,1.1,1,1.8,1c4.4,0.3,8.5,1.7,12.5,3.3
			c1.5,0.6,2.9,1.8,4.1,2.9c1.5,1.5,2.5,3.4,3.9,5c1.9,2.2,4.2,3.7,7.3,3.9c2,0.1,4,0.3,5.9,0.4c0.7,0,1.3,0,2.1,0
			c-0.9-3.4-2.3-6.2-5.1-8.3c-3-2.3-6.3-3.8-10.4-3.3c-3.2,0.4-5.6-1.6-8.3-2.8c-0.1,0-0.1-0.2-0.2-0.5c0.6-0.2,1.1-0.6,1.6-0.6
			c4.2-0.6,8.3-1.9,12.6-2.5c4.8-0.6,9.2-0.3,13.5,1.8c2.2,1.1,3.6,2.8,4.1,5.1c0.3,1.2,0.4,2.4,0.5,3.6c1.5-0.1,2-1.2,2.5-2.1
			c1.6-2.9,1.8-5.4-0.6-7.8c-1.3-1.3-2.9-1.8-4.6-2.4c-3.5-1.1-7-1.6-10.7-1c-2,0.3-4.1,0.4-6.1,0.6c0.1-0.4,0.2-0.6,0.4-0.7
			c6.1-4.4,13-7.4,20.2-9.6c6.9-2.2,13.8-2.6,20.9-1c1.9,0.4,3.6,1.4,5.5,2c0.4,0.1,1.2,0.1,1.4-0.1c0.9-1,1.7-2.2,2.6-3.4
			c-0.8-0.4-1.7-0.9-2.6-1.3c-6.1-2.5-12.5-2.7-19-1.9c-7.5,1-14,4.2-20.3,8c-4.7,2.9-9.4,5.9-14.1,8.6c-2.2,1.2-4.5,2.3-7.6,2.3
			C-201.7,523.4-201.5,523.1-201.2,522.9z M-255.6,417.8c-0.2,0.5-0.9,0.7-1.4,1.1c-0.1-0.5-0.4-1-0.4-1.5c-0.1-2.6,0-5.3-0.3-7.9
			c-0.7-6.5-5-10.4-10.8-13.2c-1.5-0.7-3.2-1-4.8-1.2c-3-0.3-6-0.3-9.1,1c0.8,1,1.4,2,2.3,2.7c0.5,0.4,1.6,0.6,2.2,0.4
			c2.3-0.8,4.6-0.9,6.9-0.4c11.3,2.4,14.9,14.4,10.4,22.7c-0.3,0.5-0.8,1-1.2,1.5c0-2,0-3.9,0-5.7c0-5.7-3.9-10.5-9.6-11.9
			c-5.5-1.4-8.3,3.1-8,7.2c0.5-0.3,1-0.7,1.5-1c2.9-1.9,6-1.7,8.3,0.8c5.8,6.4,5.2,11.9,0.3,17.7c-2.2,2.6-5.2,4.2-8.7,4.8
			c-2.8,0.5-5.6,0.2-8.3-1.2c-2.8-1.5-3.6-2.2-3.5-5.3c0-1.4,0.6-1.9,2.1-1.9c1.3,0,1.9,0.7,1.8,2.1c0,0.7-0.2,1.5-0.3,2.2
			c1.3,0,1.6-0.2,1.8-1.1c0.1-0.6,0.1-1.1,0.2-1.7c0.3-1.3-0.3-2.3-1.7-3c-1.5-0.7-3.5-0.6-4.2,0.2c-1.2,1.6-2.3,5-0.8,7.2
			c1.8,2.9,7.5,5.3,11.4,4.7c1.8-0.3,3.6-0.7,5.9-1.2c-1,1.5-1.6,2.8-2.6,3.8c-2.6,3.1-3.6,6.8-4.2,10.5c-0.4,2.8-0.5,5.4-2.8,7.6
			c-1.6,1.5-3,3.2-4.5,4.8c-0.4,0.4-0.9,0.8-1.1,1.3c-0.2,0.7-0.5,1.6-0.2,2.3c0.2,0.4,1.3,0.6,2,0.6c1.3,0,2.4-0.6,3.1-1.7
			c0.6-1,1-2,1.5-3.1c0.3-0.6,0.7-1.2,1.3-2.2c0.3,1.1,0.5,1.9,0.8,2.6c0.9,2.3,1.8,4.7,2.8,7c0.3,0.7,0.9,1.1,1.8,0.7
			c0.9-0.5,0.5-1,0.2-1.7c-0.7-1.6-1.7-3.1-2-4.8c-0.7-3-1-6.1-1.5-9.2c-0.6-3.5,0.5-6.8,1.7-10c1-2.7,2.8-5.1,4.9-7.3
			c2.9-3.1,6-5.9,10.3-7.1c2.3-0.6,4.7-0.9,7.2-1.3c0-0.4,0-0.9-0.1-1.4c-1.2,0-2.2,0-3.3,0c-1,0-1.9,0.2-3.1,0.3
			c1.4-3.6,6.2-5.7,9.5-4.5c4.9,1.8,10.2,0,12.8-4.4c0.1-0.2,0.1-0.5,0.2-1c-4.5-1.1-8.8-2-12.8,1.3c-0.9,0.8-2.1,1.2-3.2,1.9
			c-0.1-0.4-0.2-0.5-0.1-0.6c0.1-0.3,0.2-0.6,0.3-0.9c1.2-3.3,2.4-6.7,3.6-10c0.4-1,0.5-1.9-1.3-2.4
			C-252.1,411.1-253.9,414.4-255.6,417.8z M-237,470.3c-0.7,1.4-1.5,2.9-1.8,4.4c-0.6,3.2-1.6,4.1-5,4.9c-2.5,0.6-4.8,1.3-6.6,3.2
			c-2.4,2.7-4.1,5.7-3.3,9.5c3.7-1,6.9-2.6,8.6-6c0.7-1.4,1.4-2.8,2.3-4.1c0.3-0.6,1-1,1.6-1.6c0.6,2,0.6,3.7-0.2,5.3
			c-0.6,1.2-1.2,2.4-1.8,3.7c-1,2.1-1.6,4.4-2.9,6.3c-2.1,3.2-1.8,8.1,1.1,10.8c0.2,0.2,0.5,0.3,0.9,0.6c1.3-2.1,2.2-4.1,1.9-6.5
			c-0.2-2-0.7-4-1.1-6c-0.2-1.3,0.1-2.4,1.5-3.4c0.2,0.8,0.3,1.3,0.4,1.9c0.1,0.7,0,1.5,0.2,2.2c0.9,3.2,1.8,6.3,2.8,9.5
			c2.5,8,7.9,13.9,15.5,17.8c0.4,0.2,1.3,0.2,1.6-0.1c1.5-1.4,3-3,4.4-4.5c0.3-0.3,0.3-0.8,0.5-1.2c-6.9-2.4-12.5-6.4-16.6-12.2
			c-4.1-5.8-6-12.2-5.6-19.4c1.6,1.1,1.8,2.6,1.8,4c-0.1,3.6,1.2,6.6,3.6,9.2c2.7,2.9,6.2,4.4,10.3,4.8c0.3-4.4-0.4-8.4-2.9-11.9
			c-1.8-2.5-4.2-4.4-7.5-4.8c-0.9-0.1-2.2-0.8-2.4-1.5c-0.9-2.6-2-5.2-1.4-8c0.5-2.3,1.1-4.7,1.7-7.2
			C-235.7,469.7-236.5,469.3-237,470.3z M-261.2,568.2c-0.1,0.5-0.1,0.9-0.1,1.4c-0.6,4.8-0.7,9.6,1.6,14.2c1.5,3,0.6,5.7-1.6,7.9
			c-3,3-6.9,4.3-11.2,4.3c-4.5-0.1-7.2-2.4-6.8-6.8c0.4-4.4,2.9-5.5,7.1-5.2c1.7,0.1,1.8,1.5,2.1,2.6c0.3,1.1,0.1,2.2-1.3,2.7
			c-0.6,0.2-1.2,0.7-1.8,1.1c1.8,1.4,3,1.4,4.4,0.1c1.9-1.6,2.4-5.2,0.8-7c-1.2-1.4-2.3-3.1-4.7-2.9c-6.4,0.5-9.4,5.8-8,11.3
			c0.9,3.6,4.1,5.5,7.7,6c4.7,0.6,8.7-1.1,11.9-4.6c0.5-0.6,1.1-1.2,1.7-1.7c0,1.8-0.3,3.4,0.1,4.9c0.4,1.7,2.2,2.2,3.8,3.1
			c0.2-0.9,0.4-1.7,0.6-2.6c0.6-2.1,0.4-4-1.5-5.5c-0.6-0.5-1-1.4-1.4-2.1c0.2-0.1,0.3-0.2,0.5-0.4c0.5,0.4,1,0.9,1.6,1.3
			c2,1.7,3.9,3.7,6,5.2c7,5,17,0.2,19.3-5.4c1.2-2.8,2-5.7,2-8.8c0-2.3-0.2-4.6-0.3-6.9c0-1.1,0.3-2.1,1.6-2.4
			c0.8-0.2,1.5-0.1,1.2,1.1c-0.2,1-0.2,2-0.2,3c0,1.6,0.9,2.6,2.8,3.2c1.8,0.6,4.2,0.2,4.9-1c2.6-3.8,1.5-10.7-4.3-12.4
			c-2.8-0.8-4.6-0.1-6.1,2.4c-0.5,0.8-1,1.5-1.6,2.2c-0.5,0.6-1,0.7-1.8,0.4c-1.6-0.7-3.2-1.5-4.9-2c-3.2-0.9-7.3,3.1-6.5,6.2
			c0.1,0.4,0.4,0.8,0.7,1.7c0.5-0.6,0.7-1,1-1.4c1.1-1.5,2.6-2.1,4.5-2c3,0.1,6.5,3.6,7.1,6.7c0.6,3-0.1,5.7-1.5,8.3
			c-1.7,3.5-5.6,5.8-9.5,5.5c-1.7-0.2-3.4-0.6-5-1.2c-1-0.4-1.8-1.3-2.8-2c3.9-2.9,4.5-4,3.5-6.9c-1.2,0.3-2.4,0.6-3.7,0.9
			c-2.6,0.6-6.5-0.9-7.3-3.1c-1.4-3.6-2.8-7.3-2.4-11.3c0.1-1.7-0.8-2.6-2.2-3.6C-261.1,567.4-261.2,567.8-261.2,568.2z
			 M-96.3,436.6c2.1-2.1,2.4-6.8,0.7-9.2c-2.1-2.9-5-4.6-8.9-4.1c-2.1,0.3-3.8-0.1-5.2-1.7c-0.4-0.5-1.1-0.7-2-1.2c0,1,0,1.6,0,2.2
			c0.1,1.8,0,3.6-0.7,5.4c-1.5,4-2.1,8.2-1,12.4c2.2,8.3,13,12.2,20.3,7.3c2.1-1.4,4-3.3,5.7-5.2c1.3-1.4,2.1-3.2,3.2-4.8
			c0.6-0.9,1.1-1.8,1.7-2.7c0.8,0.7,1.6,1.3,2.4,2c1,1,2,2,3.1,3c1.8-2,1.8-2.4,0.2-3.9c-3.6-3.3-6.4-7.2-7.7-11.8
			c-1.1-3.9-1.8-7.9-2.2-12c-0.3-2.4,0.2-4.9,0.6-7.3c0.4-2.3,2-3.6,4.4-4.3c1.5-0.4,2.9-1.5,4.3-2.3c0.7-0.5,1.4-1.1,2-1.7
			c0.8-0.8,1.7-1.5,2.1-2.5c0.8-1.8,1.2-3.7,2.8-5c0.1-0.1,0.1-0.4,0.2-0.6c-4.8-2.4-12.1,0-14,4.7c-0.3,0.8-0.5,1.6-0.8,2.4
			c-0.9,2.6-2,5.2-2.6,7.9c-0.5,2.4-0.5,4.9-0.7,7.3c-0.1,1.3-0.3,2.6-0.4,4c-1.6-4.8-1.9-9.6-0.9-14.6c-0.5-0.3-1.1-0.6-1.8-0.9
			c-0.1,0.4-0.2,0.5-0.2,0.7c-1,3.8-1.1,7.6-0.6,11.5c0.9,6.9,3,13.3,7.2,19c0.9,1.2,1.1,2.5,0.5,3.9c-1.6,3.4-3.5,6.7-6.6,9.2
			c-3.5,2.8-7.3,4.1-11.9,3.3c-6.7-1.2-10.2-12.4-4.2-17.3c1.6-1.3,3.2-1.8,5.2-1.2c2,0.7,3.2,2.1,3.3,4.1c0.1,1.5,0,3.1,0,5.2
			C-97.7,437.4-96.9,437.1-96.3,436.6z M-170.6,399.5c-10.3,1.5-18.9-1.4-25.7-8.9c-6.7-7.4-6.6-18.8,1.1-25.3
			c3.4-2.9,7.2-4.6,11.9-4.1c5.9,0.6,10.3,6.5,9,12.1c-0.8,3.7-3.2,6.1-6.7,7.5c-1.1,0.4-2.4,0.4-3.5,0.5c-0.1,1.8,0.7,2.8,2.5,3.5
			c4.3,1.6,10.6-0.8,12.6-4.8c1.8-3.8,2.1-7.8,1.3-11.9c-0.1-0.7-0.3-1.4,0.7-1.5c1.9-0.3,2.6-1.6,3.2-3c0.6-1.4,0.2-3.1-0.8-4
			c-1.1-1-2.4-1-4-0.6c0.5,0.8,1,1.3,1.1,1.9c0.1,0.6-0.1,1.4-0.5,2c-0.4,0.6-1.1,0.9-1.9,0.4c-0.7-0.5-1.4-1-2.1-1.5
			c-0.9-0.6-1.6-1.4-2.6-1.8c-6.4-2.9-12.4-1.8-18.2,1.4c-6.8,3.8-9.9,9.6-10.3,17c0,0.4-0.2,0.9-0.3,1.3c-0.5-0.2-1-0.3-1.4-0.6
			c-0.4-0.2-0.7-0.5-1.1-0.8c-1.3-0.7-1.8-1.7-1.7-3.1c0.2-2,0.6-3.9,0.7-5.9c0-1.1-0.2-2.5-0.9-3.2c-1.5-1.5-3.3-2.7-5-4
			c-0.1-0.1-0.3,0-0.4,0c-0.4,1.1-0.9,2.1-1.2,3.2c-0.3,1.5-0.6,3.1-0.5,4.6c0.1,1.9,1.6,2.9,3.2,3.8c1.2,0.6,2.4,1.3,2.9,2.8
			c-0.7,0-1.3,0.1-1.8,0c-1.6-0.3-3.1-0.7-4.6-1c-2.2-0.4-2.5-0.1-2,1.9c0,0.1,0.1,0.2,0.2,0.2c4.5,0.5,8.8,1.6,12.4,4.6
			c1.3,1.1,2.4,2.2,2.9,4c0.5,1.9,1.7,3.7,2.9,5.3s3,2.8,4.4,4.3c3.1,3.4,7.5,4.8,11.8,5.4c4.3,0.6,8.9,0.1,13.4,0.1
			C-169.1,399.5-169.2,399.3-170.6,399.5z M-201.9,500.2c-6.8-3.7-6.6-13.9-0.5-17.5c2.5-1.4,5.3-1.5,8.1,0.3c1.8,1.1,3,4.1,2.6,6.2
			c-0.1,0.4,0,1,0.2,1.1c0.3,0.2,1,0.1,1.2-0.1c0.8-0.9,1.7-1.8,2-2.8c0.7-2.9-0.9-6.4-4-7.7c-2-0.8-2.1-1.4-1.3-3.4
			c0.1-0.3,0.2-0.6,0.3-0.9c0.9-2.6,0.4-4.9-1.8-6.8c-2.4-2-7.4-1.7-9.2,0.6c-1.1,1.3-1.2,2.9-1.1,4.4c0.1,1.3,1.5,2.7,3.1,3.2
			c1.2,0.4,2.8-0.2,3.7-1.2c0.3-0.4,0.6-0.7,0.9-1c0.2,0,0.3,0,0.5,0.1c0.1,0.8,0.4,1.6,0.2,2.3c-0.4,1.3-1.4,2-2.8,2.3
			c-0.6,0.1-1.3,0.4-1.9,0.7c-5.3,3.6-7.6,8.5-7.2,14.7c0.2,3.2,1.5,5.9,3.9,8c3,2.7,6.7,3.9,10.7,4.5c9.1,1.3,15.9-3,20.1-9.1
			c1.1-1.5,1.8-3.3,2.5-5c0.6-1.4,1-2.9,1.5-4.4c0.1-0.3,0.1-0.6,0.3-0.8c0.8-1.1,0.9-2.3,0.9-3.6c0-0.5,0.3-1,0.5-1.6
			c0.1,0,0.3,0,0.4,0c0.7,1,1.3,2,2,3.1c1.6-0.7,1.9-1.1,1.3-1.9c-2.8-3.6-3-8.1-5-12.1c-1.9-4-3.7-8-6.4-11.6
			c-0.4-0.5-0.8-0.8-1.3-1.3c-0.7,1.6-1,2.7,0.3,4c1.1,1.1,1.9,2.5,2.7,3.9c2.4,4.2,4,8.6,4,13.4c0,3.1-1.5,6-4.7,6.8
			c-2.7,0.7-4.9-1.2-4.3-3.8c0.1-0.4,0.2-0.7,0.3-1.4c-2.1,0.7-2.9,2.1-3.6,3.6c-1.6,3.8,1.5,7.1,5.2,6.9c1.4-0.1,2.8-0.3,4.6-0.5
			c-0.3,0.8-0.5,1.5-0.8,2.1c-1.9,4.1-5.2,6.9-9.6,8.3c-1.6,0.5-3.4,0.8-5.1,0.9c-3.6,0.1-5.8-1.8-6.5-5.1c-0.2-1-0.1-2.3-1.8-2.3
			c-1.1,0.1-1.8,1-2,2.6c-0.1,1-0.2,2-0.4,3.3C-200.1,501.1-201,500.7-201.9,500.2z M-21.4,493.7c-3-1.7-7.9-1.3-10.4,0.8
			c-3.3,2.9-3.7,6-2.7,9.8c0.3,1.1,1.1,1.9,2.5,1.8c0-0.4,0.1-0.8,0.1-1.1c-0.3-1.9,0.6-3.4,1.7-4.8c2.6-3.1,7.2-2.4,9,1.3
			c1.2,2.4,1.4,4.9,1.1,7.5c-0.3,2.3-1,4.4-3,5.9c-5.5,4.1-12.5,3.1-16.8-2.5c-1.8-2.4-2.9-5-3.8-7.9c-1-3.3-0.8-6.5-0.8-9.7
			c0-3.1,1.5-5.7,3-8.4c2.7-4.8,6.6-8.3,12-10.2c0.3-0.1,0.6-0.3,0.9-0.5c-0.7-0.3-1.3-0.4-1.8-0.3c-2.5,0.7-4.9,1.7-6.9,3.5
			c-0.4,0.4-1.1,1.1-1.5,1c-1.6-0.4-3.2-0.9-4.7-1.5c-1.3-0.6-2.5-1.6-3.8-2c-2.7-0.9-5.1-0.5-7.1,1.7c-0.5,0.6-1.3,1.1-2.1,1.5
			c-1,0.6-1.2,1.1-0.4,2c2.6,3.2,10.2,5.4,13.1,0.6c0.6-0.9,1.6-1.4,3.1-0.7c-0.5,0.9-1.1,1.8-1.5,2.7c-1.2,2.5-3,4.9-3.5,7.6
			c-1,5.1-1.1,10.3,0.3,15.3c2.1,7.4,9,12.5,17.1,12.9c4.5,0.2,7.7-1.5,10.1-5c3-4.2,3.6-8.8,3.1-13.7c-0.1-1-0.8-2.1-0.7-3.1
			c0.2-2.6,3.1-6.7,6.6-7.2c6.3-1,11.4,3,11.4,9.1c0,2.5-1.7,4.2-4.3,4.3c-2.4,0.1-3.8-0.8-4-2.8s-0.4-3.2,3-3.6
			c0.1,0,0.1-0.1,0.4-0.4c-0.3-0.4-0.5-0.9-0.9-1.2c-1.4-1-3.9-0.4-4.5,1.2c-1.2,2.8-0.8,5.4,0.7,8c0.2,0.3,0.6,0.6,1,0.8
			c3.7,2,8.1,0.2,9.6-3.9c2-5.6-2.4-12.1-8.6-12.9c-4.6-0.6-8,0.7-9.9,4.8c-0.4,0.8-1,1.5-1.5,2.2
			C-18.4,495.6-19.9,494.6-21.4,493.7z M-134.2,517.6c1.4,1.2,2.8,2.5,3.9,3.9c6.1,7.6,8,18,0.4,26c-3.9,4.2-8.6,6.6-14.5,6.5
			c-3.3-0.1-6.1-1.5-8.8-3c-4.9-2.6-7.9-6.4-8.3-11.9c-0.3-3.7,2.6-7,6.4-7.4c3.3-0.3,6.8,1.4,6.9,5.9c0,1.3,0.1,2.6-1.2,3.4
			c-1.5,0.9-3.1,1.1-4.7,0.1c-0.5-0.3-1.1-0.6-1.9-1.1c0.1,0.9,0,1.6,0.2,2.1c1.2,2.3,3.4,3.2,5.8,3.4c1.9,0.2,3.5-0.8,4.6-2.4
			c1.7-2.3,2.4-4.9,1.6-7.7c-0.6-2.4-1.5-4.7-4-5.8c-1.5-0.6-2-1.6-2.2-3c-0.2-1.2-0.5-2.4-0.8-3.9c-0.7,0.6-1.2,0.9-1.4,1.3
			c-1.7,2.1-3.9,3.3-6.3,4.5c-3.6,1.7-6.2,4.5-6.8,8.5c-0.8,5.4,0.8,10.3,4.7,14.3c5,5,11.3,6.9,18.4,6.4c2.7-0.2,5.5-0.6,7.7-2.5
			c0.4-0.3,1-0.5,1.5-0.7c0.1,0.5,0.4,1.1,0.4,1.6c-0.3,2.2,2.3,4.1,4.4,4.4c2.3,0.2,3.7-0.9,4.3-3.4c0.1-0.3,0.1-0.6,0.1-0.8
			c0-0.5-0.2-0.9-0.2-1.4c-0.4,0.2-1,0.4-1.3,0.8c-1.1,1.1-2.1,1.2-3.1,0c-1-1.1-1.2-4.2-0.3-5.5c1.2-1.8,2.7-3.4,3.6-5.3
			c2.4-5.3,2.7-10.9,2-16.5c-0.4-4.2-2.7-7.6-4.8-11c-0.9-1.4-2.1-2.8-3.3-4c-0.3-0.3-1.3-0.5-1.6-0.3c-1.1,0.7-2,1.6-3.6,3
			C-135.7,516.5-134.9,517-134.2,517.6z M-152.3,628.2c2-1.7,3.9-3.3,5.9-5c1.3-1.1,1.3-1.6-0.1-2.7c-2.2,1.8-3.9,4.4-7.4,5.2
			c1.6-3.2,3.3-6,4.1-9.2c1.4-5.5,1.1-10.7-1.5-15.8c-0.3-0.7-0.8-1-1.5-0.4c-0.9,0.7-1.2,2.3-0.7,3.3c1.8,3.4,2.6,7.1,2.4,10.8
			c-0.2,3.6-2.3,6.6-4.7,9.2c-1.2,1.3-2.7,2.4-4,3.6c-0.1-0.1-0.3-0.2-0.4-0.3c0.2-0.4,0.3-0.8,0.5-1.2c0.9-1.9,2.2-3.7,2.8-5.7
			c1.7-5.7-0.3-10.5-4.1-14.9c-1.1-1.3-2.6-1.9-4.2-2.1c-3.7-0.6-7.5,1.7-7.9,5.1c0.8-0.1,1.5-0.1,2.2-0.2c2.7-0.4,5.8,0.8,6.7,2.8
			c0.8,1.9,1.7,3.9,2,6c0.7,4.1-0.2,7.8-3.8,10.7c-3,2.5-6.4,4-10.4,4.3c-2.7,0.2-5.3,0.6-7.8-0.6c-2.4-1.1-5-2.1-5.8-4.9
			c-0.1-0.3-0.5-0.6-0.8-0.9c-1.5-1.7-1.4-5.7,0.2-7.3c1-1,2.4-0.9,3.5,0.1s1,2-0.1,3c-0.4,0.4-0.7,0.8-1.1,1.2
			c0,0.2,0.1,0.3,0.1,0.5c0.7,0,1.5,0.3,2,0.1c1.4-0.7,1.6-2.2,1.7-3.6c0.1-1.2-0.3-2.4-1.6-3c-3.1-1.6-6.4-0.2-7.3,3
			c-1.3,4.5,1.2,9.6,5.3,11.7c1.5,0.8,3,1.5,4.5,2.1c4.3,1.6,8.6,1.3,13,0.4c1.6-0.3,3.1-0.9,4.7-1.3c4.1-0.9,8.1-2,12.4-1.9
			c1.1,0,2,0.1,2.7,1c2.8,3.6,6.7,4.3,11,3.9c2-0.2,3.9-0.9,5.8-2.7c-0.8-0.6-1.6-1.1-2.3-1.7c-4.4-3.1-9.2-4.1-14.5-2.4
			c-0.4,0.1-0.9,0-1.4,0C-152.3,628.5-152.3,628.4-152.3,628.2z M-4.1,432c-0.4,0.7-0.7,1.4-1.3,2c-0.7,0.7-1.6,0.9-2.5,0.2
			c-1.5-1.2-2.1-2.8-1.6-4.6c0.5-1.9,1.4-3.7,3.6-4.4c0.5-0.2,1.3-0.2,1.7,0c1.3,0.7,2.6,1.4,3.5,2.4c2.8,3.2,2.5,11.9-2.1,15.5
			c-2.4,1.9-4.7,3.1-7.8,2.1c-5.6-1.8-11.3-2.4-17.2-2.5c-1.7,0-3.4,0-5.1,0c0-0.4,0-0.6,0-0.7c0.5-0.7,1-1.3,1.5-2
			c2.8-3.8,5.8-7.3,6.9-12c0.2-1,0.8-2,1.2-3c0.2-0.6,0.5-1.4-0.7-1.4c-0.8,0-1.8-0.2-1.7,1.1c0,0.6,0,1.2-0.2,1.7
			c-0.6,1.9-1.2,3.8-1.9,5.7c0,0.1-0.3,0.2-0.6,0.4c-0.3-0.5-0.6-0.8-0.8-1.3c-0.9-2.8-3.1-4.4-5.7-5.6c-0.7-0.3-1.7-0.4-2.4-0.1
			c-2.4,0.7-4.3,4.9-3.4,7.2c0.3-0.3,0.6-0.5,0.9-0.8c1.5-1.5,2.8-1.6,4.4-0.2c1.8,1.5,2.1,3.6,1.7,5.5c-0.6,3.1-2.7,5.3-5.8,6.8
			c-4.4,2.2-9,3.4-13.9,3.4s-9.5-1.3-13.8-3.7c-1.7-1-3.4-2.1-5.1-3.1c-1.5,1.6-1.5,2.1,0.3,3.1s3.5,2.1,5.4,3
			c4.4,2.1,8.9,3.1,13.9,2.8c4.9-0.3,9.5-1.8,14.1-3.1c3.5-1,6.9-1.8,10.6-1.9c7-0.1,12.3,3.1,13.9,10.4c0.7,3,0.3,5.6-2.5,7.6
			c-0.3,0.2-0.4,0.5-0.7,0.9c2.4,0.9,4.7,0.2,6-2c0.6-1,1.1-2.2,1.3-3.4c0.9-4,0-7.4-3.6-9.9c-0.3-0.2-0.5-0.6-0.8-0.8
			c0.1-0.2,0.3-0.3,0.4-0.5c1.6,1,3.3,1.8,4.7,2.9c2.5,1.9,3.4,4.7,3.9,7.6c0.2,1.2,1,1.6,2.4,1.4c-0.4-1.7-0.7-3.3-1-4.9
			c-0.3-1.5-0.8-2.8-2.2-3.9c-0.6-0.4-0.9-1.3-1.3-2c0.8-0.4,1.4-0.8,2-1c3.8-1.3,5.9-4.1,7.2-7.6c1.6-4.5,1.8-9-1.1-13.1
			c-2.7-3.9-7.8-4.4-10.6-1.1c-1.5,1.9-2.3,4-2.6,6.4c-0.3,2.7,1.6,4.2,3.2,5.9c0.2,0.2,0.6,0.3,0.9,0.4c3.3,0.9,5.7-1.6,5-5.2
			C-3.6,432.4-3.9,432.2-4.1,432z M-129.6,375.8c-1.9,5.8-1,11.1,3.8,15.3c3.9,3.4,8.6,2.9,11.7-1.6c0.2-0.3,0.3-0.7,0.5-1.1
			c-1.5,0-2.9,0-4.2,0c-2.6,0-4.4-1.2-5.4-3.5c-0.6-1.4-1.1-2.9-1.4-4.5c-0.5-3-0.7-5.9,1.2-8.6c4.2-6.2,14-9.1,21-5.9
			c4.7,2.1,7.5,6.3,7,10.7c-0.2,1.4-0.9,2.4-2.3,2.6c-1.2,0.2-2.3-0.2-2.9-1.3c-0.7-1.2-0.2-2.1,1-2.9c0.3-0.2,0.3-0.9,0.5-1.4
			c-0.5,0-1.2-0.3-1.6-0.1c-1.4,0.7-2,1.9-1.9,3.4c0.2,1.8,1.1,3,2.8,3.7c1.4,0.6,2.6,0.3,3.7-0.7c2.3-2.1,3.1-4.7,2.2-7.5
			c-1.3-4.2-4.4-7-8.6-8.6c-4.4-1.6-9-1.5-13.6-0.7c-5.6,1-11.1,2.2-16.7,3.1c-1,0.2-2.5-0.2-3-0.9c-1.8-2.3-4.2-3.1-6.8-3.7
			c-3.4-0.7-6.7-0.4-9.2,2.4c2.4,3,6.6,4.9,10.5,4.6c2.2-0.1,4.4-0.3,6.7-0.4c-1.1,2.5-1.1,2.5,1.2,3.3c-2.5,5-4.2,10.2-4.2,15.8
			c1.8,0.1,2.2-0.3,2.2-1.7c0-0.7,0-1.3,0-2c-0.1-3.4,0.8-6.5,2.9-9.2c1.5-2,3.1-3.8,5.8-4.8C-127.9,371.9-129,373.8-129.6,375.8z
			 M-139.5,611c0.6-3.1,0.8-6.3,1.3-9.4c0.3-2.4,0.9-4.4,3.7-5.6c2.5-1.1,4.4-3.2,4.6-6c0.2-2.5-0.1-4.9-0.2-7.8
			c-3.3,2-6.6,3.4-7.5,7.1c-0.4,1.6-0.4,3.2-0.6,4.9c-0.1,1-0.2,2-0.3,2.9c-0.2,0-0.3,0-0.5,0c-2.1-4.1-4.4-8.2-5.5-12.7
			c-1-4-1.4-7.9,0.6-11.9c1.5-3,3.7-5,6.9-6.1c4.4-1.5,8.1,0.6,8.9,4.8c0.5,2.6-0.7,4.1-3.5,4.2c-2.4,0.2-3.1-0.4-3-2.7
			c0-0.3,0.1-0.6,0-0.8c-0.2-0.4-0.5-0.7-0.8-1c-0.3,0.2-0.8,0.4-0.9,0.8c-1.1,2.1,0.1,4.7,2.4,5.4c4,1.3,6.9-0.4,7.8-4.3
			c1-4.2-2.1-7.7-5.5-8.3c-2.4-0.5-4.8,0.1-7.1,0.9c-2.2,0.8-3.5,2.4-4.9,4c-1.1,1.2-1.7,1-2.2-0.5c-0.1-0.3-0.2-0.5-0.2-0.8
			c-0.3-2.2-2.3-3.2-3.8-4.5c-0.6-0.6-1.3-0.3-1.4,0.6c-0.3,3.4,0,6.6,3,9.1c0.7,0.5,1.4,1.5,1.4,2.2c0.1,2.2-0.2,4.4-0.4,6.8
			c-1.3-0.5-2.3-0.8-3.3-1.2c-3.8-1.5-7.7-2.8-11.9-2.1c-2.2,0.3-4.2,1-5.7,2.7c0.3,0.3,0.5,0.6,0.7,0.8c5.5,5,12.2,6.1,19.4,4.8
			c1.2-0.2,1.7,0.1,2.2,1c0.9,2.2,1.7,4.6,2.9,6.6c2.3,3.9,3,8,2.6,12.3c-0.3,2.7-0.7,5.5-2.4,7.8c-0.8,1.1-0.6,1.8,0.9,2.7
			C-141,615.4-139.9,613.2-139.5,611z M-124.6,410.5c-4.3-2.2-8.8-3.1-13.6-1.8c-2,0.6-2.5,0.9-3.6-1.5c-1.5-3.3-2.8-6.7-4.2-10.1
			c-1.6-3.9-1.4-7.9-0.2-11.8c0.5-1.7,1.6-3.3,2.5-4.9c1.1-1.8,2.4-3.4,3.7-5.1c0.4-0.6,1.2-0.9,1.6-1.5c0.2-0.3,0.1-0.9-0.1-1.3
			c-0.1-0.2-1-0.3-1.1-0.1c-2.3,2.6-5,5-6.3,8.3c-0.6,1.5-1.3,3.1-2.2,4.5c-3.5,5.6-8.3,9.7-14.6,12.2c-1.4,0.6-1.6,1.1-0.7,2.2
			c5.8-1.8,10-5.8,14.4-9.7c0.1,2.4,0.1,4.7-0.3,6.9c-0.2,0.9-1,1.8-1.7,2.5c-1.7,1.6-3.6,2.9-5.2,4.5c-0.6,0.6-1,1.7-0.9,2.6
			c0,2.3,0.3,4.6,0.5,7.4c1.7-1.1,3.1-1.9,4.3-2.9c2.3-1.8,3.8-3.9,3.5-7c-0.1-1-0.1-2,0-3c0.1-0.7,0.4-1.4,0.6-2.5
			c0.5,0.5,0.7,0.7,0.8,0.9c0.7,1.6,1.3,3.1,2,4.7c1.9,4.1,3.7,8.4,3.7,13c0,1.5-0.6,2.9-0.8,4.4c-0.1,1.5-0.8,2.6-1.8,3.6
			c-0.9,0.9-1.9,1.7-2.9,2.5c-1,0.7-0.9,1.4-0.1,2.3c1.7-1.4,3.4-2.8,5.3-4.4c1.4,2.8,2.2,5.9,6,6.8c0.1-1.3,0.3-2.6,0.3-3.9
			c0-2.1-1-3.7-2.6-5c-1-0.9-2.1-1.9-2-3.5c0.1-1.5,0.1-2.9,0.2-4.4c0-0.5,0.2-1,0.3-1.6c0.6,0.2,1.1,0.3,1.5,0.5
			c2.6,0.8,5.1,1.8,7.7,2.5c4.2,1,8.1,0.6,11.5-3C-121,412.7-122.7,411.4-124.6,410.5z M-43.4,418.7c-2.4,1.8-6.2,1.5-8.5-0.5
			c-3.4-3-4.3-8.1-2.2-12c2.1-4.1,6.7-6.3,11.4-5.4c2.1,0.4,4.1,1,5.6,2.8c-0.4,0.2-0.5,0.5-0.8,0.5c-1.8,0.5-2.4,1.9-2.6,3.5
			c-0.2,1.4,0.3,1.9,1.7,1.7c0.9-0.1,1.7-0.4,2.6-0.7c1.7-0.6,3.3-0.4,4.8,0.6c1.8,1.2,3.2,2.8,4,4.8c0.5,1.5,1,3,1.3,4.5
			c0.3,1.4,1.1,1.5,2.3,1.4c1.3-0.1,1.3-1,1-1.9c-0.8-2.7-1.4-5.5-2.4-8.1c-1.5-3.8-1.7-7.5-0.3-11.3c0.7-1.9,1.9-3.6,4.2-4
			c0.7-0.1,1.5,0,2.3,0c0-1.4-0.9-2-2.1-2.1c-2.9-0.4-5.3,0.7-6.3,3.4c-0.8,2.1-1,4.4-1.5,6.6c-0.1,0.5-0.4,1-0.6,1.4
			c-0.4-0.3-1-0.6-1.3-1c-0.5-0.6-0.9-1.4-1.5-1.9c-1.2-0.8-2.6-1.5-4-2.2c-2.3-1.1-4.8-1.8-7.4-1.8c-4.8-0.1-12.2,6.4-12.5,10.5
			c-0.2,2.4-0.1,4.8-0.2,7.2c0,1.9,0.1,3.9-0.1,5.8c-0.1,1.3-1.3,2-2.5,1.7c-1.4-0.3-1.8-1-1.4-2.5c0.6-2-0.1-3.5-2-4.3
			c-1.8-0.7-3.4-0.1-4.5,1.7c-1.7,2.9-1.3,5.5,1.4,8.4c2.2,2.2,5.3,2.7,8.1,1.3c1.4-0.7,1.9-1.9,2.5-3.1c1-1.8,1.4-1.9,3.2-1
			c1.2,0.6,2.6,1.1,3.9,1.2c3.5,0.5,6.5-2,6.6-5.3c0-0.6-0.2-1.3-0.4-2.3C-42.4,417.4-42.8,418.2-43.4,418.7z M-209.7,619.7
			c-2.8,4.1-6.8,7.2-10.5,10.5c-0.7,0.7-2,0.8-3.1,1.1c-1.3,0.4-2.7,0.5-3.8,1.2c-1,0.7-1.8,1.8-2.5,2.8c-0.6,0.9-0.9,2.1-1.4,3.2
			c1.2,0,2.5,0.2,3.7,0c1.9-0.4,4.1-0.6,5.2-2.6c0.9-1.6,1.8-2.9,3.3-4.2c4.1-3.4,7.8-7.3,10.9-11.7c0.5-0.8,1.4-1.4,2.1-2
			c0.2,0.1,0.4,0.1,0.6,0.2c0,1.1,0.3,2.4-0.1,3.4c-0.7,1.8-1.7,3.4-2.6,5.1c-1.8,3.6-1.3,7.3-0.5,11c0.1,0.5,0.8,0.9,1.4,1.6
			c1.7-2.8,3.4-5.1,4.6-7.6c0.8-1.5,0.9-3.3,1.3-5c0.4-2.2-0.8-4.1-1.6-6.1c-0.9-2.1-1-4.1,0.6-6c0.3-0.3,0.1-1.1-0.1-1.5
			c-0.2-0.5-0.8-0.8-1.3-1.2c-0.7,0.6-1.3,1.1-2,1.6c-1.6,1.1-3.1,2.4-4.9,3.2c-2.3,1.1-3.8,0.5-5.1-1.7c-0.1-0.2-0.3-0.4-0.5-0.5
			c-1.3-1-2.8-1.9-4-2.9c-2.2-1.9-4.3-1.3-6.6-0.3c-2.1,0.9-4.1,1.8-6.2,2.7c-1.2,0.5-2.3,1-3.9,1.7c1.2,1.2,2.2,2.3,3.2,3.2
			c4.6,4.4,11.4,5.4,17,2.2c1.5-0.9,3.2-1.4,4.9-2c0.6-0.2,1.3,0,2.3,0C-209.5,619.4-209.6,619.6-209.7,619.7z M-287.7,613.5
			c-0.4,0.3-0.6,0.7-0.9,1.1c-2.4,3-3.7,6.3-3.9,10.1c-0.1,2.7,0.1,5.3,1.6,7.7c3.9,6.3,13.2,10.1,20.7,8.3
			c7.1-1.6,12.7-5.4,17.4-10.6c0.4-0.5,0.7-1.1,1-1.7c0.5-1,0.8-2.1,1.3-3.2c3-6.3,3.4-12.6-0.8-18.6c-1-1.4-2.6-2.3-3.9-3.5
			c-0.1,0.1-0.3,0.2-0.4,0.3c0.1,0.6,0.1,1.3,0.4,1.9c0.8,1.5,1.6,3,2.5,4.5c2.8,4.6,2.7,9.4,0.9,14.2c-1.3,3.4-3.9,6-6.8,8.3
			c-6.2,4.9-13.2,7-21.2,5.4c-5.9-1.2-9.1-4.9-9.2-10.4c-0.1-5.2,3-9.1,8.4-10.5c5-1.3,7.5,1,8.1,5.7c0.2,1.5,0,2.9-1.4,3.9
			c-0.4,0.3-0.5,0.8-0.8,1.3c2.3,1.2,4.6,0.5,6.3-1.5c2.6-3.1,1.6-8.9-0.9-11.4c-2-1.9-4.3-3-7-3.5c-2.3-0.4-3.8-1.4-4.4-3.6
			c-0.2-0.7-0.8-1.4-1.2-2C-284.1,610.3-284.1,610.2-287.7,613.5z M-256.6,538.4c2,0.6,4.2-0.2,5.1-2c0.5-0.9,0.9-1.9,1.4-2.8
			c0.4-0.6,1-1,1.7-0.3c1,1,2,2.1,2.9,3.2c1.3,1.6,4.4,2.6,6.2,2.1c3.9-1.2,5.7-7.5,2.9-10.4c-1-1.1-2.3-1.8-4.1-1.6
			c0.1,0.7,0.1,1.3,0.1,2c0.1,0.7,0.3,1.5,0.1,2.1c-0.2,0.8-0.6,1.8-1.3,2.1c-1.4,0.8-4.3,0-5.1-1.3c-1.3-2.1-3.1-3.9-3.6-6.5
			c-0.7-3.4-2.7-6-5.7-7.9c-2.9-1.9-5.9-3.9-9.8-3c-0.2,0.1-0.5-0.2-0.6-0.3c0.5-1.8,1.2-3.5,1.5-5.2c0.7-3.6-0.7-5.9-4.1-6.3
			c-1.3-0.2-2.7-0.3-3.7,1.1c-0.9,1.3-1.6,2.6-0.7,4.2c0.3-0.2,0.6-0.3,0.8-0.5c1.3-1,2.2-1,3.1,0.4c0.7,1.1,1.2,2.5,1.4,3.8
			c0.3,1.9-1.2,3-2.6,4c-1.2,0.9-2.2,0.1-3.1-0.5c-2.2-1.3-4.5-2.6-6.4-4.2c-1.6-1.3-3.2-2.8-4.1-4.5c-1.1-2-1.4-4.3-2.2-6.5
			c-0.1-0.3-0.6-0.8-0.8-0.8c-0.4,0.1-0.7,0.5-0.9,0.8c-0.1,0.2-0.1,0.6,0,1c0.6,3.2,1.9,6.2,4.1,8.7c0.4,0.5,0.7,1.1,1.1,1.6
			c-1.5,0-2.7-0.5-4-0.6c-1.2-0.1-2.7-0.1-3.5,0.5c-1.7,1.2-3.1,2.9-4.6,4.4c1,0.9,1.9,1.6,2.7,2.3c2.7,2.5,5.6,2.6,8.5,0.4
			c1-0.8,2-1.7,3.1-2.2c0.9-0.4,2-0.6,2.9-0.4c1.2,0.2,2.4,0.9,3.5,1.5c1.2,0.5,1.3,1.3,0.4,2.2c-0.2,0.2-0.5,0.3-0.5,0.5
			c0,0.4-0.1,1,0.2,1.2c0.2,0.2,0.9,0.1,1.2-0.1c0.5-0.4,0.9-1,1.4-1.5c2.8-3.4,6.6-4.1,10.6-2.8c4.4,1.5,7.7,4.2,9,9
			c0.8,3,0.2,5.4-1.6,7.7c-1,1.3-2.4,1.8-4.1,1.3c-0.7-0.2-1.3-0.3-2.1-0.5C-260,536-258.5,537.9-256.6,538.4z M-49.2,616.9
			c2.4-1.9,5.2-3.2,8.3-3.3c6.7-0.2,14.2,5,15.4,11.8c0.8,4.5,0.5,8.2-4.5,10.1c-2.4,0.9-3.9,0.7-5.6-1c-0.8-0.8-1.6-1.5-2.5-2.2
			c-1.2-1.1-1.4-3.9-0.3-5.1c1.2-1.3,3.4-1.5,5-0.4c0.5,0.3,1,0.6,1.8,1.1c0.1-1,0.4-1.7,0.2-2.3c-0.6-1.7-1.9-2.9-3.8-3.2
			c-1.9-0.3-3.8-0.1-5.1,1.5c-1.6,2.1-2.7,4.3-2.6,7.1c0.2,3.8,5.2,8,9.2,7.6c2.9-0.3,5.2-1.1,7.2-3.3c3-3.4,4.3-9.1,2.2-13.2
			c-2.2-4.4-5.6-7.6-10.5-9.3c-2.7-0.9-5.4-1.3-8.3-0.6c-0.5,0.1-1.3,0.1-1.6-0.2c-0.3-0.3-0.1-1.1,0.1-1.5c0.7-1.3,1-2.5,0.8-4
			c-0.1-0.5,0.1-1.1,0.2-1.7c0.6-3.4-0.9-9.7-5.8-12c-3.6-1.6-7.2-2-11.1-1.2c-3.9,0.8-6.4,3-7.1,6.8c-0.2,1.1-0.4,2.2-0.7,3.3
			c-1.4,5.7,4.7,10.3,10.1,9.1c2.2-0.5,3.8-2.7,3.5-4.8c-0.3,0.1-0.7,0.2-1,0.3c-2.4,1.1-4.7,0.6-6.7-1.6c-1.5-1.7-1.6-4.2-0.1-6
			c2.3-2.7,5.4-3.9,8.9-3.7c3.3,0.2,5.4,2.3,6.8,5.1c2.4,5.2,1.4,11.5-4.6,15.6c-1.4,1-1.4,1.2,0,2.7
			C-50.5,618-49.9,617.4-49.2,616.9z M-35.5,394c-0.4-3-1-6-1.1-8.9c-0.4-7.8,2.7-14.2,9.2-19c3.3-2.5,7-3.7,11.2-2.9
			c6.9,1.2,13.1,7,11.7,15.4c-0.6,4-2.6,7.5-6.3,9.7c-2.2,1.3-4.7,1.6-6.7,0.1c-2-1.4-3.1-3.5-2.7-6.1c0.3-2,2.3-3.2,4.7-2.8
			c2.1,0.3,3,1.8,2.5,3.9c-0.1,0.6-0.4,1.2-0.6,1.8c1.6-0.3,3-1.7,3.3-3.3c0.4-2,0-3.6-1.9-4.8c-3.3-2.1-7.1-1.4-9.1,2.1
			c-0.7,1.2-1.5,1.7-3,1.6c-0.5,0-1.1,0.2-1.4,0.6c-0.1,0.2,0.2,0.8,0.4,1.2c0.9,1.5,1.7,2.9,2.6,4.3c0.8,1.2,1.6,2.9,2.8,3.4
			c3.8,1.5,7.8,1.7,11.2-1.1c3.8-3.1,6.3-6.8,6.3-11.8c0-3.4,0.1-6.7-2.2-9.7c0.5-0.3,0.8-0.4,1.2-0.6c2-1,2.8-2.4,2.5-4.5
			c-0.2-1.7-2.1-2.5-3.8-1.6c0.1,0.2,0.4,0.5,0.4,0.8c0.1,0.7,0.3,1.7,0,2.2c-0.5,0.5-1.5,0.7-2.3,0.7c-0.7-0.1-1.4-0.6-2-1
			c-5.6-4-11.7-4.8-18.1-2.4c-8.5,3.2-14.5,13.4-13.6,22.1c0.3,3.3,0.8,6.5,1.8,9.7c0.6,1.9,0.6,2,3.2,2
			C-35.5,394.5-35.4,394.3-35.5,394z M-255.1,559.3c0.1,0.3,0.2,0.5,0.3,0.8c0.6,2.6,2.3,4.5,4.3,6.1c0.6,0.5,1.8,0.8,2.6,0.6
			c3.5-0.6,5.8-4.3,4.9-7.7c-0.1,0.1-0.3,0.2-0.3,0.3c-1.9,2.7-4.4,2.6-6-0.3c-1.5-2.5-0.3-8.1,2.8-10.1c4.6-3,9.7-4.4,15.2-4.7
			c1.8-0.1,3.8-0.2,5.4,0.3c2.9,0.9,5.6,2.3,8.4,3.4c0.3,0.1,0.7,0.3,1.1,0.5c0.2-0.8,0.4-1.4,0.5-2c0-0.2-0.2-0.7-0.4-0.8
			c-2.4-1.1-4.4-2.6-7.2-3.1c-6.8-1.2-13.3-0.2-19.8,1.3c-3.4,0.8-6.8,1.7-10.3,1.9c-5.1,0.3-11.6-2.3-13.1-7.4
			c-0.5-1.8-1.2-3.7-1.2-5.5c0-2.7,0.2-5.6,3.4-7c0.2-0.1,0.5-0.5,0.4-0.7c-0.1-0.2-0.4-0.5-0.7-0.6c-1.4-0.2-2.6,0.1-3.7,0.9
			c-1.7,1.3-2.4,3-2.8,4.9c-0.8,3.7-0.8,7.1,2.1,10.1c0.4,0.4,0.7,1.1,1,1.6c-0.9-0.1-1.6-0.3-2.2-0.7c-3.5-2.3-7.7-8.7-5.4-14.8
			c0.5-1.2,0.2-1.9-1.3-2.1c-0.2,0.6-0.5,1.1-0.7,1.7c-1.3,4.3-0.4,8.5,1.6,12.4c0.7,1.3,1.6,2.7,2.7,3.6c3.2,2.5,7.1,3.8,11,4.6
			c3.5,0.6,7.1,0.5,10.7,0.7c0.7,0,1.4,0.2,2.3,0.4c-0.5,0.8-0.8,1.3-1.1,1.7c-1.1,1.3-2.4,2.6-3.4,4c-1.3,1.7-2.5,3.5-3.8,5.3
			c-0.7,1-0.5,2.5,0.7,3.4c0.5-1.1,1-2.3,1.5-3.5C-255.3,559.2-255.2,559.2-255.1,559.3z M-211.9,551.9c0.2,0.2,0.4,0.4,0.6,0.6
			c2.6,3,5.7,5.5,7.4,9.1c1.1,2.3,2.5,4.5,3.3,6.9c1.8,5.6,2.8,11.4,2.1,17.3c-0.3,2.6-1.2,5.1-1.9,7.6c-0.5,1.5-1.8,2.2-3.4,2.6
			c-4.2,1.1-7.5,3.4-9.4,7.2c-0.8,1.6-1.3,3.3-2.8,4.6c-0.2,0.2-0.3,0.6-0.5,1c0.4,0.2,0.8,0.5,1.1,0.6c4.5,2,10.5,0,13.1-4.4
			c2-3.3,3.2-7,4-10.7c0.9-4.1,2.2-8,1.9-12.3c0-0.3,0.3-0.6,0.6-1.2c0.2,0.8,0.4,1.1,0.4,1.5c0.1,2.6,0.3,5.3,0.4,7.9
			c0.1,5.7-1.5,11.1-4.7,15.9c-1,1.5-0.7,2.1,1.3,2.9c10.7-18.9,6.6-45.5-14.3-60.9C-213.7,550.1-213.5,550.9-211.9,551.9z
			 M-69.3,619.9c-4.8-1.4-9-3.5-11-8.4c-0.8-1.9-1.9-3.8-3.2-5.4c-3.7-4.6-8-8.4-14.3-9.4c-1.8-0.3-3.6-0.6-5.4-0.7
			c-7.1-0.8-13.8,0-20.1,3.4c-7.6,4.1-13.4,9.7-15.3,18.2c-0.1,0.6,0,1.3,0,2c0.2,0,0.3,0,0.5,0c0.1-0.4,0.3-0.7,0.4-1.1
			c0.5-1.4,0.8-2.9,1.5-4.2c0.7-1.4,1.7-2.7,2.8-4c6.3-8.1,14.6-12.4,25.2-12.6c10.2-0.2,18,4.2,23.7,11.9c4.2,5.7,4.8,12,1.3,18.4
			c-0.8,1.5-0.6,2.2,1.2,2.9c2.4-3.9,3.5-8.2,3.3-12.8c3.5,1.1,4.6,2.4,4.4,5.2c-0.1,1.5-0.4,2.9-0.7,4.3c-0.4,2.2,0.1,4.3,2,5.7
			c1.5,1.1,3,2.2,4.5,3.3c0.1,0,0.2,0,0.6,0c0.4-1.9,1-3.9,1.3-5.9c0.4-2.3-0.1-4.3-2.5-5.5c-0.9-0.4-1.7-1-2.4-1.6
			c-0.6-0.5-1-1.1-1.5-1.6c0.1-0.2,0.2-0.4,0.3-0.7c6.3,1.9,12.4,2.3,18.4-1c-0.2-0.6-0.5-1.2-0.8-1.8
			C-60,619.9-64.5,621.3-69.3,619.9z M-251.1,401.6c-0.7-2.8-1.5-5.6-2.3-8.3c-0.5-1.6-0.8-3.1,0.1-4.8c0.9-1.7,1.5-3.5,2-5.3
			c0.3-0.9,0.4-2.1,0-3c-0.7-1.8-1.8-3.4-2.9-5.5c-0.9,1.5-1.6,2.7-2.2,4c-0.6,1.1-1.1,2.3-1.4,3.6c-0.4,1.7-0.2,3.3,1.1,4.8
			c0.7,0.8,1.7,1.7,0.8,3.1c-1.8-1.3-3.5-2.5-5.2-3.9c-0.7-0.6-1.1-1.5-1.8-2c-4.1-3.4-6.7-7.5-6-12.9c0.4-3.4,1.9-6.3,5.3-7.8
			c3.5-1.5,7.2,0.2,7.6,3.5c0.2,1.6-0.7,3-2.3,3.5c-1.7,0.5-2.3-0.5-2.9-1.7c-0.1-0.3-0.4-0.8-0.7-0.8c-0.3-0.1-1,0.2-1.1,0.4
			c-0.5,1.3,0.2,2.7,1.5,3.4c1.6,0.8,4.1,0.4,5.4-0.8c2.1-2.1,2.2-4.8,1.1-6.9c-1.2-2.2-4-3.3-6.7-2.8c-3,0.5-4.9,2.3-6.3,4.7
			c-0.9,1.5-1.7,3.1-2.7,4.8c-0.7-0.5-1.3-1-1.9-1.4c-1.3-0.7-2.7-1.5-4.1-2c-1-0.4-1.4,0.1-1.3,1.2c0.3,2.7,2.2,4.3,4.5,5.4
			c2,0.9,3.3,2,3.7,4.1c0.2,0.8,0.6,1.6,0.9,2.4c0.1,0.3,0.1,0.7,0.2,1c-1.9,0.1-3.7,0.2-5.5,0.4c-3.1,0.3-6,1.2-8.4,3.2
			c-1.3,1.1-2.2,2.5-2.6,4.2c3.4,0.9,6.8,1,10.2,0.4c3.1-0.5,5.3-2.4,7.7-4.1c1-0.7,1.7-0.7,2.6,0.1c2.7,2.6,5.5,5.1,8.2,7.7
			c0.7,0.7,1.3,1.6,1.7,2.4c0.7,1.6,1.2,3.3,1.7,4.9c0.3,0.9,0.7,1.5,1.8,1.6C-251.1,402-251,401.8-251.1,401.6z M-142.3,488.1
			c0.5-2.1,0.1-4-1.7-5.5c-0.3,0.5-0.3,1-0.4,1.5c-0.3,1.2-0.5,2.6-1.1,3.7c-1.1,1.8-3.1,2.7-5.2,3.3c-4.2,1.2-7.5,0.1-10.1-3.2
			c-0.3-0.4-1.4-0.7-1.5-0.6c-0.4,0.6-0.7,1.3-1,2c-0.1,0.1,0.2,0.4,0.4,0.6c3,3.4,6.2,6.7,10.9,8.1c4,1.2,7.9,1.6,11.4-1.3
			c1.4-1.2,2.9-1.5,4.8-0.8c1.4,0.5,3.1,0.3,4.6,0c1.7-0.3,4.2-2.2,3.7-4c-0.1-0.5-0.4-1.2-0.8-1.4c-0.3-0.2-1,0.3-1.5,0.5
			c-1.3,0.8-2.5,1.8-3.9,2.5c-0.9,0.4-2,0.3-3.3,0.4c0.2-0.7,0.2-1.1,0.4-1.3c1.8-2.7,1.8-5.7,2-8.7c0.2-2.7,0-5.4-2.3-7.3
			c-1.9-1.6-3.9-3.2-6.1-4.3c-2.6-1.3-5.6-1.7-8.4-0.8c-2.9,0.9-5.5,1.2-8.2-0.5c-1.3-0.8-1.5-1.9-1.7-3c-0.1-1.1,0.6-1.8,1.6-2.3
			c0.7-0.3,1.4-0.7,2.1-1.1c-3.3-3.8-5.9-3.3-8.6,0c-1.6,2-1.1,6,0.9,7.1c1.9,1.1,3.9,2.2,6.3,2.2c1.1,0,1.4,0.6,1.1,1.6
			c-0.5,1.5-1,3-1.2,4.5c-0.2,1.4,0,2.9,1.5,3.7c1.5,0.8,3,1,4.8,0.1c-0.6-0.7-1.3-1.3-1.7-2c-0.4-0.8-0.9-1.6-0.9-2.5
			c-0.2-3.4,2.9-6.5,6.5-6.6c5.2-0.2,10.5,3.4,12.2,8.1c2,5.6-0.4,13.9-8.5,16c-2.9,0.8-6.3,0.1-8.6-2.5
			C-148,495.5-143.8,494-142.3,488.1z M-26.6,551.3c0.5-2.1,0.6-4.3,0.7-6.4c0-0.8-0.4-1.7-0.9-2.5c-2.1-3.3-5.1-5.2-9.2-5.7
			c-4.8-0.6-10.3,1.9-12.4,6c-2.3,4.6-2.7,9.5-1.5,14.5c0.5,2.3,1.6,4.4,3.3,6.2c3.4,3.6,7.8,5.1,12.7,5.2c2.9,0.1,5.7-0.4,8.3-1.9
			c0.4-0.2,0.4-1,0.5-1.5c-0.5,0-1-0.1-1.4,0c-0.7,0.2-1.2,0.8-1.9,1c-6.5,2-12.6-0.7-15.4-6.7c-2.5-5.1-1.7-9.8,1.5-14.3
			c1.5-2.1,3.9-2.7,6.4-2.3c2.3,0.3,3.9,1.5,4.4,3.7c0.6,2.4,0.9,4.8,1.3,7.4C-28.4,554.1-27.1,553-26.6,551.3z M-15.2,591.6
			c1.6,2.9,4.1,4.3,6.4,6c1.8,1.3,3.6,1.4,5.6,0.9c2.6-0.7,4.3-3.2,4.3-6c-0.1-2.2-1.7-4.1-4.1-4.6c-2.2-0.5-4.6,1.4-4.4,3.6
			c0,0.4,0.4,0.7,0.7,1.1c0.3-0.3,0.5-0.7,0.8-1c0.4-0.6,0.7-1.5,1.3-1.8c1.3-0.7,2.7,0.1,3.5,1.4c0.9,1.6,0.6,3.4-0.7,4.4
			c-2.7,2-5.4,1.3-7.7-0.5c-4.2-3.2-4.3-9.9-2.4-13.6c1.7-3.3,4-6.4,6.1-9.5c0.2-0.3,0.6-0.5,0.9-0.7c0.1,0.1,0.3,0.1,0.4,0.2
			c-0.1,0.9,0,1.8-0.2,2.6c-0.8,3-0.9,5.9,1.7,8.3c0.3,0.3,0.5,0.7,0.8,1c0.5,0.4,1,0.8,1.6,1.2c0.7-1.9,1.4-3.5,2-5.2
			c0.2-0.6,0.2-1.5-0.1-2.1c-0.7-1.5-1.5-3.1-2.6-4.4c-1.3-1.5-2-2.9-1.7-4.8c0.2-1.5,0.5-3,0.7-4.5c0-0.3-0.3-0.7-0.5-1.1
			c-0.5,0.2-1.2,0.4-1.5,0.7c-0.3,0.4,0,1-0.2,1.5c-0.3,1-0.8,2-1.2,3c-0.2,0.5-0.5,0.9-0.8,1.3c-1.5,2.5-3.1,5-4.6,7.5
			c-0.1,0.2-0.3,0.4-0.5,0.5c-0.7,0.6-1.4,0.8-2.1,0.2c-2.2-2-5.1-1.8-7.8-2c-2.6-0.2-4.9,0.6-7.3,1.6c-2,0.9-2.3,1.4-0.6,2.9
			c0.7,0.6,1.5,1.2,2.4,1.4c2.6,0.4,5.1,0.8,7.7,0.9c1.7,0.1,3.3-0.4,5-0.7c0,3.4-0.2,6.4-3.7,8.3c-2.1,1.2-2.8,3.6-2.4,6.1
			C-17.6,595.9-16.4,593.8-15.2,591.6z M-92.5,636.1c-4.1,2-8.1,1.6-11.7-1.1c-3.7-2.8-5.2-6.4-4.2-10.9c1-4.3,5.1-7.4,9.8-7.5
			c0.3,0,0.8-0.6,0.7-0.9c-0.3-1.3-1.1-2.1-2.4-2.7c-3.3-1.5-8.2-0.8-10.8,1.8c-2.9,2.9-4.5,6.4-4.2,10.5c0.1,2,0.5,3.9,0.7,5.8
			c-3.3,1.2-4.3,2.5-4.3,5.5c0,2.4,2.4,3.8,5.1,2.8c-0.2-0.4-0.5-0.7-0.7-1c-0.8-1-0.7-1.8,0.2-2.6c1.1-1,1.9-1,3.2,0.2
			c1.8,1.8,3.7,3.3,6.4,3.9c3.3,0.7,6.5,0.5,9.7-0.4c3.7-1.1,7.2-2.7,10-5.5c-0.6-0.5-1.2-0.9-1.5-1.2
			C-88.7,633.9-90.5,635.1-92.5,636.1z M-249.1,430.7c1.9,1.1,3.8,2.2,4.9,4.2c3.4,5.9,2.4,12.4-2.9,16.9c-1.5,1.3-3.3,2.3-5.4,2.3
			c-3.3,0-5.2-1.7-5.9-4.8c-0.8-3.2-0.7-5.9,2.2-8.1c-1.3-0.9-2.7-0.9-3.8-0.2c-5.1,3.3-5.7,9-3.4,13.3c2.2,4.3,8.7,6.8,13.6,5.9
			c4.3-0.8,7-3.5,9.1-6.9c1.7-2.8,2.3-6,2.7-9.2c0.8-6.8-4.5-14.3-11.7-15.9C-250.3,429.2-250.2,430-249.1,430.7z M-183,454.9
			c-10.5-5.7-21.6-7.2-33.1-3.7c-7.4,2.2-13.1,6.8-17.6,12.7c-0.9,1.1-0.3,1.8,1,2.3c3-5.4,7.7-8.8,13.7-10.8
			c-0.9,1-1.8,1.8-2.9,2.7c-3.3,2.7-6.3,5.7-8.5,9.4c-2,3.3-3.6,6.7-2.6,10.7c0.7,2.7,1.8,5.1,4.7,6.5c2.3-5.4,4.6-10.7,2.5-16.6
			c-0.6-1.6-0.3-3,0.6-4.4c2.4-4,6.3-6.3,10.3-8.2c2.7-1.3,5.8-2.4,8.8-2.9c7-1.2,13.6,0.5,19.9,3.6c1.2,0.6,2.3,1.2,3.4,1.8
			C-181.7,456-181.7,455.6-183,454.9z M-93,558.1c0.3-2.7-1.3-6-5.3-5.6c-1.1,0.1-2.3,0.3-3.3,0.6c-1.5,0.5-1.7-0.3-1.7-1.3
			c0-1.6,0.1-3.1,0-4.7c-0.1-2-2.2-4.6-4-5.1c-4.9-1.3-8.4,1.8-7.7,6.9c0.2,1.2,0.4,2.3,1.9,2.6c0.4-0.7,0.6-1.4,1.1-1.9
			c1.9-2.4,4.5-2.1,5.6,0.6c1.2,2.9,1.3,5.7-0.2,8.6c-0.6,1.1-1.2,2.3-1.3,3.6c-0.4,3.3-0.4,6.5,0.9,9.8c0.9,2.4,2.2,4.3,4.2,5.9
			c0.2,0.2,0.4,0.5,0.7,0.9c-1.2,0.5-2.3,0.9-3.3,1.4c-2.5,1.1-3.6,3.1-3.4,6.2c0.1,1.9,1.7,3.5,4.1,4.2c2.1,0.6,3.7-0.3,4.2-2.5
			c-0.1,0-0.2-0.1-0.3-0.1c-2.4-0.2-4.3-4.1-2.9-6c0.2-0.2,0.4-0.4,0.7-0.5c2.1-1.6,4.5-1,6.8-0.7c3.3,0.5,6.6,0.1,9.6-1.3
			c-0.5-2.2-0.6-2.2-2.5-1.2c-0.2,0.1-0.5,0.3-0.8,0.3c-1.9,0.2-3.8,0.5-5.6,0.4c-1.4-0.1-2.9-0.4-4.2-1.1c-2.7-1.5-4.2-4-5.5-6.7
			c-1.3-2.6-1.6-5.3-1.1-8.1c0.4-2.5,1.8-4.3,4.1-5.7c2.1-1.2,4.7-1.3,6.4,0.5c0.7,0.7,1.3,1.5,2.3,2.6
			C-93.3,559.4-93.1,558.8-93,558.1z M-129.5,460.3c4,2.4,9.4,1.3,12-2.5c1.1-1.6,1.9-3.5,2.3-5.4c1-4.2,0.2-8-3.3-11
			c-4-3.4-8.8-4.6-14.1-4c-2.1,0.3-4.2,1.1-5.6,2.7c-4.7,5.5-7,11.8-5.7,19c0.4,2.1,1.1,4.2,2.8,5.8c1.6-0.8,1.3-2,0.7-3.1
			c-1.2-2.2-1.8-4.5-2.2-6.8c-1.1-5.5,2.6-13.1,10.2-13.5c5.1-0.3,10,2.3,11.2,7c0.4,1.6,0.8,3.7,0.1,5.1c-1.1,2.3-5.6,4-8.5,1.9
			c-0.7-0.5-1.4-0.8-2.1-1.2C-132.8,456.5-131.9,458.9-129.5,460.3z M-178.4,559c-2.9-0.1-4.3,2.1-5.4,3.9c-3,4.6,0.5,12,6,13.2
			c6.2,1.3,12.4-1.6,14.4-7.8c2.6-7.7-1.3-15.1-9.5-18c-6.6-2.3-12.9-0.4-18.6,3.1c-2.8,1.8-4.6,4.4-5.8,7.3
			c-0.4,0.9-0.4,1.7,0.8,2.3c0.2-0.4,0.4-0.7,0.5-1c1.3-2.5,2.9-4.9,5.3-6.6c3.6-2.5,7.7-3.8,12.2-3.9c6.6-0.2,11.2,3.7,12.8,8.5
			c2.2,6.5-4.2,12.2-10.2,11.2c-2.3-0.4-3.8-1.7-4.2-4c-0.4-2.3,0.5-4.1,2.5-5.1c0.8-0.4,1.7-0.7,2.7-1.2
			C-175.9,559.7-176.9,559-178.4,559z M-15.1,475.8c-0.9,1.5-1.1,3-0.9,4.7c0.4,3,2.7,4.5,5.8,4c2.7-0.5,4.2-2.6,3.6-5.6
			c-0.6,0.4-1.2,0.8-1.8,1c-0.7,0.2-1.4,0.5-2.1,0.3c-2.6-0.7-3.9-4.8-2.1-6.7c1.2-1.2,2.9-2,3.9-3.3c1.7-2,3-4.1,4.4-6.3
			c0.8-1.2,0.4-1.6-0.8-1.8c-1.4,2.1-2.8,3.9-4,5.9c-1.1,2-2.9,3-5.1,3.3c-1.6,0.2-3.4,0.5-5,0.2c-2.7-0.4-5.6-0.7-7-3.5
			c-0.1-0.2-0.3-0.3-0.4-0.4c-2.9-1.7-3.8-4.4-3.6-7.4c0.3-3.7,2.9-5.7,6.8-5.2c0.3,0,0.9,0,1-0.3c0.2-0.2,0.1-0.7-0.1-1
			c-0.8-1.7-2.4-2.2-4.3-2.3c-1.9-0.1-3.4,0.4-4.3,2.1c-0.6,1.1-1.2,2.3-1.7,3.3c-2.2-1.5-4-2.9-6-4.1c-1.7-1-3.6-1.1-5.5-0.3
			c-2.4,1-3.7,6.1-2.4,8.2c1.2,1.9,3.4,2.7,5.3,2c-0.2-0.9-0.5-1.8-0.6-2.7c-0.2-2,1.1-3.3,3.2-3c1.1,0.2,2.2,0.7,3.2,1.3
			c2.2,1.5,3.2,3.9,4.2,6.2c2.3,5.3,6.4,8.2,12.4,8.7c1.5,0.1,2.9,0.3,4.6,0.5C-14.6,474.6-14.8,475.2-15.1,475.8z M-276.9,486.7
			c-0.3,0.6-0.7,1.2-0.9,1.8c-0.4,1.4-0.7,2.7-0.8,4.1c-0.4,4.5,4.7,8.7,10.2,7.4c4.2-1,6.3-4.1,7.6-7.6c1-2.8,0.6-5.7,0-8.5
			c-0.8-4.1-3-7.3-6.8-9.6c-4.2-2.5-12.2,0.1-15.5,3.6c-4.4,4.6-5.7,10.1-5.6,16.1c0,0.4,0.2,0.9,0.3,1.3c0.2,0,0.3,0.1,0.5,0.1
			c0.2-0.4,0.6-0.8,0.6-1.2c0-0.6-0.2-1.3-0.3-1.9c-0.2-5.5,1.8-10.1,6.1-13.7c2.1-1.8,4.7-2.6,7.5-2.4c4.1,0.3,6.7,2.6,7.9,6.2
			c1.1,3.4,1.9,6.9-0.5,10.2c-2.1,2.8-6.3,2.6-8-0.4c-0.8-1.5-1.2-3.1-1.8-4.7C-276.4,487.1-276.7,486.9-276.9,486.7z M-110.3,382.9
			c-0.5,0.7-1.2,1.3-1.9,0.6c-0.4-0.4-0.6-1.6-0.3-2.1c0.8-1.6,3.1-2.3,4.9-1.7c4.1,1.3,6.1,5.1,5.6,8.8c-0.8,6.1-8.4,12.2-15,12.6
			c-6,0.3-13.8-2.5-16.4-9.6c-0.1-0.3-0.5-0.6-0.8-0.6c-1.4,0-2.3,1.2-1.9,2.4c1,3.1,3.3,5.5,5.8,7.6c4.6,4,9.9,5.6,16.1,4.7
			c5.5-0.8,9.2-4.1,12.2-8.3c2.3-3.2,2.9-6.8,2.6-10.6c-0.3-3-3-4.7-4.1-7.3c-0.1-0.2-0.4-0.4-0.7-0.5c-3.9-2.3-7.2-1.6-9.7,2
			c-0.7,1-0.5,3.4,0.3,3.9c1.2,0.7,2.4,0.6,3.5-0.1c1.1-0.6,1.8-1.5,1.3-3.3C-109.6,382.2-110.1,382.5-110.3,382.9z M-157.3,599
			c0.5-0.5,1-1.1,1.5-1.6c0.6-0.6,0.7-1,0-1.6c-5.7-4.9-12.3-7.2-19.7-4.6c-7.5,2.6-11.8,8-12.5,15.7c-0.3,3,0.1,5.8,1.9,8.3
			c1.8,2.4,4.2,4.2,7.4,4.4c0.8,0,1.6,0,2.3-0.3c2.6-1.1,3.5-2.6,3.2-5.4c-0.1-0.7-0.7-1.7-1.4-2c-1.1-0.6-2.9-0.1-3.7,1
			c-0.6,0.8-0.9,1.7,0,2.8c0.9-0.7,1.7-1.4,2.6-2.2c1.4,1.8,0.4,3.7-2.1,4.1c-2.6,0.4-5.5-1.4-6.5-4.3c-0.9-2.6-0.8-5.2-0.2-7.8
			c0.7-2.9,3.1-4.6,5.1-6.4c3.8-3.4,8.5-4.7,13.6-3.7c2.9,0.6,5.7,2.1,8.5,3.1C-157.3,598.7-157.3,598.9-157.3,599z M-18.3,607.8
			c0.3-2.3-1.2-4.3-2.6-6.3c-1,1.5-2.2,2.8-2.8,4.3c-0.8,2-1.1,4.3,0.3,6.1c1,1.3,1.5,2.4,1,3.9c-0.3,0.9-0.9,1.6-1.3,2.4
			c-0.6,1-0.7,2,0.6,2.8c0.5-0.8,0.9-1.5,1.4-2.3c1.4-2.1,3.1-4,5.6-4.8c2.5-0.7,5-1,7.6-0.7c6.4,0.7,10.1,3.9,11.1,9.9
			c0.5,3-0.7,5.4-3.2,7.1c-2.2,1.5-4.6,1.7-7,0.6c-2.1-0.9-3-3.2-2.4-5.4c0.7-2.2,2.1-3,4.5-2.9c0.2,0,0.4-0.1,0.7-0.2
			c-0.1-1.4-0.8-2.4-2.2-2.6c-3-0.4-6.1,0.7-6.7,4.3c-0.2,1.3-0.4,2.6-0.3,3.9c0.2,3.2,1.7,5.7,4.8,6.9c3.1,1.3,6.2,0.8,8.8-1.1
			c2.8-2.1,4.2-4.9,4.3-8.3c0.1-4.6-1.4-8.5-5.3-11.4c-4-3-12.3-4.3-17.8-0.4c-0.4,0.3-0.9,0.3-1.4,0.5
			C-19.7,612-18.6,610-18.3,607.8z M-223.1,376.5c-5.6,2.1-11,4.4-13.4,10.3c-1.5,3.7-2.5,7.5-1.3,11.4c2.6,8.7,12.9,10,19,6.6
			c4.1-2.3,5.3-6.2,5-10.6c-0.3-4.9-4.2-8-9.3-7.3c-2.6,0.3-4.2,2.2-3.8,4.5c0.6-0.2,1.1-0.3,1.7-0.4c2.3-0.5,4.1,0.3,5.4,2.1
			c1.2,1.5,2,3.2,0.9,5.1c-1.8,3-7.8,5.8-12.2,3.8c-4.2-2-6.5-7.7-5-12.5c1.6-5,5.4-8.1,10.4-9.8c1.2-0.4,2.5-0.7,3.9-1
			C-221.6,376.6-222,376.1-223.1,376.5z M-197.5,428.1c-1.3,1.9-1.6,4.1-1,6.3c0.9,3.2,3.4,5.2,6.7,5.5c4.1,0.3,7.5-1.6,8.9-4.9
			c1.1-2.6,1.3-5.2,1.1-8c-0.4-4.3-2.2-7.8-6.6-9.7c-4.2-1.8-8.2-1.6-11.9,1.1c-7.8,5.5-10.7,13.1-9.6,22.2c0.3,2.1,1.3,4,1.9,6.1
			c0.4,1.2,1.3,0.9,2.1,0.5c1.1-0.5,0.2-1.1-0.1-1.6c-0.9-2.1-2.4-4.2-2.6-6.4c-0.8-6.7,1.7-12.5,6.7-17.2c2.9-2.8,6.4-4.3,10.6-3
			c3.7,1.1,5.7,3.7,6.1,7.3c0.4,3.2-0.5,7.2-4.2,8.7c-1.6,0.7-3.3,0.5-4.3-0.8c-0.8-1-1.3-2.3-1.5-3.6c-0.2-1.1,0.2-2.3,0.3-3.4
			C-195.9,426.9-196.9,427.3-197.5,428.1z M-58,561.3c0.2,1.2-0.2,2.1-1.4,2.5c-1.2,0.4-2.1,0.2-2.9-0.9c-2-3-6.9-3.1-9-0.3
			c-2.3,3-1.5,6.8,2.1,9.2c1.2,0.8,1.4,2.1,0.3,2.9c-0.9,0.6-2.2,1-3.2,1c-1.3-0.1-1.2,0.4-1.1,1.2c0.1,0.3,0.2,0.6,0.4,0.9
			c0.8,1.4,2.2,2,3.8,2c1.5,0,2.6-0.7,3.3-2.1c0.3-0.7,0.5-1.7,1.9-1.3c2.5,0.9,4,0,4.1-2.5c0-0.8,0.4-1,1.1-1.2
			c1.9-0.4,2.4-1.1,1.8-2.8c-0.4-1.3-0.1-2.2,0.6-3.2c2.2-3.2,1.7-5.5-1.7-8.1C-58,559.6-58.1,560.5-58,561.3z M-231.1,433.6
			c-0.3-1.2,0.1-2.1,1.4-2.6c1.5-0.7,2.5,0.1,3.3,1.1c1.5,1.7,3.4,2.2,5.6,1.7c2.5-0.6,3.7-2.2,4-4.6c0.4-2.8-0.7-4.9-2.9-6.1
			c-0.7-0.5-1.3-1.3-1.3-1.9c0-0.6,0.6-1.3,1.2-1.7c0.6-0.4,1.5-0.5,2.2-0.7c0.5-0.2,1.1-0.3,1.6-0.5c-0.2-0.6-0.4-1.3-0.8-1.8
			c-1.7-2.1-5-1.8-6.5,0.6c-0.7,1.1-1.2,1.9-2.7,1c-1-0.6-2,0-2.5,1c-0.3,0.6-0.4,1.3-0.7,2c-0.1,0.3-0.5,0.8-0.8,0.8
			c-2,0.4-2.8,1.8-1.9,3.6c0.6,1,0.1,1.7-0.5,2.4c-2.3,2.4-1.8,5.8,1.5,7.9C-230.9,434.8-231,434.2-231.1,433.6z M-156.4,445
			c0.9-1.5,2.4-2.6,4.2-1.2c2,1.7,2.2,5.1,0.3,7.3c-2,2.2-5.4,2.5-7.7,0.6c-2.4-2-2.9-4.8-3.3-7.6c-0.4-2.4,0.8-4.5,1.7-6.8
			c1.2-3,3.4-4.5,6.5-5.2c1.4-0.3,2.9-0.6,4.3-0.9c0-0.6,0-1,0-1.6c-0.7,0-1.3,0-1.9,0c-3.8,0-4.6-0.6-6.1-3.8
			c-0.6-1.4-0.4-2.8,0.3-4.1c0.8-1.3,2.4-1.9,3.8-1.5c1.3,0.4,2.7,1.5,2.3,3.2c-0.1,0.4,0,0.8,0.1,1.7c0.8-0.6,1.6-0.9,1.6-1.2
			c0-1.2,0.1-2.7-0.5-3.6c-1.5-2.4-6.7-2.4-8.5-0.2c-1.6,1.9-2.3,6.7,0.4,8.8c0.4,0.3,0.8,0.7,1,1.2c0.2,0.3,0.3,0.9,0.1,1.1
			c-0.3,0.3-0.9,0.5-1.3,0.4c-0.7-0.2-1.3-0.7-1.9-1.1c-2.7-2.1-5.3-2-7.8,0.6c1.4,3.5,4.2,3.8,7.8,2.4c-0.5,1-0.7,1.5-1,2
			c-2.1,3.3-2.6,6.9-2.3,10.6c0.2,2.5,1.1,4.8,3.2,6.5c3.8,3.1,8.6,3.1,11.2-0.4c0.9-1.2,1.5-2.8,2-4.2c1.2-3.4-1.1-7.6-5.9-8
			c-1.6-0.1-3.3,0.7-4.1,2.4c-1,1.9-0.9,3.2,0.6,4.7C-156.9,446.3-156.7,445.6-156.4,445z M-80.9,477.7c1.5-0.3,1.5-1.2,0.9-2
			c-2-2.8-4.3-5.2-7.9-6c-3-0.6-5.8,0.3-8.4,1.5c-2.5,1.2-4.9,2.5-7.3,3.9c-0.4,0.2-0.3,1.1-0.4,1.7c0.5,0.1,1,0.3,1.5,0.2
			c0.5,0,0.9-0.3,1.4-0.5c1.5-0.7,2.9-0.6,4.3,0.4c2.3,1.6,5,2.2,7.9,2.5C-86.3,478.8-83.6,478.2-80.9,477.7z M-283.3,562.1
			c0.5-0.6,0.9-1.3,1.4-1.8c1.8-1.6,3.8-1.2,4.9,1c1,2.1,0.2,3.8-1.2,5.5c-2,2.3-4.4,2.9-7.3,2.2c-2.3-0.5-3.5-2.2-4-4.2
			c-0.4-1.9-0.5-3.8-0.2-5.7c0.8-5,5.8-10,10.9-10.6c1.9-0.2,3.8,0.1,5.7,0.2c1.2,0.1,1.8-0.1,1.5-1.3c-0.1-0.4-0.1-0.7-0.2-1.2
			c-6.8-0.3-12.8,0.5-16.9,6.8c-2.2,3.4-3.3,6.8-2.7,10.7c0.5,3.7,3.9,7.1,7.4,7.6c3.7,0.5,8.1-1.5,9.6-4.8c0.8-1.7,0.8-3.7,1.1-5.6
			c0-0.2-0.1-0.5-0.3-0.8c-0.8-1-1.7-1.9-2.4-3c-1.2-2.1-6.7-1.1-7.7,1.1c-0.5,1.1-0.4,2.4-0.6,3.6
			C-283.9,561.8-283.6,562-283.3,562.1z M-17.4,560.1c0.6-1.6,2-2.9,2.5-4.7c0.5-2.1,1.5-4.1,2.3-6.2c0.2-0.6,0.2-1.3,0.4-1.9
			c0.3-1,1-1.1,1.8-0.4c0.3,0.3,0.7,0.6,1,0.9c2.8,3,4.1,6.6,4.7,10.5c0.2,1.3,0.6,2.1,2.3,1.7c0-0.4,0.1-0.7,0.1-1.1
			c-0.4-6-2.9-11-7.4-15.2c-1-0.9-1.7-1.8-1.5-3.2c0.1-0.9,0.1-1.8-0.1-2.7c-0.9-5.1-3.2-9.6-6.6-13.6c-0.6-0.7-1.1-1.6-1.9-2.1
			c-0.5-0.3-1.4,0-2.1,0c0.2,0.5,0.2,1.1,0.6,1.5c1,1.3,2.3,2.5,3.2,3.8c6.4,9.5,6.7,19.3,1.3,29.4c-1.2,2.2-2.9,3.9-4.8,5.5
			c-1.2,1-1.2,1.5,0.1,2.7C-20.4,563.2-18.2,562.3-17.4,560.1z M-289.1,401.2c-3.5,5.6-5.7,11.3-2.3,17.8c2.3,4.3,7.2,6.5,11.6,4.9
			c2.6-0.9,3.9-4.5,2.7-6.7c-0.6-1.1-1.5-1.4-2.7-1c-1.5,0.5-1.9,1.6-1.8,2.9c0,0.5,0.4,0.9,0.6,1.4c0.3-0.4,0.6-0.8,0.8-1.2
			c0.3-0.4,0.5-0.9,0.8-1.3c0.4,0.5,1,1.1,1.1,1.6c0.2,1.6-1.7,3.3-3.6,3.2c-2.9-0.2-5.2-1.5-6.6-4c-1.9-3.4-1.6-10.9,2.3-14.2
			c0.6-0.5,1.1-1.1,1.7-1.7c-1-1.3-1.8-2.4-2.8-3.8C-287.9,399.8-288.6,400.5-289.1,401.2z M-121.8,508.1c-0.1,5.6,1.6,10.8,3.5,16
			c2.1,5.7,6.5,9.6,11.3,13.2c0.4,0.3,1.1,0,1.7,0.1c-0.1-0.6,0-1.3-0.2-1.9c-0.1-0.3-0.7-0.5-1.1-0.7c-1-0.7-2.2-1.3-3-2.2
			c-1.5-1.6-2.9-3.3-4-5.1c-3.5-5.9-5.8-12.2-5.2-19.2c0.1-0.8-0.2-1.7-0.3-2.6C-121.9,505.9-121.7,505.7-121.8,508.1z M-9,537.7
			c1,2.2,2.1,4.5,3.4,6.5c1,1.5,2.8,2.3,4.9,2.3c1.2,0,1.9-0.7,2.2-1.7c0.4-1-0.3-1.4-1-1.9c-2.2-1.6-4.5-3.2-6.7-4.8
			c-1-0.7-1.8-1.6-3-2.6C-9.2,536.3-9.3,537.1-9,537.7z M-46.2,518.6c-5.3,1.3-7.6,4.9-7.9,9.4c-0.1,1.1,0.9,1.4,1.6,1.2
			c1.1-0.3,2.5-0.8,3-1.6c1.6-2.8,2.9-5.8,4.4-9.1C-45.9,518.6-46.1,518.6-46.2,518.6z M-75.6,549.8c1.2,0,2.6-0.7,3.5-1.4
			c1-0.8,1.6-2.1,0.8-3.3c-0.8-1.3-2.1-0.8-3.3-0.5c-0.1,0-0.3,0.1-0.4,0.1c-2.7,1-5.3,2.1-8.3,1.9c-0.5,0-0.9,0.2-1.8,0.4
			C-82,548.9-78.9,549.9-75.6,549.8z M-258.1,550.6c-3.1,0.6-5.7,2.1-7.8,4.3c-1.7,1.7-2.2,3.8-1.6,6.1c0.1,0.4,0.3,1.1,0.6,1.2
			c0.5,0.2,1.3,0.1,1.6-0.2c0.8-0.9,1.7-1.9,2.1-3c1.1-2.6,1.9-5.3,4.4-7c0.4-0.3,0.6-0.7,0.8-1.1
			C-257.9,550.8-258,550.7-258.1,550.6z M-229.2,374.8c-0.3-0.7-0.5-1.5-0.9-2.1c-0.9-1.3-1.9-2.6-2.8-3.9c-1.5-2.4-3.8-3-6.5-2.6
			c-0.6,0.1-1.3,0.9-1.6,1.5c-0.3,0.7-0.2,1.6,0.8,2c2.1,0.9,4.1,1.7,6.1,2.7c1.2,0.6,2.4,1.5,3.5,2.2c0.3,0.2,0.6,0.2,0.9,0.4
			C-229.5,374.9-229.4,374.9-229.2,374.8z M-105.1,602.5c-0.9,0.3-1.6,1-2.4,1.5c0.6,0.8,1.1,1.8,2,2.3c2.5,1.5,7.5,0.8,9.8-1.1
			C-97.3,602.8-101.7,601.5-105.1,602.5z M-175.9,394.3c1-0.6,1-1.3,0.2-2.1c-2.2-2.5-8.1-2.3-10.7,0.4
			C-184.2,395.6-179.1,396.4-175.9,394.3z M-226.3,551.2c-3.2,0.9-5.1,3.4-5.3,7.1c2.9,0.8,7.3-2.4,9.2-6.6
			C-223.6,550.9-224.9,550.8-226.3,551.2z M-24.4,440c1.7-1.1,3.4-2.1,5.1-3.2c2.3-1.5,3.4-3.6,3.1-6.3c-0.1-0.7-0.7-1.3-1.1-2
			c-0.6,0.4-1.3,0.7-1.8,1.2c-0.3,0.3-0.4,0.7-0.6,1.1c-1.5,2.5-2.9,5-4.4,7.5c-0.3,0.4-0.5,0.9-0.8,1.3
			C-24.7,439.8-24.5,439.9-24.4,440z M-218.4,536.6c1.4-0.4,2.9-0.6,4.3-1c0.8-0.2,1.8-0.5,1.6-1.7c-0.2-1.2-0.7-2.1-2-2.1
			c-1.4,0-3.1,0-4.1,0.7c-2.3,1.5-4.4,3.3-5.5,6C-222.2,537.8-220.3,537.1-218.4,536.6z M-83.5,489.8c-0.7,0.2-1.2,0.9-1.7,1.5
			c-0.2,0.2-0.1,0.9,0.1,1.1c1.9,1.7,8,2.7,10.4,0.8C-76.6,489.4-80.1,488.5-83.5,489.8z M-168.7,405.8c-1.8,0.6-3.6,1.1-5.4,1.7
			c-1.5,0.4-3.1,0.7-4.5,1.2c-1,0.3-1.7,1-1.6,2.1c0.1,1.1,1,1.3,1.9,1.5c2.1,0.4,4,0.3,5.5-1.5c1.4-1.7,3-3.2,4.6-4.7
			C-168.4,406-168.6,405.9-168.7,405.8z M-103.2,526.6c-2.7-1.5-5.6-1.5-8.6-1.3c-1,0.1-1.3,0.8-0.9,1.5c0.5,0.8,1.1,1.6,1.9,2.1
			c2.1,1.1,4.3,1.3,6.6,0.6c0.9-0.3,1.6-1,2.6-1.7C-102.4,527.1-102.8,526.8-103.2,526.6z M-263.6,599.2c-0.1,0.6-0.1,1.2-0.2,1.8
			c-0.8,3.1-1.7,6.3-2.5,9.4c-0.1,0.5,0,1.6,0.2,1.6c0.8,0.1,1.9,0.2,2.3-0.2c1.4-1.1,2.5-2.6,2.2-4.5c-0.4-2.5-0.8-4.9-1.2-7.4
			c0-0.3-0.3-0.5-0.4-0.8C-263.3,599.1-263.4,599.1-263.6,599.2z M-110.3,464.3c0.9-1.7,0.6-3.4,0.7-5.1c0-0.4-0.5-1.2-0.8-1.3
			c-0.6-0.1-1.4,0.1-1.7,0.5c-2.4,2.8-2.4,6.2-2.7,9.6l0.1,0.1C-112.8,467.4-111.3,466.2-110.3,464.3z M-165.6,491.2
			c-0.6,1.7-1.1,3.5-1.7,5.2c-0.6,1.8-1.3,3.7-1.8,5.5c-0.1,0.5,0,1.3,0.4,1.6c0.4,0.3,1.3,0.3,1.7,0.1c0.8-0.5,1.7-1.2,2-1.9
			c0.4-1.5,0.6-3.2,0.6-4.8c-0.1-1.9-0.5-3.9-0.8-5.8C-165.3,491.1-165.4,491.2-165.6,491.2z M-229,603.2c5.2,0.8,9.3-2.1,9-6.6
			C-224.1,596.6-228.1,600.2-229,603.2z M-112.4,554.4c-0.3-0.5-1.6-0.8-2.3-0.7c-0.5,0.1-1,1.1-1.1,1.7c-0.4,3.3,2.4,6.7,6.2,7.3
			C-109.8,559.6-110.8,556.9-112.4,554.4z M-249.3,520c-1.4,0.5-1.6,1.3-0.4,2c2,1.2,4.1,2.3,6.2,3.2c0.6,0.3,1.9,0,2.2-0.5
			c0.4-0.5,0.1-1.5,0-2.2c0-0.3-0.4-0.6-0.7-0.9c-1.5-1.4-3.5-1.6-5.5-1.9C-248,519.8-248.7,519.8-249.3,520z M-50.1,439.1
			c0-0.2-0.5-0.6-0.7-0.6c-2.2,0.7-4.3,1.4-5.8,3.2c-0.5,0.6-1,1.3-1.5,1.9c-0.3,0.5-0.6,1-0.9,1.5c0.6,0.3,1.3,0.6,1.9,0.8
			C-53.9,445.8-49.9,441.9-50.1,439.1z M-57.5,395.6c-2.1-0.5-4.1-0.5-5.8,1c-1.9,1.6-2.6,3.6-2.4,5.9
			C-62.6,402.3-58.2,398.7-57.5,395.6z M-178.8,466.2c-0.3-1.5-1-3-3-3.5c-1.4,3.6-1.5,7.1,0.3,10.7
			C-179.2,472.1-178.4,468.9-178.8,466.2z M-0.5,518.6c-1.7,0-3.3,1.8-3.3,3.7c0,1.7,1.1,2.8,2.8,2.8c2,0,3.5-1.4,3.5-3.4
			C2.5,520,1.2,518.7-0.5,518.6z M-38,464.5c-0.8-0.1-2.1,0.2-2.3,0.7c-0.3,0.6,0.2,1.6,0.4,2.5c0.1,0.3,0.5,0.5,0.7,0.7
			c2,1.4,6.4,1.5,8.4-0.2C-32.6,466.4-36,464.6-38,464.5z M-254.5,467.2c-1.9,0-3.4,1.6-3.3,3.6c0.1,1.9,1.1,3,2.8,3
			c1.8,0,3.1-1.6,3.1-3.7C-251.9,468.2-252.9,467.2-254.5,467.2z M-181.4,588c1.8,0,3.5-1.7,3.5-3.6c0-1.4-1.4-2.7-3-2.7
			c-1.8,0-3.2,1.4-3.2,3.4C-184.1,586.8-183,588-181.4,588z M-241.1,631.4c1.7,0.1,3.1-1.5,3.1-3.5c0-1.4-1.4-2.9-2.8-2.9
			c-1.8,0-3.1,1.3-3.1,3.3C-244,630.1-242.9,631.3-241.1,631.4z M-106,413.3c-0.1,1.5,1.2,2.8,2.8,2.9c1.8,0.1,3.3-1.5,3.4-3.4
			c0-1.4-1.2-2.7-2.5-2.8C-104.1,409.9-105.9,411.5-106,413.3z M-178.5,442.5c0-0.4-0.7-1.1-0.9-1c-0.8,0.1-1.8,0.4-2.2,0.9
			c-1.4,1.9-2.6,3.9-4,6.1C-182.2,449.4-178.1,446.4-178.5,442.5z M-45.7,369.2c-1.8,0-3.2,1.3-3.3,3.2c-0.1,1.6,1.2,2.8,3,2.8
			c1.9,0,2.8-1.1,2.9-3.4C-43.1,370.2-44.1,369.2-45.7,369.2z M-257.4,505.9c-0.2,1.3-0.5,2.6-0.8,3.8c-0.1,0.7-0.3,1.3-0.4,2
			c3.6-0.5,5.6-4.5,4.6-8.3C-255.7,503.1-257.1,504.1-257.4,505.9z M-40.7,582.1c-1.5,0-2.9,1.4-3,2.9c0,1.4,1,2.4,2.6,2.4
			c1.5,0,2.7-1.3,2.7-2.9C-38.4,583-39.2,582.1-40.7,582.1z M-126.4,617.6c0.7,0.1,1.5,0.6,1.9-0.4c0.3-0.9,0.4-1.8-0.8-2.4
			c-0.8-0.4-1.4-1-2.2-1.5c-1-0.6-2.2-1.1-3.4-1.7C-131.4,615-128.8,617.4-126.4,617.6z M-78.6,593.9c0,1.5,0.9,2.4,2.4,2.4
			c1.8,0,3-1.2,3-2.8c0-1.5-0.9-2.4-2.6-2.4C-77.5,591.1-78.6,592.2-78.6,593.9z M-287.6,367.3c-1.5,0-2.9,1.5-2.9,3.2
			c0,1.5,0.9,2.5,2.2,2.4c1.5,0,2.8-1.6,2.8-3.3C-285.4,368.1-286.2,367.3-287.6,367.3z M-155.8,380.3c-0.9-0.2-1.9-0.6-2.3,0.4
			c-0.5,1.1-0.1,2.1,1,2.7c1.7,0.9,3.4,1.6,5.3,2.5C-151.5,383.4-153.4,380.9-155.8,380.3z M-19.1,539.9c0-1.4-1-2.5-2.5-2.5
			c-1.6,0-2.6,1-2.7,2.7c0,1.6,0.7,2.3,2.2,2.4C-20.3,542.5-19.1,541.3-19.1,539.9z M-206.8,584.5c0.1-1.5-1.1-2.8-2.5-2.8
			c-1.4,0-2.5,1.1-2.5,2.5c0,1.4,1.3,2.9,2.5,2.9C-208,587.1-206.8,585.9-206.8,584.5z M-204.4,408.5c1.5,0,2.7-1.2,2.7-2.6
			c0-1.5-1-2.5-2.5-2.4c-1.6,0-2.6,1-2.6,2.6C-206.8,407.6-205.9,408.6-204.4,408.5z M-170.6,455.7c1.4,0,2.6-1.3,2.6-2.9
			c0-1.4-0.9-2.4-2.1-2.4c-1.5,0-2.6,1.3-2.6,3.1C-172.8,455-172.1,455.8-170.6,455.7z M-106.2,490.8c-1.5,0-2.5,0.9-2.6,2.4
			c0,1.6,1.1,2.9,2.4,2.9s2.4-1.2,2.4-2.6C-104,491.8-104.8,490.8-106.2,490.8z M-286.7,578.6c-1.5,0-2.4,0.9-2.5,2.4
			c-0.1,1.4,1.2,2.7,2.6,2.7s2.1-0.7,2.1-2.4C-284.4,579.6-285.2,578.7-286.7,578.6z M-12.5,412.3c1.4,0,2.7-1.2,2.7-2.5
			c0-1.4-1-2.3-2.5-2.3c-1.6,0-2.4,0.8-2.4,2.4C-14.8,411.5-14.1,412.3-12.5,412.3z M-73.4,414.2c0-1.3-0.8-2.2-2-2.2
			c-1.4-0.1-2.8,1.3-2.9,2.8c-0.1,1.3,0.8,2.3,2.2,2.3C-74.3,417.1-73.4,416.2-73.4,414.2z M-244.1,397.2c-1.5,0-2.5,1-2.5,2.6
			c0,1.5,0.9,2.5,2.2,2.5c1.4,0,2.3-1,2.3-2.7C-242.1,398-242.8,397.2-244.1,397.2z M-226,443.2c-1.5,0-2.5,0.9-2.5,2.4
			c0,1.4,1,2.5,2.3,2.5c1.2,0,2.2-1.2,2.2-2.6C-224.1,444.2-225,443.2-226,443.2z M0.2,609.2c0.4-0.2,0.7-0.8,0.8-1.2
			c0-0.3-0.4-0.7-0.8-0.9c-2.1-0.8-4.4,0.4-5.1,2.6C-3,610.1-1.4,610,0.2,609.2z M-2.2,487.5c2.3,0.3,3.2-0.4,4.6-3.8
			C0,483.5-1.7,484.9-2.2,487.5z"/>
	</g>
	<g>
		<circle id="SVGID_1_" class="st2" cx="-155.1" cy="421.1" r="46.7"/>
	</g>
</g>
</svg>
