<?xml version="1.0" encoding="utf-8"?>
<!-- Generator: Adobe Illustrator 17.1.0, SVG Export Plug-In . SVG Version: 6.00 Build 0)  -->
<!DOCTYPE svg PUBLIC "-//W3C//DTD SVG 1.1//EN" "http://www.w3.org/Graphics/SVG/1.1/DTD/svg11.dtd">
<svg version="1.1" id="Layer_1" xmlns="http://www.w3.org/2000/svg" xmlns:xlink="http://www.w3.org/1999/xlink" x="0px" y="0px"
	 viewBox="0 0 141.7 141.7" enable-background="new 0 0 141.7 141.7" xml:space="preserve">
<g>
	<circle fill="none" cx="70.9" cy="70.9" r="70.9"/>
	<g>
		<path fill="none" stroke="#FFFFFF" stroke-width="1.7117" stroke-miterlimit="10" d="M90.3,43.8l-9.9-17.2
			c-1.3-2.3-3.8-3.8-6.5-3.8h-6.1c-2.7,0-5.2,1.4-6.5,3.8L50.9,44.7l13.1,7.5l6.9-12l6.4,11.1l-4.9,2.9l22.9,13.2V40.9L90.3,43.8z"
			/>
		<path fill="none" stroke="#FFFFFF" stroke-width="1.7117" stroke-miterlimit="10" d="M70.9,39.9l-7.7-13.3c0,0-0.4-0.8-1.1-0.8
			l-0.3,0"/>
	</g>
	<g>
		<path fill="none" stroke="#FFFFFF" stroke-width="1.7117" stroke-miterlimit="10" d="M37.7,67.6l-9.9,17.2c-1.3,2.3-1.3,5.2,0,7.5
			l3,5.2c1.3,2.3,3.8,3.8,6.5,3.8l20.9,0l0-15.1l-13.9,0l6.4-11.1l4.9,2.9l0-26.5L32.7,64.7L37.7,67.6z"/>
		<path fill="none" stroke="#FFFFFF" stroke-width="1.7117" stroke-miterlimit="10" d="M44,86.4l-7.7,13.3c0,0-0.4,0.8-0.1,1.4
			l0.2,0.3"/>
	</g>
	<g>
		<path fill="none" stroke="#FFFFFF" stroke-width="1.7117" stroke-miterlimit="10" d="M84.6,101.3l19.8,0c2.7,0,5.2-1.4,6.5-3.8
			l3-5.2c1.3-2.3,1.3-5.2,0-7.5l-10.4-18.1l-13.1,7.5l6.9,12l-12.8,0l0-5.7L61.7,93.7L84.6,107L84.6,101.3z"/>
		<path fill="none" stroke="#FFFFFF" stroke-width="1.7117" stroke-miterlimit="10" d="M97.7,86.4l15.3,0c0,0,0.9,0,1.2-0.6l0.2-0.3
			"/>
	</g>
</g>
</svg>
