<?xml version="1.0" encoding="utf-8"?>
<!-- Generator: Adobe Illustrator 17.1.0, SVG Export Plug-In . SVG Version: 6.00 Build 0)  -->
<!DOCTYPE svg PUBLIC "-//W3C//DTD SVG 1.1//EN" "http://www.w3.org/Graphics/SVG/1.1/DTD/svg11.dtd">
<svg version="1.1" id="Layer_1" xmlns="http://www.w3.org/2000/svg" xmlns:xlink="http://www.w3.org/1999/xlink" x="0px" y="0px"
	 viewBox="0 0 141.7 141.7" enable-background="new 0 0 141.7 141.7" xml:space="preserve">
<circle fill="none" cx="70.9" cy="70.9" r="70.9"/>
<g>
	<path fill="none" stroke="#AEAFB2" stroke-width="2.8346" stroke-miterlimit="10" d="M37.2,83.4c0,2.3-3.1,3-6.3,4.2
		c-3.7,1.4-8.1,0.8-9-0.6c0-3.6,6.1-5.2,9.6-5.2S37.2,81.1,37.2,83.4z"/>
	<path fill="none" stroke="#AEAFB2" stroke-width="2.8346" stroke-miterlimit="10" d="M105.8,88.2c0,3.9-4.2,4.7-10,4.7
		c-1.6,0-7.9,1.6-9.9,1.4c-5.5-0.5-7-3.1-6.3-3.9c2.6-2.8,10.5-9.3,16.5-9.3C101.9,80.9,105.8,84.3,105.8,88.2z"/>
	<path fill="none" stroke="#AEAFB2" stroke-width="2.8346" stroke-miterlimit="10" d="M52,94.9c0,4.6,4.2,5.6,10,5.6
		c1.6,0,7.9,1.9,9.9,1.7c5.5-0.6,7-3.7,6.3-4.7c-2.6-3.3-10.5-11-16.5-11.1C55.9,86.3,52,90.3,52,94.9z"/>
	<path fill="none" stroke="#AEAFB2" stroke-width="2.8346" stroke-miterlimit="10" d="M56.9,69.2c7.2-7.9,16.8-15.9,22.4-18
		c11.4-4.2,23.9-3,27.3-3c8.2,0-6.2,16.2-5.5,23c0.3,2.9-1.4,6.5-4.3,9.7"/>
	<path fill="none" stroke="#AEAFB2" stroke-width="2.8346" stroke-miterlimit="10" d="M115,82.7c-1.3,2.2-5.4,2.5-8.5,2.1
		s-2.7-2.3-2.3-4.9c0.3-2.6,10.9-4.1,11.8-3.7C118.8,77.4,115.7,81.6,115,82.7z"/>
	<path fill="none" stroke="#AEAFB2" stroke-width="2.8346" stroke-miterlimit="10" d="M80.5,87.9c0,1.8-3.7,3.9-5.8,3.6
		c-4.8-0.6-3.7-3-3.7-4.8c0-1.8,1.6-2.4,3.7-2.4C76.8,84.4,80.5,86.1,80.5,87.9z"/>
	<g>
		<path fill="#AEAFB2" d="M59.9,34.9c-1.2,1.1-2.4,2.2-3.7,3.3c-1.3,1.1-2.8,2.2-4.1,3.3c-0.7,0.6-1,1.5-0.8,2.5
			c0.1,0,0.3,0,0.3-0.1c1.6-1.6,3.6-2.4,5.6-3.4c0.5-0.3,0.9-0.9,1.2-1.4c0.3-0.4,0.5-1,0.8-1.4c1.4-1.8,3-3.4,3.9-5.5
			c0.2-0.6,0.7-1,1.3-1.4c-1.8,2.8-3.5,5.6-5.4,8.6c1.4-0.1,2.6-0.4,3.7-1.3c1.8-1.4,2.4-3.6,3.5-5.4c0.9-1.5,1.9-3,2.9-4.5
			c0.1,0.1,0.2,0.2,0.4,0.2c-0.5,0.7-1.1,1.3-1.5,2c-1,1.7-1.7,3.5-2.7,5.1c-1.2,1.9-2.7,3.6-5.1,4.4c-4.6,1.5-8.4,4-10.3,8.6
			c-0.2,0.6-0.4,1.2-0.5,1.9c-0.1,2.3-0.3,4.6-0.3,6.9c0,0.7,0.4,1.4,0.6,2.2c1.4-0.6,2.1-1.6,2.1-2.8c0-0.6-0.3-1.3-0.1-1.9
			c0.1-0.8,0.4-1.6,0.9-2.2c0.8-0.9,1.8-1.5,2.1-2.7c0.2-0.6,0.8-1.1,1.3-1.8c-0.4,1-0.8,1.8-1.2,2.7c1.5-0.5,2-0.9,3.2-2.9
			c-0.1,1.2-0.7,2-2.1,2.9c-1,0.7-1.9,1.4-2.8,2.2c-0.9,0.9-0.9,1.5-0.3,2.1c1.3,1.1,2.1,1.2,2.9,0.2c2.1-2.9,4.2-5.8,6.2-8.8
			c0.5-0.7,0.3-1.7,0.6-2.6c0.2-0.6,0.5-1.2,0.7-1.8l0,0c-0.1,0.4-0.3,0.8-0.4,1.2c0.1,0.1,0.2,0.1,0.4,0.2c0.9-1,1.7-2,2.6-3
			c0.1,0,0.1,0.1,0.2,0.1c-0.8,1.1-1.6,2.1-2.4,3.2c-0.3,0.4-0.6,0.8-0.8,1.3c-0.5,1.3-0.9,2.7-1.3,4.1c0.8-1.2,1.7-2.3,2.7-3.7
			c-0.6,1.3-1.1,2.4-1.6,3.5c-0.1,0.1-0.2,0.3-0.4,0.4c-1.6,0.8-2.5,2.1-3.4,3.5c-0.6,0.9-1.2,1.7-1.8,2.5c-0.1,0.2-0.2,0.5-0.3,0.8
			c2.5-0.2,6.1-2.8,7-4.7c0.5-0.4,1.1-0.7,1.5-1.1c1-1.2,1.9-2.4,2.9-3.6c-0.1,0.3-0.2,0.6-0.4,0.8c-2.4,3.5-5,6.7-8.7,8.9
			c-1.1,0.7-2.3,1.1-3.7,1c-1.6-0.1-2.8,0.5-3.6,2c-1.1,2-1.7,4-1.2,6.3c0.4,2.1,0.5,4.6,1.3,6.4l-4,1.9c0-1.4-0.2-2.8-0.7-3.9
			c-0.3-0.8-1.1-1.4-1.8-1.9c-2.2-1.7-4.4-3.4-6.7-5.1c-0.4-0.3-0.8-0.6-1.2-0.9c-1.3-1-1.3-1-1.2-2.8c0.2,0.5,0.3,1.1,0.6,1.5
			c0.3,0.4,0.8,0.7,1.3,0.9c-0.1-0.4-0.3-0.8-0.4-1.3c-0.1-0.3-0.2-0.7-0.2-1.1c-0.1-0.8-0.1-1.6-0.1-2.3c0.4,0.4,0.8,1,0.8,2.1
			c-0.1,2,0.6,3.7,2.8,4.6c0.4-1.5,0.5-3-0.1-4.4c-1.2-2.9-1.5-5.9-1.7-9c-0.1-0.9,0.2-1.8,0.5-2.6c0.9-2,1.1-3.9,0-5.9
			c-0.2-0.4-0.2-0.8-0.2-1.3c0.6,1.2,1.1,2.4,1.7,3.6c2.1-1.2,0.7-3,0.9-4.5c0.2,0.7,0.6,1.5,0.6,2.2c0,0.7,0,1.6-0.4,2
			c-1.6,1.5-1.9,3.6-2.1,5.6c-0.2,1.9,0.2,3.9,0.3,6c1.5-1.5,2.2-3,1.6-5c0.3,1.5,1.2,3.1-0.4,4.5c-0.6,0.6-0.8,1.3-0.6,2.3
			c0.6,2,1,4.1,1.5,6.2c0,0.1,0.1,0.3,0.2,0.4c1.4,1.3,2.6,3,5,3.2c-0.2-0.7-0.2-1.3-0.4-1.9c-0.6-1.5-0.6-3.1-0.4-4.7
			c0.3-2.1,0.1-4-0.9-5.9c-1.4-2.7-1.8-5.8-2.4-8.7c-0.1-0.6,0.2-1.4,0.5-2c0.4-0.9,1-1.7,1.4-2.5c0.1-0.3,0.1-0.7,0-1.1
			c-0.1-0.6-0.2-1.3-0.4-1.9c0.1,0,0.2,0,0.3,0c0.1,0.6,0.2,1.2,0.3,1.8c0.1,0,0.2,0,0.3,0.1c0.2-0.6,0.5-1.3,0.8-2.2
			c0.1,1.5-0.3,2.6-0.9,3.6c-0.8,1.5-1.9,2.8-1.8,4.6c0.1,0.7,0.3,1.4,0.5,2.1c0.1,0,0.3,0,0.4,0.1c0.6-1.3,1.3-2.6,1.9-3.9
			c0.3-0.7,0.5-1.6,1-2.3c0.5-0.8,0.9-1.4,0.3-2.3c-0.1-0.2-0.1-0.5,0.1-0.9c0.2,0.4,0.4,0.8,0.7,1.5c1.1-1.1,2-2,2.9-2.9
			c0.1,0,0.1,0.1,0.2,0.1c-0.6,0.8-1.1,1.7-1.9,2.3c-1.6,1.2-1.9,3-2.6,4.7c-0.4,1-0.8,2-1.2,3c-0.2,0.7-0.6,1.5-0.5,2.2
			c0.1,1.6,0.5,3.1,0.8,4.7c0.1,0,0.3,0,0.4,0c0.2-0.4,0.4-0.9,0.5-1.3c1-3.5,1.9-6.9,2.9-10.4c0.3-1.2,0.7-2.1,1.9-2.8
			c0.9-0.5,1.5-1.5,2.1-2.4c1-1.6,2-3.3,2.9-4.9c0.2-0.3,0.3-0.7,0.2-1c-1.2-2.7-1.1-5.2,0.4-7.7c0.2-0.3,0.2-0.6,0.5-0.8
			c-0.5,1.5-1,2.9-1.5,4.4c0.1,0.1,0.2,0.1,0.3,0.2c1.1-1.5,2.2-3,3.2-4.4c0.1,0.1,0.2,0.1,0.2,0.2c-0.9,1.4-1.8,2.9-2.9,4.2
			c-0.6,0.7-0.8,1.3-0.5,2.2c0.2,0.5,0.3,1,0.5,1.7c2.8-2.8,4.7-6,5.6-9.7c-0.8,2.1-0.8,4.4-2.3,6.3c-2,2.6-3.7,5.4-5.5,8.1
			c-0.2,0.3-0.3,0.5-0.4,0.8c0.1,0.1,0.1,0.2,0.2,0.3c0.9-0.4,1.7-0.8,2.5-1.3c0.6-0.4,1.2-0.9,1.8-1.4
			C59.9,34.8,59.9,34.9,59.9,34.9z"/>
	</g>
	<g>
		<path fill="#AEAFB2" d="M76.2,64.8c0,1,0.1,2,0.1,3c0.1,1.1,0.2,2.2,0.3,3.2c0,0.6-0.2,1.1-0.7,1.4c0-0.1-0.1-0.1-0.1-0.2
			c0-1.4-0.5-2.7-0.9-3.9c-0.1-0.3,0-0.8,0.1-1.1c0-0.3,0.2-0.6,0.2-1c0.2-1.4,0.2-2.8,0.8-4.1c0.1-0.3,0.1-0.8,0.1-1.1
			c-0.5,2-1,4-1.5,6.1c-0.6-0.7-0.9-1.3-1-2.2c-0.1-1.4,0.6-2.6,0.9-3.9c0.3-1.1,0.5-2.2,0.8-3.2c-0.1,0-0.2,0-0.3-0.1
			c-0.1,0.5-0.1,1.1-0.2,1.5c-0.3,1.1-0.8,2.3-1.1,3.4c-0.3,1.4-0.4,2.8,0.3,4.1c1.3,2.7,1.9,5.4,0.6,8.3c-0.2,0.4-0.4,0.7-0.6,1
			c-1,1.1-1.9,2.1-2.9,3.1c-0.3,0.3-0.8,0.4-1.2,0.7c-0.4-0.9-0.2-1.6,0.3-2.1c0.3-0.3,0.7-0.5,0.9-0.8c0.3-0.4,0.6-0.9,0.6-1.3
			c0.1-0.7-0.1-1.4,0.3-2.1c0.2-0.3,0.1-0.8,0.2-1.3c-0.3,0.6-0.5,1.1-0.7,1.7c-0.4-0.8-0.4-1.3-0.1-2.7c-0.5,0.6-0.5,1.2-0.4,2.2
			c0.1,0.7,0.2,1.5,0.2,2.2c0,0.8-0.3,1.1-0.8,1c-1-0.1-1.5-0.4-1.3-1.2c0.4-2.2,0.8-4.4,1.2-6.5c0.1-0.5,0.6-0.9,0.9-1.4
			c0.2-0.3,0.3-0.7,0.5-1.1l0,0c-0.1,0.2-0.2,0.5-0.3,0.7c-0.1,0-0.2,0-0.2-0.1c0.1-0.8,0.2-1.6,0.2-2.5c0,0-0.1,0-0.1,0
			c-0.1,0.8-0.2,1.6-0.4,2.4c0,0.3-0.1,0.6-0.2,0.9c-0.4,0.8-0.8,1.5-1.2,2.3c0.1-0.9,0.3-1.8,0.5-2.8c-0.3,0.8-0.6,1.5-0.9,2.2
			c0,0.1,0,0.2,0,0.3c0.3,1,0.2,2-0.1,3c-0.1,0.6-0.2,1.3-0.3,1.9c0,0.2-0.1,0.3-0.2,0.5c-1-1.2-1.4-3.9-0.9-5.2
			c-0.1-0.4-0.2-0.8-0.1-1.1c0.1-0.9,0.3-1.9,0.3-2.9c-0.1,0.2-0.2,0.3-0.2,0.5c-0.5,2.6-0.8,5.1-0.2,7.7c0.2,0.8,0.5,1.5,1.2,2
			c0.7,0.6,1,1.4,0.7,2.5c-0.4,1.3-1,2.5-2.2,3.3c-1.1,0.7-2.3,1.8-3.4,2.2l0.9,2.6c0.7-0.6,1.3-1.1,2-1.4c0.5-0.2,1.1-0.1,1.6,0
			c1.7,0.2,3.4,0.5,5.1,0.8c0.3,0,0.6,0.1,0.9,0.1c1,0.2,1,0.1,1.8-0.7c-0.3,0.1-0.6,0.3-0.9,0.4c-0.3,0.1-0.6,0-1-0.2
			c0.2-0.1,0.5-0.2,0.7-0.4c0.2-0.1,0.4-0.2,0.6-0.4c0.4-0.3,0.8-0.7,1.1-0.9c-0.4,0-0.8,0.1-1.3,0.6c-0.9,0.9-1.9,1.3-3.2,0.8
			c0.5-0.8,1.1-1.5,2-1.8c1.8-0.7,3.2-1.9,4.7-3.1c0.4-0.3,0.7-0.9,0.9-1.4c0.5-1.2,1.3-2.2,2.6-2.5c0.3-0.1,0.5-0.3,0.7-0.5
			c-0.8,0.3-1.5,0.5-2.3,0.8c-0.4-1.5,1-1.6,1.6-2.4c-0.4,0.2-0.9,0.4-1.2,0.7c-0.3,0.3-0.7,0.7-0.7,1.1c0,1.4-0.8,2.4-1.5,3.3
			c-0.8,0.9-1.8,1.6-2.8,2.5c0-1.3,0.4-2.3,1.5-2.8c-0.8,0.5-1.9,0.8-1.8,2.1c0,0.5-0.2,0.9-0.7,1.2c-1.1,0.6-2.3,1.3-3.4,2
			c-0.1,0-0.2,0.1-0.2,0.1c-1.2-0.1-2.5,0.1-3.6-0.8c0.4-0.2,0.7-0.5,1-0.6c0.9-0.4,1.6-1.1,2.2-1.9c0.8-1,1.8-1.8,3-2.1
			c1.8-0.5,3.3-1.7,4.9-2.7c0.3-0.2,0.5-0.7,0.7-1.1c0.2-0.6,0.3-1.2,0.5-1.7c0.1-0.2,0.3-0.3,0.5-0.5c0.3-0.2,0.7-0.5,1-0.7
			c0,0-0.1-0.1-0.1-0.1c-0.3,0.2-0.6,0.4-0.9,0.7c0,0-0.1-0.1-0.1-0.1c0.2-0.4,0.4-0.8,0.6-1.3c-0.7,0.6-1,1.3-1.2,2
			c-0.3,1-0.4,2.1-1.3,2.8c-0.4,0.3-0.8,0.5-1.2,0.7c-0.1-0.1-0.1-0.1-0.2-0.2c0.3-0.8,0.6-1.7,0.9-2.5c0.2-0.5,0.5-0.9,0.6-1.4
			c0.1-0.6,0.2-1,0.9-1.1c0.1,0,0.3-0.2,0.3-0.4c-0.3,0.1-0.5,0.2-1,0.3c0-0.9,0-1.7,0-2.6c0,0-0.1,0-0.1,0
			c-0.1,0.6-0.3,1.2-0.2,1.8c0.2,1.2-0.5,2.2-0.9,3.2c-0.3,0.6-0.5,1.2-0.8,1.8c-0.2,0.4-0.4,0.9-0.7,1.2c-0.8,0.6-1.6,1.1-2.4,1.7
			c-0.1-0.1-0.1-0.1-0.2-0.2c0.1-0.3,0.2-0.6,0.4-0.8c1.1-1.9,2.2-3.8,3.4-5.8c0.4-0.6,0.6-1.2,0.4-2.1c-0.2-0.6,0-1.3,0.2-2
			c0.3-1.1,0.6-2.3,0.9-3.4c0.1-0.2,0.2-0.4,0.4-0.5c1.7-0.6,2.8-1.8,3.2-3.5c0-0.2,0.2-0.4,0.1-0.6c-0.4,0.9-0.9,1.7-1.3,2.6
			c-0.1,0-0.2-0.1-0.2-0.1c0.2-1.1,0.4-2.2,0.6-3.3c-0.1,0-0.1,0-0.2,0c-0.2,1-0.5,2.1-0.6,3.1c-0.1,0.6-0.3,0.9-0.8,1.2
			c-0.3,0.1-0.6,0.3-1,0.5c0-2.4,0.6-4.6,1.9-6.7c-0.6,1.3-1.6,2.3-1.8,3.8c-0.3,2-0.8,4-1.2,5.9c0,0.2-0.1,0.4-0.2,0.5
			c-0.1,0-0.2,0-0.2,0c-0.2-0.6-0.4-1.1-0.5-1.7C76.3,65.8,76.3,65.3,76.2,64.8C76.2,64.8,76.2,64.8,76.2,64.8z"/>
	</g>
	<path fill="none" stroke="#AEAFB2" stroke-width="2.8346" stroke-miterlimit="10" d="M53.8,89.8c-3.1,0.9-6.3,1.4-8.2,1.4"/>
	<path fill="none" stroke="#AEAFB2" stroke-width="2.8346" stroke-miterlimit="10" d="M35.7,82.6c0-4.2,18.7-13.8,23.8-13.8
		s4.2,10.6,4.2,14.8c0,1-0.8,2-2,2.9"/>
	<path fill="none" stroke="#AEAFB2" stroke-width="2.8346" stroke-miterlimit="10" d="M46.1,91.6c0,2.7-3.4,3.6-6.5,3.6
		c-3.1,0-10.1-1.4-10-4c0.1-2.7,7.1-6.4,9.8-6.3C42.6,85.1,46.1,88.9,46.1,91.6z"/>
</g>
</svg>
