<?xml version="1.0" encoding="utf-8"?>
<!-- Generator: Adobe Illustrator 17.1.0, SVG Export Plug-In . SVG Version: 6.00 Build 0)  -->
<!DOCTYPE svg PUBLIC "-//W3C//DTD SVG 1.1//EN" "http://www.w3.org/Graphics/SVG/1.1/DTD/svg11.dtd">
<svg version="1.1" id="Layer_1" xmlns="http://www.w3.org/2000/svg" xmlns:xlink="http://www.w3.org/1999/xlink" x="0px" y="0px"
	 viewBox="0 0 141.7 141.7" enable-background="new 0 0 141.7 141.7" xml:space="preserve">
<circle fill="none" cx="70.9" cy="70.9" r="70.9"/>
<g>
	<path fill="none" stroke="#ADAEB1" stroke-width="2.8346" stroke-miterlimit="10" d="M74.2,39.1c0,1.4-1.1,2.5-2.5,2.5H70
		c-1.4,0-2.5-1.1-2.5-2.5v-7.5c0-1.4,1.1-2.5,2.5-2.5h1.7c1.4,0,2.5,1.1,2.5,2.5V39.1z"/>
	<path fill="none" stroke="#ADAEB1" stroke-width="2.8346" stroke-miterlimit="10" d="M72.8,58.9l0.8-0.5c1.4-1,2.2-2.5,2.2-4.2
		c0-2.8-2.3-5-5-5s-5,2.3-5,5c0,1.7,0.9,3.3,2.2,4.2l0.8,0.5l-20.4,46.8l-2.2-11.1l15.2-34c-1.3-1.9-2-4.1-2-6.4
		c0-6.2,5.1-11.4,11.4-11.4c6.2,0,11.4,5.1,11.4,11.4c0,2.3-0.7,4.5-2,6.4l15.2,34l-2.2,11.1L72.8,58.9z"/>
	<g>
		<path fill="none" stroke="#ADAEB1" stroke-width="2.8346" stroke-miterlimit="10" d="M87.3,76.4c1.8-1.1,3.4-2.5,4.9-4
			c1.2-1.2,1.2-3.3,0-4.6c-1.2-1.2-3.3-1.2-4.6,0c-1,1-1.9,1.8-3,2.5L87.3,76.4z"/>
		<path fill="none" stroke="#ADAEB1" stroke-width="2.8346" stroke-miterlimit="10" d="M54.5,76.4l2.7-6c-1.1-0.8-2.1-1.6-3-2.5
			c-1.2-1.2-3.3-1.2-4.6,0c-1.2,1.2-1.2,3.3,0,4.6C51,73.9,52.7,75.2,54.5,76.4z"/>
		<path fill="none" stroke="#ADAEB1" stroke-width="2.8346" stroke-miterlimit="10" d="M79.2,73.2c-5.4,1.9-11.2,1.9-16.5,0l-2.5,6
			c3.5,1.3,7.2,2,10.8,2c3.7,0,7.4-0.7,10.8-2L79.2,73.2z"/>
	</g>
</g>
</svg>
