<?xml version="1.0" encoding="utf-8"?>
<!-- Generator: Adobe Illustrator 17.1.0, SVG Export Plug-In . SVG Version: 6.00 Build 0)  -->
<!DOCTYPE svg PUBLIC "-//W3C//DTD SVG 1.1//EN" "http://www.w3.org/Graphics/SVG/1.1/DTD/svg11.dtd">
<svg version="1.1" id="Layer_1" xmlns="http://www.w3.org/2000/svg" xmlns:xlink="http://www.w3.org/1999/xlink" x="0px" y="0px"
	 viewBox="0 0 141.7 141.7" enable-background="new 0 0 141.7 141.7" xml:space="preserve">
<circle fill="none" cx="70.9" cy="70.9" r="70.9"/>
<g>
	<g>
		<path fill="none" stroke="#AEAFB2" stroke-width="2.8346" stroke-miterlimit="10" d="M46.8,101.7c-2.4,2.4-6.3,2.4-8.7,0l0,0
			c-2.4-2.4-2.4-6.3,0-8.7l18-18l8.7,8.7L46.8,101.7z"/>
		<path fill="none" stroke="#AEAFB2" stroke-width="2.8346" stroke-miterlimit="10" d="M84.4,61L63.2,82.2l-5.7-5.7l21.2-21.2
			l8.3-8.2c0-0.1-0.1-0.1-0.1-0.2c-0.3-0.3-0.6-0.6-1-0.9c-3.5-2.8-7.5-3.9-11.9-3.5c-0.1,0-0.3,0-0.4-0.1c-0.6-0.6-1.2-1.1-1.8-1.7
			c0.2-0.1,0.3-0.2,0.4-0.2c5.8-3.5,13.4-2.9,18.5,1.5c2.2,2,4.3,4.2,6.4,6.3c0.2,0.2,0.3,0.4,0.2,0.7c-0.8,3.2,2.1,6,5.2,5.2
			c0.3-0.1,0.5,0,0.7,0.2c1.5,1.5,2.9,2.9,4.4,4.4c0.1,0.1,0.2,0.2,0.3,0.3c-3,3-5.9,5.9-8.9,8.9c-1.6-1.6-3.2-3.3-4.9-4.9
			c-0.1-0.1-0.1-0.3,0-0.5c0.4-1.8-0.2-3.6-1.6-4.6c-1.7-1.2-4-1-5.6,0.5L84.4,61z"/>
	</g>
	<path fill="none" stroke="#AEAFB2" stroke-width="2.8346" stroke-miterlimit="10" d="M101.1,93c2.4,2.4,2.4,6.3,0,8.7l0,0
		c-2.4,2.4-6.3,2.4-8.7,0l-18-18l8.7-8.7L101.1,93z"/>
	<path fill="none" stroke="#AEAFB2" stroke-width="2.8346" stroke-miterlimit="10" d="M45.8,41.3c-0.1-0.1-0.1-0.1-0.2-0.1
		c-0.8,0.8-1.7,1.7-2.5,2.5c-0.8,0.8-1.7,1.7-2.5,2.5c0,0.1,0.1,0.1,0.1,0.2c2.9,3.2,5.8,6.3,8.7,9.5c0.2,0.2,0.4,0.3,0.7,0.4
		c0.9,0.2,1.7,0.3,2.6,0.4c0.5,0.1,0.8,0.2,1.2,0.6c7.3,7.3,11.5,11.5,11.5,11.5l2.8-2.8c0,0-4.1-4.1-11.5-11.5
		c-0.4-0.4-0.5-0.7-0.6-1.2c-0.1-0.9-0.2-1.8-0.4-2.6c0-0.2-0.2-0.5-0.4-0.7C52.2,47.1,49,44.2,45.8,41.3z"/>
	
		<rect x="73.8" y="71.7" transform="matrix(0.7071 -0.7071 0.7071 0.7071 -31.7265 75.7586)" fill="none" stroke="#AEAFB2" stroke-width="2.8346" stroke-miterlimit="10" width="3.6" height="9"/>
</g>
</svg>
