<svg version="1.1" id="Layer_1" xmlns="http://www.w3.org/2000/svg" xmlns:xlink="http://www.w3.org/1999/xlink" x="0px" y="0px"
	 viewBox="0 0 141.7 141.7" enable-background="new 0 0 141.7 141.7" xml:space="preserve">
<circle fill="none" cx="70.9" cy="70.9" r="70.9"/>
<path fill="none" stroke="#AEAFB2" stroke-width="2.8346" stroke-linejoin="round" d="M58.9,116.3c-0.1-3.4,0.5-4.1,1.6-4.2
	c1.2-0.1,1.4-0.7,1.7-1.7c0.5-1.9,0.7-3.5-1.2-4.8c-1-0.7-0.5-1.7,0-2.6c0.5-0.8,1.1-1,2-0.5c0.1,0.1,0.3,0.1,0.8,0.3
	c-0.2-0.7-0.3-1.3-0.5-1.8c-1.7-3.8-2.4-7.7-1.9-11.9c0.2-1.5,0.1-3,0.1-4.5c0-0.6-0.3-1.3-0.5-1.9c-0.1-0.3-0.4-0.5-0.4-0.7
	c-0.4-2.1-1.3-3.1-3.6-3.8c-3.2-1-5.2-6-4.6-9.3c0.1-0.7,0-1.4,0.1-2.2c0.2-2,0.4-3.9,0.7-5.9c0.3-1.6,0.6-3.3,1-4.9
	c0.6-2.2,0.9-4.4,1-6.6c0.1-1.2,0.7-2.5,1.4-3.6c0.4-0.6,1.2-1.1,1.9-1.4c1.5-0.8,3.1-1.3,4.5-2.1c1.6-0.8,2.1-2,1-3.4
	c-1.7-2.2-1.4-4.7-1.7-7.1c-0.3-2.2,1.4-5.6,4.3-6.1c2-0.3,4-0.3,6.1-0.4c0.3,0,0.6,0.2,0.8,0.4c1.2,1.4,1.9,4.6,0.7,5.8
	c-1.7,1.7-1.1,4.3-2.8,5.9c-0.4,0.4,0,1.6,0.1,2.5c0,0.1,0.9,0.1,0.9,0.1c0.3-0.9,0.7-1.9,0.7-2.8c0-0.8,0.2-1.1,0.9-1.3
	c1.2-0.3,2.5,0.2,3.1,1.2c1.2,2,2.5,4.1,3.9,6c1.1,1.6,2.5,3,3.8,4.4c1.4,1.5,2,3.2,1.9,5.2c-0.1,2.2-1.7,3.1-3.5,1.9
	c-0.6-0.4-1.2-1-1.7-1.5c-1.1-1-2.1-2.1-3.4-3.4c-0.2,1.1-0.4,2-0.6,3c-0.4,1.8-0.8,3.6-1.2,5.4c-0.2,0.8-0.2,1.7-0.2,2.5
	c0.1,3,0.1,5.9,0.3,8.9c0.1,1.9,0.5,3.7,0.8,5.6c0.2,1.6,0.7,3.2,0.5,4.7c-0.3,2.7,0.7,5.2,2.2,7.1c2.9,3.7,3.4,7.9,3.7,12.2
	c0.2,2.8,0.7,5.4,1.9,7.8c0.4,1,1.5,1.8,2.4,2.4c1.1,0.7,1.6,1.3,1.2,2.6c-0.2,0.7,0.2,1.5,0.3,4.2H58.9z M82.9,111.4
	c-0.3-0.4-0.9-0.7-1-1.1c-0.4-1.7-0.6-3.5-1.1-5.1c-0.8-2.6-1.6-5.3-2.9-7.6c-1.1-1.9-2-3.8-2.2-6c-0.1-0.9-0.2-1.9-0.7-2.5
	c-1.6-1.9-2.3-4.2-3.2-6.4C71,81,70.5,79.1,69,77.9c-0.4-0.3-0.4-1-0.6-1.5c-0.1-0.4-0.2-0.8-0.3-1.2c-0.4,1.6-0.8,3.1-1.1,4.6
	c-0.1,0.4,0.1,0.8,0.2,1.2c0.2,0.8,0.4,1.6,0.4,2.4c0,1.8-0.1,3.6-0.2,5.4c0,0.7,0,1.4,0,2.1c0.4-0.3,0.5-0.7,0.8-1
	c0.3-0.4,0.7-1,1.1-1c0.4,0,0.9,0.5,1.1,1c0.2,0.5,0.2,1.2,0.1,1.8c-0.1,2.3-0.3,4.5-0.4,6.8c0,0.5,0.5,1.1,0.6,1.6
	c0.1,0.7,0.1,1.5,0,2.2c-0.1,0.7-0.5,1.5-0.3,2.2c0.5,1.7,1.2,3.2,1.8,4.9c0.7,2.2,2,2.9,4.3,2.5C78.5,111.5,80.7,111.5,82.9,111.4z
	 M59.7,54.1c-0.8,2.4-2.1,4.6-2.2,6.8c-0.2,2.9-0.8,5.5-2.1,8.1c-0.1,0.3,0,0.9,0.2,1.1c1,0.9,2.1,1.6,3.4,2.6
	c-1.2-2.8-0.1-5.4,0.8-8c0.2-0.6,0.2-1.2,0.4-1.8c0.3-1,0.5-2.1,1-3c0.7-1.1,0.8-2.2,0.2-3.3C61,55.8,60.4,55.1,59.7,54.1z"/>
</svg>
