<?xml version="1.0" encoding="utf-8"?>
<!-- Generator: Adobe Illustrator 17.1.0, SVG Export Plug-In . SVG Version: 6.00 Build 0)  -->
<!DOCTYPE svg PUBLIC "-//W3C//DTD SVG 1.1//EN" "http://www.w3.org/Graphics/SVG/1.1/DTD/svg11.dtd">
<svg version="1.1" id="Layer_1" xmlns="http://www.w3.org/2000/svg" xmlns:xlink="http://www.w3.org/1999/xlink" x="0px" y="0px"
	 viewBox="0 0 141.7 141.7" enable-background="new 0 0 141.7 141.7" xml:space="preserve">
<circle fill="none" cx="70.9" cy="70.9" r="70.9"/>
<g>
	<ellipse fill="none" stroke="#FFFFFF" stroke-width="1.7117" stroke-miterlimit="10" cx="89.1" cy="89.8" rx="15.2" ry="3.8"/>
	<path fill="none" stroke="#FFFFFF" stroke-width="1.7117" stroke-miterlimit="10" d="M104.3,89.8c0,2.1-6.8,3.8-15.2,3.8
		s-15.2-1.7-15.2-3.8v6c0,2.1,6.8,3.8,15.2,3.8s15.2-1.7,15.2-3.8V89.8z"/>
</g>
<g>
	<ellipse fill="none" stroke="#FFFFFF" stroke-width="1.7117" stroke-miterlimit="10" cx="52.6" cy="58.9" rx="15.2" ry="3.8"/>
	<path fill="none" stroke="#FFFFFF" stroke-width="1.7117" stroke-miterlimit="10" d="M67.8,58.9c0,2.1-6.8,3.8-15.2,3.8
		S37.5,61,37.5,58.9v6c0,2.1,6.8,3.8,15.2,3.8s15.2-1.7,15.2-3.8V58.9z"/>
	<path fill="none" stroke="#FFFFFF" stroke-width="1.7117" stroke-miterlimit="10" d="M67.8,64.9c0,2.1-6.8,3.8-15.2,3.8
		S37.5,67,37.5,64.9v6c0,2.1,6.8,3.8,15.2,3.8s15.2-1.7,15.2-3.8V64.9z"/>
	<path fill="none" stroke="#FFFFFF" stroke-width="1.7117" stroke-miterlimit="10" d="M67.8,70.8c0,2.1-6.8,3.8-15.2,3.8
		s-15.2-1.7-15.2-3.8v6c0,2.1,6.8,3.8,15.2,3.8s15.2-1.7,15.2-3.8V70.8z"/>
	<path fill="none" stroke="#FFFFFF" stroke-width="1.7117" stroke-miterlimit="10" d="M67.8,76.8c0,2.1-6.8,3.8-15.2,3.8
		s-15.2-1.7-15.2-3.8v6c0,2.1,6.8,3.8,15.2,3.8s15.2-1.7,15.2-3.8V76.8z"/>
	<path fill="none" stroke="#FFFFFF" stroke-width="1.7117" stroke-miterlimit="10" d="M67.8,82.8c0,2.1-6.8,3.8-15.2,3.8
		s-15.2-1.7-15.2-3.8v6c0,2.1,6.8,3.8,15.2,3.8s15.2-1.7,15.2-3.8V82.8z"/>
	<path fill="none" stroke="#FFFFFF" stroke-width="1.7117" stroke-miterlimit="10" d="M67.8,88.7c0,2.1-6.8,3.8-15.2,3.8
		s-15.2-1.7-15.2-3.8v6c0,2.1,6.8,3.8,15.2,3.8s15.2-1.7,15.2-3.8V88.7z"/>
</g>
<g>
	<path fill="none" stroke="#FFFFFF" stroke-width="1.7117" stroke-miterlimit="10" d="M73.9,68.7c-2.2,0-4.2-0.1-6.1-0.3v2.5v3.5
		c1.9,0.2,3.9,0.3,6.1,0.3c8.4,0,15.2-1.7,15.2-3.8v-6C89.1,67,82.3,68.7,73.9,68.7z"/>
	<path fill="none" stroke="#FFFFFF" stroke-width="1.7117" stroke-miterlimit="10" d="M73.9,74.6c-2.2,0-4.2-0.1-6.1-0.3v2.5v3.5
		c1.9,0.2,3.9,0.3,6.1,0.3c8.4,0,15.2-1.7,15.2-3.8v-6C89.1,72.9,82.3,74.6,73.9,74.6z"/>
	<ellipse fill="none" stroke="#FFFFFF" stroke-width="1.7117" stroke-miterlimit="10" cx="73.9" cy="41.1" rx="15.2" ry="3.8"/>
	<path fill="none" stroke="#FFFFFF" stroke-width="1.7117" stroke-miterlimit="10" d="M73.9,44.9c-8.4,0-15.2-1.7-15.2-3.8v6
		c0,2.1,6.8,3.8,15.2,3.8s15.2-1.7,15.2-3.8v-6C89.1,43.2,82.3,44.9,73.9,44.9z"/>
	<path fill="none" stroke="#FFFFFF" stroke-width="1.7117" stroke-miterlimit="10" d="M73.9,62.7c-2.2,0-4.2-0.1-6.1-0.3v2.5v3.5
		c1.9,0.2,3.9,0.3,6.1,0.3c8.4,0,15.2-1.7,15.2-3.8v-6C89.1,61,82.3,62.7,73.9,62.7z"/>
	<path fill="none" stroke="#FFFFFF" stroke-width="1.7117" stroke-miterlimit="10" d="M73.9,50.8c-8.4,0-15.2-1.7-15.2-3.8v6
		c0,2.1,6.8,3.8,15.2,3.8s15.2-1.7,15.2-3.8v-6C89.1,49.1,82.3,50.8,73.9,50.8z"/>
	<path fill="none" stroke="#FFFFFF" stroke-width="1.7117" stroke-miterlimit="10" d="M73.9,56.8c-8.4,0-15.2-1.7-15.2-3.8v2.5
		c5.4,0.6,9.1,1.9,9.1,3.5v3.5c1.9,0.2,3.9,0.3,6.1,0.3c8.4,0,15.2-1.7,15.2-3.8v-6C89.1,55.1,82.3,56.8,73.9,56.8z"/>
</g>
</svg>
