<?xml version="1.0" encoding="utf-8"?>
<!-- Generator: Adobe Illustrator 17.1.0, SVG Export Plug-In . SVG Version: 6.00 Build 0)  -->
<!DOCTYPE svg PUBLIC "-//W3C//DTD SVG 1.1//EN" "http://www.w3.org/Graphics/SVG/1.1/DTD/svg11.dtd">
<svg version="1.1" id="Layer_1" xmlns="http://www.w3.org/2000/svg" xmlns:xlink="http://www.w3.org/1999/xlink" x="0px" y="0px"
	 viewBox="0 0 141.7 141.7" enable-background="new 0 0 141.7 141.7" xml:space="preserve">
<g>
	<circle fill="none" cx="70.9" cy="70.9" r="70.9"/>
	<path fill="none" stroke="#FFFFFF" stroke-width="1.7117" stroke-miterlimit="10" d="M95.8,42.2c-6.1,0-11.3,3.5-13.9,8.5
		c5.3,3.6,8.8,9.6,8.8,16.5c0,2.6-1.1,6.4-2.8,10.7c4,7.6,8,14.2,8,14.2s15.6-25.7,15.6-34.4C111.5,49.2,104.5,42.2,95.8,42.2z"/>
	<path fill="none" stroke="#FFFFFF" stroke-width="1.7117" stroke-miterlimit="10" d="M95.8,49.5c-4.2,0-7.6,3.1-8.2,7.1
		c1.4,2.3,2.4,4.8,2.8,7.6c1.5,1.2,3.3,2,5.4,2c4.6,0,8.3-3.7,8.3-8.3C104.2,53.2,100.4,49.5,95.8,49.5z"/>
	<path fill="none" stroke="#FFFFFF" stroke-width="1.7117" stroke-miterlimit="10" d="M45.9,42.2c6.1,0,11.3,3.5,13.9,8.5
		c-5.3,3.6-8.8,9.6-8.8,16.5c0,2.6,1.1,6.4,2.8,10.7c-4,7.6-8,14.2-8,14.2S30.3,66.4,30.3,57.8C30.3,49.2,37.3,42.2,45.9,42.2z"/>
	<path fill="none" stroke="#FFFFFF" stroke-width="1.7117" stroke-miterlimit="10" d="M45.9,49.5c4.2,0,7.6,3.1,8.2,7.1
		c-1.4,2.3-2.4,4.8-2.8,7.6c-1.5,1.2-3.3,2-5.4,2c-4.6,0-8.3-3.7-8.3-8.3C37.6,53.2,41.3,49.5,45.9,49.5z"/>
	<path fill="none" stroke="#FFFFFF" stroke-width="1.7117" stroke-miterlimit="10" d="M90.7,67.2c0,11-19.8,43.7-19.8,43.7
		S51,78.1,51,67.2s8.9-19.8,19.8-19.8S90.7,56.2,90.7,67.2z"/>
	<path fill="none" stroke="#FFFFFF" stroke-width="1.7117" stroke-miterlimit="10" d="M90.7,67.2c0,11-19.8,43.7-19.8,43.7
		S51,78.1,51,67.2s8.9-19.8,19.8-19.8S90.7,56.2,90.7,67.2z"/>
	<circle fill="none" stroke="#FFFFFF" stroke-width="1.7117" stroke-miterlimit="10" cx="70.9" cy="67.2" r="10.6"/>
</g>
</svg>
