<?xml version="1.0" encoding="utf-8"?>
<!-- Generator: Adobe Illustrator 17.1.0, SVG Export Plug-In . SVG Version: 6.00 Build 0)  -->
<!DOCTYPE svg PUBLIC "-//W3C//DTD SVG 1.1//EN" "http://www.w3.org/Graphics/SVG/1.1/DTD/svg11.dtd">
<svg version="1.1" id="Layer_1" xmlns="http://www.w3.org/2000/svg" xmlns:xlink="http://www.w3.org/1999/xlink" x="0px" y="0px"
	 viewBox="0 0 141.7 141.7" enable-background="new 0 0 141.7 141.7" xml:space="preserve">
<g>
	<path d="M59.6,82.1c-8.3-8.3-13.1-18.8-14.5-29.7c-0.3-2.6,1.5-4.8,3.6-6c1.6-0.9,2.9-1.6,4.8-2.7
		c2.5-1.4,5.1,0.2,6.1,2c0.9,1.6,6.2,13.7,6.2,13.7L60,64.9c0,0,1.2,4.8,6.6,10.2s10.2,6.6,10.2,6.6l5.6-5.9c0,0,12.2,5.2,13.7,6.2
		c1.8,1.1,3.4,3.6,2,6.1c-1.1,1.9-1.8,3.2-2.7,4.8c-1.2,2.2-3.4,3.9-6,3.6C78.5,95.2,68,90.4,59.6,82.1z"/>
</g>
</svg>
