<svg style="display: none">
	<symbol version="1.1" id="about-1" xmlns="http://www.w3.org/2000/svg" xmlns:xlink="http://www.w3.org/1999/xlink" x="0px" y="0px"
	 viewBox="0 0 141.7 141.7" enable-background="new 0 0 141.7 141.7" xml:space="preserve">
<g>
	<circle fill="#F6AF47" cx="70.9" cy="70.9" r="70.9"/>
	<g>
		<path fill="none" stroke="#FFFFFF" stroke-width="1.7117" stroke-miterlimit="10" d="M90.3,43.8l-9.9-17.2
			c-1.3-2.3-3.8-3.8-6.5-3.8h-6.1c-2.7,0-5.2,1.4-6.5,3.8L50.9,44.7l13.1,7.5l6.9-12l6.4,11.1l-4.9,2.9l22.9,13.2V40.9L90.3,43.8z"
			/>
		<path fill="none" stroke="#FFFFFF" stroke-width="1.7117" stroke-miterlimit="10" d="M70.9,39.9l-7.7-13.3c0,0-0.4-0.8-1.1-0.8
			l-0.3,0"/>
	</g>
	<g>
		<path fill="none" stroke="#FFFFFF" stroke-width="1.7117" stroke-miterlimit="10" d="M37.7,67.6l-9.9,17.2c-1.3,2.3-1.3,5.2,0,7.5
			l3,5.2c1.3,2.3,3.8,3.8,6.5,3.8l20.9,0l0-15.1l-13.9,0l6.4-11.1l4.9,2.9l0-26.5L32.7,64.7L37.7,67.6z"/>
		<path fill="none" stroke="#FFFFFF" stroke-width="1.7117" stroke-miterlimit="10" d="M44,86.4l-7.7,13.3c0,0-0.4,0.8-0.1,1.4
			l0.2,0.3"/>
	</g>
	<g>
		<path fill="none" stroke="#FFFFFF" stroke-width="1.7117" stroke-miterlimit="10" d="M84.6,101.3l19.8,0c2.7,0,5.2-1.4,6.5-3.8
			l3-5.2c1.3-2.3,1.3-5.2,0-7.5l-10.4-18.1l-13.1,7.5l6.9,12l-12.8,0l0-5.7L61.7,93.7L84.6,107L84.6,101.3z"/>
		<path fill="none" stroke="#FFFFFF" stroke-width="1.7117" stroke-miterlimit="10" d="M97.7,86.4l15.3,0c0,0,0.9,0,1.2-0.6l0.2-0.3
			"/>
	</g>
</g>
</symbol>
<symbol version="1.1" id="about-2" xmlns="http://www.w3.org/2000/svg" xmlns:xlink="http://www.w3.org/1999/xlink" x="0px" y="0px"
	 viewBox="0 0 141.7 141.7" enable-background="new 0 0 141.7 141.7" xml:space="preserve">
<circle fill="#F6AF47" cx="70.9" cy="70.9" r="70.9"/>
<g>
	<defs>
		<circle id="SVGID_1_" cx="70.9" cy="70.9" r="46.7"/>
	</defs>
	<clipPath id="SVGID_2_">
		<use xlink:href="#SVGID_1_"  overflow="visible"/>
	</clipPath>
	<path clip-path="url(#SVGID_2_)" fill="none" stroke="#FFFFFF" stroke-width="1.7117" stroke-miterlimit="10" d="M159,162.2
		c0.1-8-8.4-13-15.9-9.5c-4.9,2.3-6.2,5.9-4.7,11.1c0.8,2.8,3.2,4.3,6.2,4.4c0.5,0,1,0,1.5,0c-0.1,2.8-2.2,4.1-5.3,3.5
		c-2.6-0.5-4.6-1.8-5.2-4.2c-0.8-3.1-2.5-4.1-5.8-3.6c-4.6,0.6-6.9-2.7-6.7-6.4c0.1-1.1,0.1-2.3,0.3-3.4c0.7-3.6,4.7-5.7,8-4.2
		c1.2,0.6,2.1,1.4,2.1,2.8c0.1,1.6-0.3,3-2,3.8c-0.6,0.3-1.2,0.5-1.8,0.7c-0.7,0.2-1.5,0.2-1.4,1.3c0.1,1,0.7,1.6,1.7,1.7
		c2.2,0.4,4.7-0.8,6-2.6c1.4-1.9,2.9-3.8,4.7-5.5c3.3-3.2,9.6-3.8,13.9-1.9c2.9,1.3,5.6,2.8,7.2,5.6c1.7,2.8,2.5,6,2.7,9.2
		c0.1,2.5,0.3,5-0.7,7.4c-0.6,1.5-0.7,3.3-1.2,4.9c-0.5,1.4-1.2,2.9-2.1,4.1c-1.3,1.7-2.8,3.2-4.4,4.7c-3.3,3-7.3,5-11.7,5.8
		c-2.3,0.4-4.7,0.5-7.1,0.7c-1.1,0.1-2.2,0.2-3.6,0.3c0.6,0.8,0.9,1.4,1.4,1.9c4.9,4.1,8.4,9.1,11.2,14.7c0.5,1.1,0.9,2.3,0.9,3.5
		c0,2.6-0.2,5.2-0.6,7.7c-0.3,2.4-2.1,4.2-3.9,6.2c-0.5-0.7-1-1.3-1.5-1.8c5-4.9,4.6-10.2,1.9-14.8c0,0.9-0.1,1.9,0,2.8
		c0.3,4.3-3.2,8.6-7.5,9.5c-2.7,0.5-5.5-1-6.2-3.4c0.5,0,1-0.2,1.4-0.1c3.6,0.6,5.9-1.1,7.6-3.7c3-4.6,2.5-9.2-0.3-13.6
		c-2.3-3.7-5.3-6.8-9.4-8.8c-1.3-0.6-2.5-1.6-3.8-2.3c-1.3-0.7-0.8-1.6-0.3-2.4c0.6-1.1,1.4-0.3,1.9,0c3.9,2.6,7.8,2.2,11.7-0.1
		c2.5-1.5,2.8-5.6,0.4-7.2c-0.8-0.5-2-0.4-3-0.6c0.9-2.7,2.6-3.2,5.4-3.1c4.4,0.2,5.1,2.8,4.7,7.1c-0.1,1.4-0.6,2.8-1.1,4.6
		c1.1-0.2,2.1-0.3,3-0.6c3.5-1.4,6.1-3.7,8.4-6.5c2.3-2.8,3.4-5.9,3.2-9.4c-0.1-2.4-1.2-4.2-3.2-5.7c-0.6-0.5-1.4-0.8-1.9-1.3
		c-0.5-0.4-1.2-1.2-1.1-1.6c0.2-0.7,0.9-1.5,1.5-1.7c1.1-0.3,2.3-0.2,3.5-0.2C158.2,162,158.6,162.1,159,162.2z M158.4,99.4
		c-0.5-0.1-1.1-0.1-1.6-0.1c-4.4,0-7.9,1.4-10.1,5.3c-1,1.8-2,3.7-2.9,5.5c-0.7,1.3-1.4,2.3-3.2,2.4c-1.5,0.1-2.9,0.5-4.4,0.7
		c-5,1-9.8,2.6-13.8,5.6c-2.7,2-5.7,3.1-8.5,4.6c-2.6,1.3-5.5,1.3-8.4,1.2c-6.4-0.1-11.4-2.9-15.6-7.3c-0.5-0.5-0.8-1.2-1.3-1.8
		c-1.6,1.1-1.8,1.9-0.8,2.8c1.7,1.6,3.4,3.3,5.3,4.6c4.6,3,9.8,4,15.2,3.5c1.9-0.2,3.9-0.7,6.1-1.1c-0.6,1-0.9,1.8-1.4,2.5
		c-3.4,4.8-6.1,10-7.1,15.8c-0.5,2.6-0.9,5.2-1.5,7.7c-0.3,1.3,0.8,1.1,1.5,1.2c0.3,0.1,1-0.4,1-0.7c0.6-5,1.8-9.6,4.8-13.9
		c2.1-3.1,4.2-6.1,7.2-8.4c1-0.8,0.9-1.5-0.3-2.3c-1.9,1.7-3.7,3.4-5.5,5.1c0-0.6,0.1-1,0.3-1.4c4.5-6.9,10.3-12.3,18.9-14.4
		c4.5-1.1,9.1-1.5,13.6,0.2c3.1,1.2,3.9,2.3,3.8,5.5c-0.1,2.7,0.9,5.1,2.5,7.2c2.6,3.6,6.6,5.3,10.9,6.4c0.7,0.2,1.5,0.2,2.2,0.3
		c0.8-8.6-3.2-16.2-12.7-18.1c-1.9-0.4-3.4-1.7-4.8-3.6c1.2-0.2,2.1-0.2,2.9-0.5c1.9-0.6,3.7-1.2,5.6-1.9c2.5-0.8,4.8-0.7,7,0.9
		c0.9,0.6,2,1.1,3.1,1.3c2.5,0.4,4.9,0.5,6.9-1.6c-0.7-0.8-1.2-1.6-1.9-2.3c-2.1-2.1-5.6-4-9.3-1.8c-0.6,0.3-1.3,0.5-1.9,0.6
		c-1.6,0.4-3.2,0.6-4.7,1.1c-2.7,0.8-5.4,2.1-8.3,1.8c-0.8-0.1-1.5-0.6-2.2-0.8c0.7-0.5,1.3-0.9,2-1.4c0.1-0.1,0.3,0,0.4,0
		c2.9-0.3,5.2-1.8,7.3-3.4c2.1-1.6,3.1-4.2,4.5-6.3c0.1-0.1,0-0.3,0-0.5C158.9,99.6,158.7,99.4,158.4,99.4z M24.8,172.7
		c3.7-3.1,5.6-6.9,5.5-11.6c0-2-1.1-3.2-3-3.2c-1.9,0.1-2.9,1.2-3,3.1c-0.1,4.2-2.1,7.6-5.6,10.2c-2.2,1.6-4.7,1.9-7.3,1.5
		c-1.1-0.2-2.1,0.9-1.6,1.7c0.3,0.5,1.1,1,1.8,1c4.4,0.3,8.5,1.7,12.5,3.3c1.5,0.6,2.9,1.8,4.1,2.9c1.5,1.5,2.5,3.4,3.9,5
		c1.9,2.2,4.2,3.7,7.3,3.9c2,0.1,4,0.3,5.9,0.4c0.7,0,1.3,0,2.1,0c-0.9-3.4-2.3-6.2-5.1-8.3c-3-2.3-6.3-3.8-10.4-3.3
		c-3.2,0.4-5.6-1.6-8.3-2.8c-0.1,0-0.1-0.2-0.2-0.5c0.6-0.2,1.1-0.6,1.6-0.6c4.2-0.6,8.3-1.9,12.6-2.5c4.8-0.6,9.2-0.3,13.5,1.8
		c2.2,1.1,3.6,2.8,4.1,5.1c0.3,1.2,0.4,2.4,0.5,3.6c1.5-0.1,2-1.2,2.5-2.1c1.6-2.9,1.8-5.4-0.6-7.8c-1.3-1.3-2.9-1.8-4.6-2.4
		c-3.5-1.1-7-1.6-10.7-1c-2,0.3-4.1,0.4-6.1,0.6c0.1-0.4,0.2-0.6,0.4-0.7c6.1-4.4,13-7.4,20.2-9.6c6.9-2.2,13.8-2.6,20.9-1
		c1.9,0.4,3.6,1.4,5.5,2c0.4,0.1,1.2,0.1,1.4-0.1c0.9-1,1.7-2.2,2.6-3.4c-0.8-0.4-1.7-0.9-2.6-1.3c-6.1-2.5-12.5-2.7-19-1.9
		c-7.5,1-14,4.2-20.3,8c-4.7,2.9-9.4,5.9-14.1,8.6c-2.2,1.2-4.5,2.3-7.6,2.3C24.3,173.2,24.5,172.9,24.8,172.7z M-29.6,67.6
		c-0.2,0.5-0.9,0.7-1.4,1.1c-0.1-0.5-0.4-1-0.4-1.5c-0.1-2.6,0-5.3-0.3-7.9c-0.7-6.5-5-10.4-10.8-13.2c-1.5-0.7-3.2-1-4.8-1.2
		c-3-0.3-6-0.3-9.1,1c0.8,1,1.4,2,2.3,2.7c0.5,0.4,1.6,0.6,2.2,0.4c2.3-0.8,4.6-0.9,6.9-0.4c11.3,2.4,14.9,14.4,10.4,22.7
		c-0.3,0.5-0.8,1-1.2,1.5c0-2,0-3.9,0-5.7c0-5.7-3.9-10.5-9.6-11.9c-5.5-1.4-8.3,3.1-8,7.2c0.5-0.3,1-0.7,1.5-1
		c2.9-1.9,6-1.7,8.3,0.8c5.8,6.4,5.2,11.9,0.3,17.7c-2.2,2.6-5.2,4.2-8.7,4.8c-2.8,0.5-5.6,0.2-8.3-1.2c-2.8-1.5-3.6-2.2-3.5-5.3
		c0-1.4,0.6-1.9,2.1-1.9c1.3,0,1.9,0.7,1.8,2.1c0,0.7-0.2,1.5-0.3,2.2c1.3,0,1.6-0.2,1.8-1.1c0.1-0.6,0.1-1.1,0.2-1.7
		c0.3-1.3-0.3-2.3-1.7-3c-1.5-0.7-3.5-0.6-4.2,0.2c-1.2,1.6-2.3,5-0.8,7.2c1.8,2.9,7.5,5.3,11.4,4.7c1.8-0.3,3.6-0.7,5.9-1.2
		c-1,1.5-1.6,2.8-2.6,3.8c-2.6,3.1-3.6,6.8-4.2,10.5c-0.4,2.8-0.5,5.4-2.8,7.6c-1.6,1.5-3,3.2-4.5,4.8c-0.4,0.4-0.9,0.8-1.1,1.3
		c-0.2,0.7-0.5,1.6-0.2,2.3c0.2,0.4,1.3,0.6,2,0.6c1.3,0,2.4-0.6,3.1-1.7c0.6-1,1-2,1.5-3.1c0.3-0.6,0.7-1.2,1.3-2.2
		c0.3,1.1,0.5,1.9,0.8,2.6c0.9,2.3,1.8,4.7,2.8,7c0.3,0.7,0.9,1.1,1.8,0.7c0.9-0.5,0.5-1,0.2-1.7c-0.7-1.6-1.7-3.1-2-4.8
		c-0.7-3-1-6.1-1.5-9.2c-0.6-3.5,0.5-6.8,1.7-10c1-2.7,2.8-5.1,4.9-7.3c2.9-3.1,6-5.9,10.3-7.1c2.3-0.6,4.7-0.9,7.2-1.3
		c0-0.4,0-0.9-0.1-1.4c-1.2,0-2.2,0-3.3,0c-1,0-1.9,0.2-3.1,0.3c1.4-3.6,6.2-5.7,9.5-4.5c4.9,1.8,10.2,0,12.8-4.4
		c0.1-0.2,0.1-0.5,0.2-1c-4.5-1.1-8.8-2-12.8,1.3c-0.9,0.8-2.1,1.2-3.2,1.9c-0.1-0.4-0.2-0.5-0.1-0.6c0.1-0.3,0.2-0.6,0.3-0.9
		c1.2-3.3,2.4-6.7,3.6-10c0.4-1,0.5-1.9-1.3-2.4C-26.1,60.9-27.9,64.2-29.6,67.6z M-11,120.1c-0.7,1.4-1.5,2.9-1.8,4.4
		c-0.6,3.2-1.6,4.1-5,4.9c-2.5,0.6-4.8,1.3-6.6,3.2c-2.4,2.7-4.1,5.7-3.3,9.5c3.7-1,6.9-2.6,8.6-6c0.7-1.4,1.4-2.8,2.3-4.1
		c0.3-0.6,1-1,1.6-1.6c0.6,2,0.6,3.7-0.2,5.3c-0.6,1.2-1.2,2.4-1.8,3.7c-1,2.1-1.6,4.4-2.9,6.3c-2.1,3.2-1.8,8.1,1.1,10.8
		c0.2,0.2,0.5,0.3,0.9,0.6c1.3-2.1,2.2-4.1,1.9-6.5c-0.2-2-0.7-4-1.1-6c-0.2-1.3,0.1-2.4,1.5-3.4c0.2,0.8,0.3,1.3,0.4,1.9
		c0.1,0.7,0,1.5,0.2,2.2c0.9,3.2,1.8,6.3,2.8,9.5c2.5,8,7.9,13.9,15.5,17.8c0.4,0.2,1.3,0.2,1.6-0.1c1.5-1.4,3-3,4.4-4.5
		c0.3-0.3,0.3-0.8,0.5-1.2c-6.9-2.4-12.5-6.4-16.6-12.2c-4.1-5.8-6-12.2-5.6-19.4c1.6,1.1,1.8,2.6,1.8,4c-0.1,3.6,1.2,6.6,3.6,9.2
		c2.7,2.9,6.2,4.4,10.3,4.8c0.3-4.4-0.4-8.4-2.9-11.9c-1.8-2.5-4.2-4.4-7.5-4.8c-0.9-0.1-2.2-0.8-2.4-1.5c-0.9-2.6-2-5.2-1.4-8
		c0.5-2.3,1.1-4.7,1.7-7.2C-9.7,119.5-10.5,119.1-11,120.1z M-35.2,218c-0.1,0.5-0.1,0.9-0.1,1.4c-0.6,4.8-0.7,9.6,1.6,14.2
		c1.5,3,0.6,5.7-1.6,7.9c-3,3-6.9,4.3-11.2,4.3c-4.5-0.1-7.2-2.4-6.8-6.8c0.4-4.4,2.9-5.5,7.1-5.2c1.7,0.1,1.8,1.5,2.1,2.6
		c0.3,1.1,0.1,2.2-1.3,2.7c-0.6,0.2-1.2,0.7-1.8,1.1c1.8,1.4,3,1.4,4.4,0.1c1.9-1.6,2.4-5.2,0.8-7c-1.2-1.4-2.3-3.1-4.7-2.9
		c-6.4,0.5-9.4,5.8-8,11.3c0.9,3.6,4.1,5.5,7.7,6c4.7,0.6,8.7-1.1,11.9-4.6c0.5-0.6,1.1-1.2,1.7-1.7c0,1.8-0.3,3.4,0.1,4.9
		c0.4,1.7,2.2,2.2,3.8,3.1c0.2-0.9,0.4-1.7,0.6-2.6c0.6-2.1,0.4-4-1.5-5.5c-0.6-0.5-1-1.4-1.4-2.1c0.2-0.1,0.3-0.2,0.5-0.4
		c0.5,0.4,1,0.9,1.6,1.3c2,1.7,3.9,3.7,6,5.2c7,5,17,0.2,19.3-5.4c1.2-2.8,2-5.7,2-8.8c0-2.3-0.2-4.6-0.3-6.9c0-1.1,0.3-2.1,1.6-2.4
		c0.8-0.2,1.5-0.1,1.2,1.1c-0.2,1-0.2,2-0.2,3c0,1.6,0.9,2.6,2.8,3.2c1.8,0.6,4.2,0.2,4.9-1c2.6-3.8,1.5-10.7-4.3-12.4
		c-2.8-0.8-4.6-0.1-6.1,2.4c-0.5,0.8-1,1.5-1.6,2.2c-0.5,0.6-1,0.7-1.8,0.4c-1.6-0.7-3.2-1.5-4.9-2c-3.2-0.9-7.3,3.1-6.5,6.2
		c0.1,0.4,0.4,0.8,0.7,1.7c0.5-0.6,0.7-1,1-1.4c1.1-1.5,2.6-2.1,4.5-2c3,0.1,6.5,3.6,7.1,6.7c0.6,3-0.1,5.7-1.5,8.3
		c-1.7,3.5-5.6,5.8-9.5,5.5c-1.7-0.2-3.4-0.6-5-1.2c-1-0.4-1.8-1.3-2.8-2c3.9-2.9,4.5-4,3.5-6.9c-1.2,0.3-2.4,0.6-3.7,0.9
		c-2.6,0.6-6.5-0.9-7.3-3.1c-1.4-3.6-2.8-7.3-2.4-11.3c0.1-1.7-0.8-2.6-2.2-3.6C-35.1,217.2-35.2,217.6-35.2,218z M129.7,86.4
		c2.1-2.1,2.4-6.8,0.7-9.2c-2.1-2.9-5-4.6-8.9-4.1c-2.1,0.3-3.8-0.1-5.2-1.7c-0.4-0.5-1.1-0.7-2-1.2c0,1,0,1.6,0,2.2
		c0.1,1.8,0,3.6-0.7,5.4c-1.5,4-2.1,8.2-1,12.4c2.2,8.3,13,12.2,20.3,7.3c2.1-1.4,4-3.3,5.7-5.2c1.3-1.4,2.1-3.2,3.2-4.8
		c0.6-0.9,1.1-1.8,1.7-2.7c0.8,0.7,1.6,1.3,2.4,2c1,1,2,2,3.1,3c1.8-2,1.8-2.4,0.2-3.9c-3.6-3.3-6.4-7.2-7.7-11.8
		c-1.1-3.9-1.8-7.9-2.2-12c-0.3-2.4,0.2-4.9,0.6-7.3c0.4-2.3,2-3.6,4.4-4.3c1.5-0.4,2.9-1.5,4.3-2.3c0.7-0.5,1.4-1.1,2-1.7
		c0.8-0.8,1.7-1.5,2.1-2.5c0.8-1.8,1.2-3.7,2.8-5c0.1-0.1,0.1-0.4,0.2-0.6c-4.8-2.4-12.1,0-14,4.7c-0.3,0.8-0.5,1.6-0.8,2.4
		c-0.9,2.6-2,5.2-2.6,7.9c-0.5,2.4-0.5,4.9-0.7,7.3c-0.1,1.3-0.3,2.6-0.4,4c-1.6-4.8-1.9-9.6-0.9-14.6c-0.5-0.3-1.1-0.6-1.8-0.9
		c-0.1,0.4-0.2,0.5-0.2,0.7c-1,3.8-1.1,7.6-0.6,11.5c0.9,6.9,3,13.3,7.2,19c0.9,1.2,1.1,2.5,0.5,3.9c-1.6,3.4-3.5,6.7-6.6,9.2
		c-3.5,2.8-7.3,4.1-11.9,3.3c-6.7-1.2-10.2-12.4-4.2-17.3c1.6-1.3,3.2-1.8,5.2-1.2c2,0.7,3.2,2.1,3.3,4.1c0.1,1.5,0,3.1,0,5.2
		C128.3,87.2,129.1,86.9,129.7,86.4z M55.4,49.3c-10.3,1.5-18.9-1.4-25.7-8.9c-6.7-7.4-6.6-18.8,1.1-25.3c3.4-2.9,7.2-4.6,11.9-4.1
		c5.9,0.6,10.3,6.5,9,12.1c-0.8,3.7-3.2,6.1-6.7,7.5c-1.1,0.4-2.4,0.4-3.5,0.5c-0.1,1.8,0.7,2.8,2.5,3.5c4.3,1.6,10.6-0.8,12.6-4.8
		c1.8-3.8,2.1-7.8,1.3-11.9c-0.1-0.7-0.3-1.4,0.7-1.5c1.9-0.3,2.6-1.6,3.2-3C62.4,12,62,10.3,61,9.4c-1.1-1-2.4-1-4-0.6
		c0.5,0.8,1,1.3,1.1,1.9c0.1,0.6-0.1,1.4-0.5,2c-0.4,0.6-1.1,0.9-1.9,0.4c-0.7-0.5-1.4-1-2.1-1.5c-0.9-0.6-1.6-1.4-2.6-1.8
		C44.6,6.9,38.6,8,32.8,11.2c-6.8,3.8-9.9,9.6-10.3,17c0,0.4-0.2,0.9-0.3,1.3c-0.5-0.2-1-0.3-1.4-0.6c-0.4-0.2-0.7-0.5-1.1-0.8
		c-1.3-0.7-1.8-1.7-1.7-3.1c0.2-2,0.6-3.9,0.7-5.9c0-1.1-0.2-2.5-0.9-3.2c-1.5-1.5-3.3-2.7-5-4c-0.1-0.1-0.3,0-0.4,0
		c-0.4,1.1-0.9,2.1-1.2,3.2c-0.3,1.5-0.6,3.1-0.5,4.6c0.1,1.9,1.6,2.9,3.2,3.8c1.2,0.6,2.4,1.3,2.9,2.8c-0.7,0-1.3,0.1-1.8,0
		c-1.6-0.3-3.1-0.7-4.6-1c-2.2-0.4-2.5-0.1-2,1.9c0,0.1,0.1,0.2,0.2,0.2C13.1,27.9,17.4,29,21,32c1.3,1.1,2.4,2.2,2.9,4
		c0.5,1.9,1.7,3.7,2.9,5.3c1.2,1.6,3,2.8,4.4,4.3c3.1,3.4,7.5,4.8,11.8,5.4c4.3,0.6,8.9,0.1,13.4,0.1C56.9,49.3,56.8,49.1,55.4,49.3
		z M24.1,150c-6.8-3.7-6.6-13.9-0.5-17.5c2.5-1.4,5.3-1.5,8.1,0.3c1.8,1.1,3,4.1,2.6,6.2c-0.1,0.4,0,1,0.2,1.1
		c0.3,0.2,1,0.1,1.2-0.1c0.8-0.9,1.7-1.8,2-2.8c0.7-2.9-0.9-6.4-4-7.7c-2-0.8-2.1-1.4-1.3-3.4c0.1-0.3,0.2-0.6,0.3-0.9
		c0.9-2.6,0.4-4.9-1.8-6.8c-2.4-2-7.4-1.7-9.2,0.6c-1.1,1.3-1.2,2.9-1.1,4.4c0.1,1.3,1.5,2.7,3.1,3.2c1.2,0.4,2.8-0.2,3.7-1.2
		c0.3-0.4,0.6-0.7,0.9-1c0.2,0,0.3,0,0.5,0.1c0.1,0.8,0.4,1.6,0.2,2.3c-0.4,1.3-1.4,2-2.8,2.3c-0.6,0.1-1.3,0.4-1.9,0.7
		c-5.3,3.6-7.6,8.5-7.2,14.7c0.2,3.2,1.5,5.9,3.9,8c3,2.7,6.7,3.9,10.7,4.5c9.1,1.3,15.9-3,20.1-9.1c1.1-1.5,1.8-3.3,2.5-5
		c0.6-1.4,1-2.9,1.5-4.4c0.1-0.3,0.1-0.6,0.3-0.8c0.8-1.1,0.9-2.3,0.9-3.6c0-0.5,0.3-1,0.5-1.6c0.1,0,0.3,0,0.4,0c0.7,1,1.3,2,2,3.1
		c1.6-0.7,1.9-1.1,1.3-1.9c-2.8-3.6-3-8.1-5-12.1c-1.9-4-3.7-8-6.4-11.6c-0.4-0.5-0.8-0.8-1.3-1.3c-0.7,1.6-1,2.7,0.3,4
		c1.1,1.1,1.9,2.5,2.7,3.9c2.4,4.2,4,8.6,4,13.4c0,3.1-1.5,6-4.7,6.8c-2.7,0.7-4.9-1.2-4.3-3.8c0.1-0.4,0.2-0.7,0.3-1.4
		c-2.1,0.7-2.9,2.1-3.6,3.6c-1.6,3.8,1.5,7.1,5.2,6.9c1.4-0.1,2.8-0.3,4.6-0.5c-0.3,0.8-0.5,1.5-0.8,2.1c-1.9,4.1-5.2,6.9-9.6,8.3
		c-1.6,0.5-3.4,0.8-5.1,0.9c-3.6,0.1-5.8-1.8-6.5-5.1c-0.2-1-0.1-2.3-1.8-2.3c-1.1,0.1-1.8,1-2,2.6c-0.1,1-0.2,2-0.4,3.3
		C25.9,150.9,25,150.5,24.1,150z M204.6,143.5c-3-1.7-7.9-1.3-10.4,0.8c-3.3,2.9-3.7,6-2.7,9.8c0.3,1.1,1.1,1.9,2.5,1.8
		c0-0.4,0.1-0.8,0.1-1.1c-0.3-1.9,0.6-3.4,1.7-4.8c2.6-3.1,7.2-2.4,9,1.3c1.2,2.4,1.4,4.9,1.1,7.5c-0.3,2.3-1,4.4-3,5.9
		c-5.5,4.1-12.5,3.1-16.8-2.5c-1.8-2.4-2.9-5-3.8-7.9c-1-3.3-0.8-6.5-0.8-9.7c0-3.1,1.5-5.7,3-8.4c2.7-4.8,6.6-8.3,12-10.2
		c0.3-0.1,0.6-0.3,0.9-0.5c-0.7-0.3-1.3-0.4-1.8-0.3c-2.5,0.7-4.9,1.7-6.9,3.5c-0.4,0.4-1.1,1.1-1.5,1c-1.6-0.4-3.2-0.9-4.7-1.5
		c-1.3-0.6-2.5-1.6-3.8-2c-2.7-0.9-5.1-0.5-7.1,1.7c-0.5,0.6-1.3,1.1-2.1,1.5c-1,0.6-1.2,1.1-0.4,2c2.6,3.2,10.2,5.4,13.1,0.6
		c0.6-0.9,1.6-1.4,3.1-0.7c-0.5,0.9-1.1,1.8-1.5,2.7c-1.2,2.5-3,4.9-3.5,7.6c-1,5.1-1.1,10.3,0.3,15.3c2.1,7.4,9,12.5,17.1,12.9
		c4.5,0.2,7.7-1.5,10.1-5c3-4.2,3.6-8.8,3.1-13.7c-0.1-1-0.8-2.1-0.7-3.1c0.2-2.6,3.1-6.7,6.6-7.2c6.3-1,11.4,3,11.4,9.1
		c0,2.5-1.7,4.2-4.3,4.3c-2.4,0.1-3.8-0.8-4-2.8c-0.2-2-0.4-3.2,3-3.6c0.1,0,0.1-0.1,0.4-0.4c-0.3-0.4-0.5-0.9-0.9-1.2
		c-1.4-1-3.9-0.4-4.5,1.2c-1.2,2.8-0.8,5.4,0.7,8c0.2,0.3,0.6,0.6,1,0.8c3.7,2,8.1,0.2,9.6-3.9c2-5.6-2.4-12.1-8.6-12.9
		c-4.6-0.6-8,0.7-9.9,4.8c-0.4,0.8-1,1.5-1.5,2.2C207.6,145.4,206.1,144.4,204.6,143.5z M91.8,167.4c1.4,1.2,2.8,2.5,3.9,3.9
		c6.1,7.6,8,18,0.4,26c-3.9,4.2-8.6,6.6-14.5,6.5c-3.3-0.1-6.1-1.5-8.8-3c-4.9-2.6-7.9-6.4-8.3-11.9c-0.3-3.7,2.6-7,6.4-7.4
		c3.3-0.3,6.8,1.4,6.9,5.9c0,1.3,0.1,2.6-1.2,3.4c-1.5,0.9-3.1,1.1-4.7,0.1c-0.5-0.3-1.1-0.6-1.9-1.1c0.1,0.9,0,1.6,0.2,2.1
		c1.2,2.3,3.4,3.2,5.8,3.4c1.9,0.2,3.5-0.8,4.6-2.4c1.7-2.3,2.4-4.9,1.6-7.7c-0.6-2.4-1.5-4.7-4-5.8c-1.5-0.6-2-1.6-2.2-3
		c-0.2-1.2-0.5-2.4-0.8-3.9c-0.7,0.6-1.2,0.9-1.4,1.3c-1.7,2.1-3.9,3.3-6.3,4.5c-3.6,1.7-6.2,4.5-6.8,8.5
		c-0.8,5.4,0.8,10.3,4.7,14.3c5,5,11.3,6.9,18.4,6.4c2.7-0.2,5.5-0.6,7.7-2.5c0.4-0.3,1-0.5,1.5-0.7c0.1,0.5,0.4,1.1,0.4,1.6
		c-0.3,2.2,2.3,4.1,4.4,4.4c2.3,0.2,3.7-0.9,4.3-3.4c0.1-0.3,0.1-0.6,0.1-0.8c0-0.5-0.2-0.9-0.2-1.4c-0.4,0.2-1,0.4-1.3,0.8
		c-1.1,1.1-2.1,1.2-3.1,0c-1-1.1-1.2-4.2-0.3-5.5c1.2-1.8,2.7-3.4,3.6-5.3c2.4-5.3,2.7-10.9,2-16.5c-0.4-4.2-2.7-7.6-4.8-11
		c-0.9-1.4-2.1-2.8-3.3-4c-0.3-0.3-1.3-0.5-1.6-0.3c-1.1,0.7-2,1.6-3.6,3C90.3,166.3,91.1,166.8,91.8,167.4z M73.7,278
		c2-1.7,3.9-3.3,5.9-5c1.3-1.1,1.3-1.6-0.1-2.7c-2.2,1.8-3.9,4.4-7.4,5.2c1.6-3.2,3.3-6,4.1-9.2c1.4-5.5,1.1-10.7-1.5-15.8
		c-0.3-0.7-0.8-1-1.5-0.4c-0.9,0.7-1.2,2.3-0.7,3.3c1.8,3.4,2.6,7.1,2.4,10.8c-0.2,3.6-2.3,6.6-4.7,9.2c-1.2,1.3-2.7,2.4-4,3.6
		c-0.1-0.1-0.3-0.2-0.4-0.3c0.2-0.4,0.3-0.8,0.5-1.2c0.9-1.9,2.2-3.7,2.8-5.7c1.7-5.7-0.3-10.5-4.1-14.9c-1.1-1.3-2.6-1.9-4.2-2.1
		c-3.7-0.6-7.5,1.7-7.9,5.1c0.8-0.1,1.5-0.1,2.2-0.2c2.7-0.4,5.8,0.8,6.7,2.8c0.8,1.9,1.7,3.9,2,6c0.7,4.1-0.2,7.8-3.8,10.7
		c-3,2.5-6.4,4-10.4,4.3c-2.7,0.2-5.3,0.6-7.8-0.6c-2.4-1.1-5-2.1-5.8-4.9c-0.1-0.3-0.5-0.6-0.8-0.9c-1.5-1.7-1.4-5.7,0.2-7.3
		c1-1,2.4-0.9,3.5,0.1c1.1,1,1,2-0.1,3c-0.4,0.4-0.7,0.8-1.1,1.2c0,0.2,0.1,0.3,0.1,0.5c0.7,0,1.5,0.3,2,0.1
		c1.4-0.7,1.6-2.2,1.7-3.6c0.1-1.2-0.3-2.4-1.6-3c-3.1-1.6-6.4-0.2-7.3,3c-1.3,4.5,1.2,9.6,5.3,11.7c1.5,0.8,3,1.5,4.5,2.1
		c4.3,1.6,8.6,1.3,13,0.4c1.6-0.3,3.1-0.9,4.7-1.3c4.1-0.9,8.1-2,12.4-1.9c1.1,0,2,0.1,2.7,1c2.8,3.6,6.7,4.3,11,3.9
		c2-0.2,3.9-0.9,5.8-2.7c-0.8-0.6-1.6-1.1-2.3-1.7c-4.4-3.1-9.2-4.1-14.5-2.4c-0.4,0.1-0.9,0-1.4,0C73.7,278.3,73.7,278.2,73.7,278z
		 M221.9,81.8c-0.4,0.7-0.7,1.4-1.3,2c-0.7,0.7-1.6,0.9-2.5,0.2c-1.5-1.2-2.1-2.8-1.6-4.6c0.5-1.9,1.4-3.7,3.6-4.4
		c0.5-0.2,1.3-0.2,1.7,0c1.3,0.7,2.6,1.4,3.5,2.4c2.8,3.2,2.5,11.9-2.1,15.5c-2.4,1.9-4.7,3.1-7.8,2.1c-5.6-1.8-11.3-2.4-17.2-2.5
		c-1.7,0-3.4,0-5.1,0c0-0.4,0-0.6,0-0.7c0.5-0.7,1-1.3,1.5-2c2.8-3.8,5.8-7.3,6.9-12c0.2-1,0.8-2,1.2-3c0.2-0.6,0.5-1.4-0.7-1.4
		c-0.8,0-1.8-0.2-1.7,1.1c0,0.6,0,1.2-0.2,1.7c-0.6,1.9-1.2,3.8-1.9,5.7c0,0.1-0.3,0.2-0.6,0.4c-0.3-0.5-0.6-0.8-0.8-1.3
		c-0.9-2.8-3.1-4.4-5.7-5.6c-0.7-0.3-1.7-0.4-2.4-0.1c-2.4,0.7-4.3,4.9-3.4,7.2c0.3-0.3,0.6-0.5,0.9-0.8c1.5-1.5,2.8-1.6,4.4-0.2
		c1.8,1.5,2.1,3.6,1.7,5.5c-0.6,3.1-2.7,5.3-5.8,6.8c-4.4,2.2-9,3.4-13.9,3.4c-4.9,0-9.5-1.3-13.8-3.7c-1.7-1-3.4-2.1-5.1-3.1
		c-1.5,1.6-1.5,2.1,0.3,3.1c1.8,1,3.5,2.1,5.4,3c4.4,2.1,8.9,3.1,13.9,2.8c4.9-0.3,9.5-1.8,14.1-3.1c3.5-1,6.9-1.8,10.6-1.9
		c7-0.1,12.3,3.1,13.9,10.4c0.7,3,0.3,5.6-2.5,7.6c-0.3,0.2-0.4,0.5-0.7,0.9c2.4,0.9,4.7,0.2,6-2c0.6-1,1.1-2.2,1.3-3.4
		c0.9-4,0-7.4-3.6-9.9c-0.3-0.2-0.5-0.6-0.8-0.8c0.1-0.2,0.3-0.3,0.4-0.5c1.6,1,3.3,1.8,4.7,2.9c2.5,1.9,3.4,4.7,3.9,7.6
		c0.2,1.2,1,1.6,2.4,1.4c-0.4-1.7-0.7-3.3-1-4.9c-0.3-1.5-0.8-2.8-2.2-3.9c-0.6-0.4-0.9-1.3-1.3-2c0.8-0.4,1.4-0.8,2-1
		c3.8-1.3,5.9-4.1,7.2-7.6c1.6-4.5,1.8-9-1.1-13.1c-2.7-3.9-7.8-4.4-10.6-1.1c-1.5,1.9-2.3,4-2.6,6.4c-0.3,2.7,1.6,4.2,3.2,5.9
		c0.2,0.2,0.6,0.3,0.9,0.4c3.3,0.9,5.7-1.6,5-5.2C222.4,82.2,222.1,82,221.9,81.8z M96.4,25.6c-1.9,5.8-1,11.1,3.8,15.3
		c3.9,3.4,8.6,2.9,11.7-1.6c0.2-0.3,0.3-0.7,0.5-1.1c-1.5,0-2.9,0-4.2,0c-2.6,0-4.4-1.2-5.4-3.5c-0.6-1.4-1.1-2.9-1.4-4.5
		c-0.5-3-0.7-5.9,1.2-8.6c4.2-6.2,14-9.1,21-5.9c4.7,2.1,7.5,6.3,7,10.7c-0.2,1.4-0.9,2.4-2.3,2.6c-1.2,0.2-2.3-0.2-2.9-1.3
		c-0.7-1.2-0.2-2.1,1-2.9c0.3-0.2,0.3-0.9,0.5-1.4c-0.5,0-1.2-0.3-1.6-0.1c-1.4,0.7-2,1.9-1.9,3.4c0.2,1.8,1.1,3,2.8,3.7
		c1.4,0.6,2.6,0.3,3.7-0.7c2.3-2.1,3.1-4.7,2.2-7.5c-1.3-4.2-4.4-7-8.6-8.6c-4.4-1.6-9-1.5-13.6-0.7c-5.6,1-11.1,2.2-16.7,3.1
		c-1,0.2-2.5-0.2-3-0.9c-1.8-2.3-4.2-3.1-6.8-3.7c-3.4-0.7-6.7-0.4-9.2,2.4c2.4,3,6.6,4.9,10.5,4.6c2.2-0.1,4.4-0.3,6.7-0.4
		c-1.1,2.5-1.1,2.5,1.2,3.3c-2.5,5-4.2,10.2-4.2,15.8c1.8,0.1,2.2-0.3,2.2-1.7c0-0.7,0-1.3,0-2c-0.1-3.4,0.8-6.5,2.9-9.2
		c1.5-2,3.1-3.8,5.8-4.8C98.1,21.7,97,23.6,96.4,25.6z M86.5,260.8c0.6-3.1,0.8-6.3,1.3-9.4c0.3-2.4,0.9-4.4,3.7-5.6
		c2.5-1.1,4.4-3.2,4.6-6c0.2-2.5-0.1-4.9-0.2-7.8c-3.3,2-6.6,3.4-7.5,7.1c-0.4,1.6-0.4,3.2-0.6,4.9c-0.1,1-0.2,2-0.3,2.9
		c-0.2,0-0.3,0-0.5,0c-2.1-4.1-4.4-8.2-5.5-12.7c-1-4-1.4-7.9,0.6-11.9c1.5-3,3.7-5,6.9-6.1c4.4-1.5,8.1,0.6,8.9,4.8
		c0.5,2.6-0.7,4.1-3.5,4.2c-2.4,0.2-3.1-0.4-3-2.7c0-0.3,0.1-0.6,0-0.8c-0.2-0.4-0.5-0.7-0.8-1c-0.3,0.2-0.8,0.4-0.9,0.8
		c-1.1,2.1,0.1,4.7,2.4,5.4c4,1.3,6.9-0.4,7.8-4.3c1-4.2-2.1-7.7-5.5-8.3c-2.4-0.5-4.8,0.1-7.1,0.9c-2.2,0.8-3.5,2.4-4.9,4
		c-1.1,1.2-1.7,1-2.2-0.5c-0.1-0.3-0.2-0.5-0.2-0.8c-0.3-2.2-2.3-3.2-3.8-4.5c-0.6-0.6-1.3-0.3-1.4,0.6c-0.3,3.4,0,6.6,3,9.1
		c0.7,0.5,1.4,1.5,1.4,2.2c0.1,2.2-0.2,4.4-0.4,6.8c-1.3-0.5-2.3-0.8-3.3-1.2c-3.8-1.5-7.7-2.8-11.9-2.1c-2.2,0.3-4.2,1-5.7,2.7
		c0.3,0.3,0.5,0.6,0.7,0.8c5.5,5,12.2,6.1,19.4,4.8c1.2-0.2,1.7,0.1,2.2,1c0.9,2.2,1.7,4.6,2.9,6.6c2.3,3.9,3,8,2.6,12.3
		c-0.3,2.7-0.7,5.5-2.4,7.8c-0.8,1.1-0.6,1.8,0.9,2.7C85,265.2,86.1,263,86.5,260.8z M101.4,60.3c-4.3-2.2-8.8-3.1-13.6-1.8
		c-2,0.6-2.5,0.9-3.6-1.5c-1.5-3.3-2.8-6.7-4.2-10.1c-1.6-3.9-1.4-7.9-0.2-11.8c0.5-1.7,1.6-3.3,2.5-4.9c1.1-1.8,2.4-3.4,3.7-5.1
		c0.4-0.6,1.2-0.9,1.6-1.5c0.2-0.3,0.1-0.9-0.1-1.3c-0.1-0.2-1-0.3-1.1-0.1c-2.3,2.6-5,5-6.3,8.3c-0.6,1.5-1.3,3.1-2.2,4.5
		c-3.5,5.6-8.3,9.7-14.6,12.2c-1.4,0.6-1.6,1.1-0.7,2.2c5.8-1.8,10-5.8,14.4-9.7c0.1,2.4,0.1,4.7-0.3,6.9c-0.2,0.9-1,1.8-1.7,2.5
		c-1.7,1.6-3.6,2.9-5.2,4.5c-0.6,0.6-1,1.7-0.9,2.6c0,2.3,0.3,4.6,0.5,7.4c1.7-1.1,3.1-1.9,4.3-2.9c2.3-1.8,3.8-3.9,3.5-7
		c-0.1-1-0.1-2,0-3c0.1-0.7,0.4-1.4,0.6-2.5c0.5,0.5,0.7,0.7,0.8,0.9c0.7,1.6,1.3,3.1,2,4.7c1.9,4.1,3.7,8.4,3.7,13
		c0,1.5-0.6,2.9-0.8,4.4c-0.1,1.5-0.8,2.6-1.8,3.6c-0.9,0.9-1.9,1.7-2.9,2.5c-1,0.7-0.9,1.4-0.1,2.3c1.7-1.4,3.4-2.8,5.3-4.4
		c1.4,2.8,2.2,5.9,6,6.8c0.1-1.3,0.3-2.6,0.3-3.9c0-2.1-1-3.7-2.6-5c-1-0.9-2.1-1.9-2-3.5c0.1-1.5,0.1-2.9,0.2-4.4
		c0-0.5,0.2-1,0.3-1.6c0.6,0.2,1.1,0.3,1.5,0.5c2.6,0.8,5.1,1.8,7.7,2.5c4.2,1,8.1,0.6,11.5-3C105,62.5,103.3,61.2,101.4,60.3z
		 M182.6,68.5c-2.4,1.8-6.2,1.5-8.5-0.5c-3.4-3-4.3-8.1-2.2-12c2.1-4.1,6.7-6.3,11.4-5.4c2.1,0.4,4.1,1,5.6,2.8
		c-0.4,0.2-0.5,0.5-0.8,0.5c-1.8,0.5-2.4,1.9-2.6,3.5c-0.2,1.4,0.3,1.9,1.7,1.7c0.9-0.1,1.7-0.4,2.6-0.7c1.7-0.6,3.3-0.4,4.8,0.6
		c1.8,1.2,3.2,2.8,4,4.8c0.5,1.5,1,3,1.3,4.5c0.3,1.4,1.1,1.5,2.3,1.4c1.3-0.1,1.3-1,1-1.9c-0.8-2.7-1.4-5.5-2.4-8.1
		c-1.5-3.8-1.7-7.5-0.3-11.3c0.7-1.9,1.9-3.6,4.2-4c0.7-0.1,1.5,0,2.3,0c0-1.4-0.9-2-2.1-2.1c-2.9-0.4-5.3,0.7-6.3,3.4
		c-0.8,2.1-1,4.4-1.5,6.6c-0.1,0.5-0.4,1-0.6,1.4c-0.4-0.3-1-0.6-1.3-1c-0.5-0.6-0.9-1.4-1.5-1.9c-1.2-0.8-2.6-1.5-4-2.2
		c-2.3-1.1-4.8-1.8-7.4-1.8c-4.8-0.1-12.2,6.4-12.5,10.5c-0.2,2.4-0.1,4.8-0.2,7.2c0,1.9,0.1,3.9-0.1,5.8c-0.1,1.3-1.3,2-2.5,1.7
		c-1.4-0.3-1.8-1-1.4-2.5c0.6-2-0.1-3.5-2-4.3c-1.8-0.7-3.4-0.1-4.5,1.7c-1.7,2.9-1.3,5.5,1.4,8.4c2.2,2.2,5.3,2.7,8.1,1.3
		c1.4-0.7,1.9-1.9,2.5-3.1c1-1.8,1.4-1.9,3.2-1c1.2,0.6,2.6,1.1,3.9,1.2c3.5,0.5,6.5-2,6.6-5.3c0-0.6-0.2-1.3-0.4-2.3
		C183.6,67.2,183.2,68,182.6,68.5z M16.3,269.5c-2.8,4.1-6.8,7.2-10.5,10.5c-0.7,0.7-2,0.8-3.1,1.1c-1.3,0.4-2.7,0.5-3.8,1.2
		c-1,0.7-1.8,1.8-2.5,2.8c-0.6,0.9-0.9,2.1-1.4,3.2c1.2,0,2.5,0.2,3.7,0c1.9-0.4,4.1-0.6,5.2-2.6c0.9-1.6,1.8-2.9,3.3-4.2
		c4.1-3.4,7.8-7.3,10.9-11.7c0.5-0.8,1.4-1.4,2.1-2c0.2,0.1,0.4,0.1,0.6,0.2c0,1.1,0.3,2.4-0.1,3.4c-0.7,1.8-1.7,3.4-2.6,5.1
		c-1.8,3.6-1.3,7.3-0.5,11c0.1,0.5,0.8,0.9,1.4,1.6c1.7-2.8,3.4-5.1,4.6-7.6c0.8-1.5,0.9-3.3,1.3-5c0.4-2.2-0.8-4.1-1.6-6.1
		c-0.9-2.1-1-4.1,0.6-6c0.3-0.3,0.1-1.1-0.1-1.5c-0.2-0.5-0.8-0.8-1.3-1.2c-0.7,0.6-1.3,1.1-2,1.6c-1.6,1.1-3.1,2.4-4.9,3.2
		c-2.3,1.1-3.8,0.5-5.1-1.7c-0.1-0.2-0.3-0.4-0.5-0.5c-1.3-1-2.8-1.9-4-2.9c-2.2-1.9-4.3-1.3-6.6-0.3c-2.1,0.9-4.1,1.8-6.2,2.7
		c-1.2,0.5-2.3,1-3.9,1.7c1.2,1.2,2.2,2.3,3.2,3.2c4.6,4.4,11.4,5.4,17,2.2c1.5-0.9,3.2-1.4,4.9-2c0.6-0.2,1.3,0,2.3,0
		C16.5,269.2,16.4,269.4,16.3,269.5z M-61.7,263.3c-0.4,0.3-0.6,0.7-0.9,1.1c-2.4,3-3.7,6.3-3.9,10.1c-0.1,2.7,0.1,5.3,1.6,7.7
		c3.9,6.3,13.2,10.1,20.7,8.3c7.1-1.6,12.7-5.4,17.4-10.6c0.4-0.5,0.7-1.1,1-1.7c0.5-1,0.8-2.1,1.3-3.2c3-6.3,3.4-12.6-0.8-18.6
		c-1-1.4-2.6-2.3-3.9-3.5c-0.1,0.1-0.3,0.2-0.4,0.3c0.1,0.6,0.1,1.3,0.4,1.9c0.8,1.5,1.6,3,2.5,4.5c2.8,4.6,2.7,9.4,0.9,14.2
		c-1.3,3.4-3.9,6-6.8,8.3c-6.2,4.9-13.2,7-21.2,5.4c-5.9-1.2-9.1-4.9-9.2-10.4c-0.1-5.2,3-9.1,8.4-10.5c5-1.3,7.5,1,8.1,5.7
		c0.2,1.5,0,2.9-1.4,3.9c-0.4,0.3-0.5,0.8-0.8,1.3c2.3,1.2,4.6,0.5,6.3-1.5c2.6-3.1,1.6-8.9-0.9-11.4c-2-1.9-4.3-3-7-3.5
		c-2.3-0.4-3.8-1.4-4.4-3.6c-0.2-0.7-0.8-1.4-1.2-2C-58.1,260.1-58.1,260-61.7,263.3z M-30.6,188.2c2,0.6,4.2-0.2,5.1-2
		c0.5-0.9,0.9-1.9,1.4-2.8c0.4-0.6,1-1,1.7-0.3c1,1,2,2.1,2.9,3.2c1.3,1.6,4.4,2.6,6.2,2.1c3.9-1.2,5.7-7.5,2.9-10.4
		c-1-1.1-2.3-1.8-4.1-1.6c0.1,0.7,0.1,1.3,0.1,2c0.1,0.7,0.3,1.5,0.1,2.1c-0.2,0.8-0.6,1.8-1.3,2.1c-1.4,0.8-4.3,0-5.1-1.3
		c-1.3-2.1-3.1-3.9-3.6-6.5c-0.7-3.4-2.7-6-5.7-7.9c-2.9-1.9-5.9-3.9-9.8-3c-0.2,0.1-0.5-0.2-0.6-0.3c0.5-1.8,1.2-3.5,1.5-5.2
		c0.7-3.6-0.7-5.9-4.1-6.3c-1.3-0.2-2.7-0.3-3.7,1.1c-0.9,1.3-1.6,2.6-0.7,4.2c0.3-0.2,0.6-0.3,0.8-0.5c1.3-1,2.2-1,3.1,0.4
		c0.7,1.1,1.2,2.5,1.4,3.8c0.3,1.9-1.2,3-2.6,4c-1.2,0.9-2.2,0.1-3.1-0.5c-2.2-1.3-4.5-2.6-6.4-4.2c-1.6-1.3-3.2-2.8-4.1-4.5
		c-1.1-2-1.4-4.3-2.2-6.5c-0.1-0.3-0.6-0.8-0.8-0.8c-0.4,0.1-0.7,0.5-0.9,0.8c-0.1,0.2-0.1,0.6,0,1c0.6,3.2,1.9,6.2,4.1,8.7
		c0.4,0.5,0.7,1.1,1.1,1.6c-1.5,0-2.7-0.5-4-0.6c-1.2-0.1-2.7-0.1-3.5,0.5c-1.7,1.2-3.1,2.9-4.6,4.4c1,0.9,1.9,1.6,2.7,2.3
		c2.7,2.5,5.6,2.6,8.5,0.4c1-0.8,2-1.7,3.1-2.2c0.9-0.4,2-0.6,2.9-0.4c1.2,0.2,2.4,0.9,3.5,1.5c1.2,0.5,1.3,1.3,0.4,2.2
		c-0.2,0.2-0.5,0.3-0.5,0.5c0,0.4-0.1,1,0.2,1.2c0.2,0.2,0.9,0.1,1.2-0.1c0.5-0.4,0.9-1,1.4-1.5c2.8-3.4,6.6-4.1,10.6-2.8
		c4.4,1.5,7.7,4.2,9,9c0.8,3,0.2,5.4-1.6,7.7c-1,1.3-2.4,1.8-4.1,1.3c-0.7-0.2-1.3-0.3-2.1-0.5C-34,185.8-32.5,187.7-30.6,188.2z
		 M176.8,266.7c2.4-1.9,5.2-3.2,8.3-3.3c6.7-0.2,14.2,5,15.4,11.8c0.8,4.5,0.5,8.2-4.5,10.1c-2.4,0.9-3.9,0.7-5.6-1
		c-0.8-0.8-1.6-1.5-2.5-2.2c-1.2-1.1-1.4-3.9-0.3-5.1c1.2-1.3,3.4-1.5,5-0.4c0.5,0.3,1,0.6,1.8,1.1c0.1-1,0.4-1.7,0.2-2.3
		c-0.6-1.7-1.9-2.9-3.8-3.2c-1.9-0.3-3.8-0.1-5.1,1.5c-1.6,2.1-2.7,4.3-2.6,7.1c0.2,3.8,5.2,8,9.2,7.6c2.9-0.3,5.2-1.1,7.2-3.3
		c3-3.4,4.3-9.1,2.2-13.2c-2.2-4.4-5.6-7.6-10.5-9.3c-2.7-0.9-5.4-1.3-8.3-0.6c-0.5,0.1-1.3,0.1-1.6-0.2c-0.3-0.3-0.1-1.1,0.1-1.5
		c0.7-1.3,1-2.5,0.8-4c-0.1-0.5,0.1-1.1,0.2-1.7c0.6-3.4-0.9-9.7-5.8-12c-3.6-1.6-7.2-2-11.1-1.2c-3.9,0.8-6.4,3-7.1,6.8
		c-0.2,1.1-0.4,2.2-0.7,3.3c-1.4,5.7,4.7,10.3,10.1,9.1c2.2-0.5,3.8-2.7,3.5-4.8c-0.3,0.1-0.7,0.2-1,0.3c-2.4,1.1-4.7,0.6-6.7-1.6
		c-1.5-1.7-1.6-4.2-0.1-6c2.3-2.7,5.4-3.9,8.9-3.7c3.3,0.2,5.4,2.3,6.8,5.1c2.4,5.2,1.4,11.5-4.6,15.6c-1.4,1-1.4,1.2,0,2.7
		C175.5,267.8,176.1,267.2,176.8,266.7z M139.7,21.9c-0.2,1.7,0,3.4,1.1,4.9c1.9,2.6,1.9,5.2,0,8c-1.9,2.8-3.2,6-4.8,9.1
		c-0.4,0.7-0.5,1.5,0.5,1.9c1.2,0.5,1.2-0.6,1.4-1.1c1.1-2.9,2.3-5.7,4.6-8c2.2-2.2,4.5-4.1,7.5-5.1c1.1-0.4,2.4-0.7,3.2,0.3
		c1.1,1.3,2.6,2,3.9,2.9c1.4,0.9,2.8,1.3,4.4,1.3c4.6,0,8.6-2.1,12.6-3.9c0.3-0.1,0.5-0.4,0.8-0.8c-2.6-3.2-5.8-5.3-9.9-5.8
		c-3.9-0.6-7.6,0.3-10.9,2.7c-1.8,1.3-4,1.1-6.3,1.6c0.2-0.5,0.3-0.8,0.4-0.9c2.3-3.4,5.1-6.5,8.5-9c0.7-0.5,1.8-0.9,2.6-0.8
		c1.6,0.2,3-0.2,3.9-1.2c1.5-1.8,2.7-4,4.1-6c-0.3-0.1-0.4-0.3-0.5-0.3c-3.8-0.1-7.9,1.1-9.7,5.3c-0.3,0.7-0.8,1.3-1.3,1.8
		c-1.8,1.7-3.7,3.3-5.3,5.1c-1.5,1.6-2.8,3.5-4.3,5.2c-0.3,0.4-1.1,0.4-1.6,0.7c-0.2-0.5-0.5-1-0.4-1.5c0.1-0.6,0.4-1.1,0.7-1.7
		c1.3-3.1,2.6-6.2,2.3-9.7c-0.2-1.9-0.3-3.9-1.6-5.8C142.3,14.2,140,17.6,139.7,21.9z M190.5,43.8c-0.4-3-1-6-1.1-8.9
		c-0.4-7.8,2.7-14.2,9.2-19c3.3-2.5,7-3.7,11.2-2.9c6.9,1.2,13.1,7,11.7,15.4c-0.6,4-2.6,7.5-6.3,9.7c-2.2,1.3-4.7,1.6-6.7,0.1
		c-2-1.4-3.1-3.5-2.7-6.1c0.3-2,2.3-3.2,4.7-2.8c2.1,0.3,3,1.8,2.5,3.9c-0.1,0.6-0.4,1.2-0.6,1.8c1.6-0.3,3-1.7,3.3-3.3
		c0.4-2,0-3.6-1.9-4.8c-3.3-2.1-7.1-1.4-9.1,2.1c-0.7,1.2-1.5,1.7-3,1.6c-0.5,0-1.1,0.2-1.4,0.6c-0.1,0.2,0.2,0.8,0.4,1.2
		c0.9,1.5,1.7,2.9,2.6,4.3c0.8,1.2,1.6,2.9,2.8,3.4c3.8,1.5,7.8,1.7,11.2-1.1c3.8-3.1,6.3-6.8,6.3-11.8c0-3.4,0.1-6.7-2.2-9.7
		c0.5-0.3,0.8-0.4,1.2-0.6c2-1,2.8-2.4,2.5-4.5c-0.2-1.7-2.1-2.5-3.8-1.6c0.1,0.2,0.4,0.5,0.4,0.8c0.1,0.7,0.3,1.7,0,2.2
		c-0.5,0.5-1.5,0.7-2.3,0.7c-0.7-0.1-1.4-0.6-2-1c-5.6-4-11.7-4.8-18.1-2.4c-8.5,3.2-14.5,13.4-13.6,22.1c0.3,3.3,0.8,6.5,1.8,9.7
		c0.6,1.9,0.6,2,3.2,2C190.5,44.3,190.6,44.1,190.5,43.8z M-29.1,209.1c0.1,0.3,0.2,0.5,0.3,0.8c0.6,2.6,2.3,4.5,4.3,6.1
		c0.6,0.5,1.8,0.8,2.6,0.6c3.5-0.6,5.8-4.3,4.9-7.7c-0.1,0.1-0.3,0.2-0.3,0.3c-1.9,2.7-4.4,2.6-6-0.3c-1.5-2.5-0.3-8.1,2.8-10.1
		c4.6-3,9.7-4.4,15.2-4.7c1.8-0.1,3.8-0.2,5.4,0.3c2.9,0.9,5.6,2.3,8.4,3.4c0.3,0.1,0.7,0.3,1.1,0.5c0.2-0.8,0.4-1.4,0.5-2
		c0-0.2-0.2-0.7-0.4-0.8c-2.4-1.1-4.4-2.6-7.2-3.1c-6.8-1.2-13.3-0.2-19.8,1.3c-3.4,0.8-6.8,1.7-10.3,1.9
		c-5.1,0.3-11.6-2.3-13.1-7.4c-0.5-1.8-1.2-3.7-1.2-5.5c0-2.7,0.2-5.6,3.4-7c0.2-0.1,0.5-0.5,0.4-0.7c-0.1-0.2-0.4-0.5-0.7-0.6
		c-1.4-0.2-2.6,0.1-3.7,0.9c-1.7,1.3-2.4,3-2.8,4.9c-0.8,3.7-0.8,7.1,2.1,10.1c0.4,0.4,0.7,1.1,1,1.6c-0.9-0.1-1.6-0.3-2.2-0.7
		c-3.5-2.3-7.7-8.7-5.4-14.8c0.5-1.2,0.2-1.9-1.3-2.1c-0.2,0.6-0.5,1.1-0.7,1.7c-1.3,4.3-0.4,8.5,1.6,12.4c0.7,1.3,1.6,2.7,2.7,3.6
		c3.2,2.5,7.1,3.8,11,4.6c3.5,0.6,7.1,0.5,10.7,0.7c0.7,0,1.4,0.2,2.3,0.4c-0.5,0.8-0.8,1.3-1.1,1.7c-1.1,1.3-2.4,2.6-3.4,4
		c-1.3,1.7-2.5,3.5-3.8,5.3c-0.7,1-0.5,2.5,0.7,3.4c0.5-1.1,1-2.3,1.5-3.5C-29.3,209-29.2,209-29.1,209.1z M14.1,201.7
		c0.2,0.2,0.4,0.4,0.6,0.6c2.6,3,5.7,5.5,7.4,9.1c1.1,2.3,2.5,4.5,3.3,6.9c1.8,5.6,2.8,11.4,2.1,17.3c-0.3,2.6-1.2,5.1-1.9,7.6
		c-0.5,1.5-1.8,2.2-3.4,2.6c-4.2,1.1-7.5,3.4-9.4,7.2c-0.8,1.6-1.3,3.3-2.8,4.6c-0.2,0.2-0.3,0.6-0.5,1c0.4,0.2,0.8,0.5,1.1,0.6
		c4.5,2,10.5,0,13.1-4.4c2-3.3,3.2-7,4-10.7c0.9-4.1,2.2-8,1.9-12.3c0-0.3,0.3-0.6,0.6-1.2c0.2,0.8,0.4,1.1,0.4,1.5
		c0.1,2.6,0.3,5.3,0.4,7.9c0.1,5.7-1.5,11.1-4.7,15.9c-1,1.5-0.7,2.1,1.3,2.9c10.7-18.9,6.6-45.5-14.3-60.9
		C12.3,199.9,12.5,200.7,14.1,201.7z M156.7,269.7c-4.8-1.4-9-3.5-11-8.4c-0.8-1.9-1.9-3.8-3.2-5.4c-3.7-4.6-8-8.4-14.3-9.4
		c-1.8-0.3-3.6-0.6-5.4-0.7c-7.1-0.8-13.8,0-20.1,3.4c-7.6,4.1-13.4,9.7-15.3,18.2c-0.1,0.6,0,1.3,0,2c0.2,0,0.3,0,0.5,0
		c0.1-0.4,0.3-0.7,0.4-1.1c0.5-1.4,0.8-2.9,1.5-4.2c0.7-1.4,1.7-2.7,2.8-4c6.3-8.1,14.6-12.4,25.2-12.6c10.2-0.2,18,4.2,23.7,11.9
		c4.2,5.7,4.8,12,1.3,18.4c-0.8,1.5-0.6,2.2,1.2,2.9c2.4-3.9,3.5-8.2,3.3-12.8c3.5,1.1,4.6,2.4,4.4,5.2c-0.1,1.5-0.4,2.9-0.7,4.3
		c-0.4,2.2,0.1,4.3,2,5.7c1.5,1.1,3,2.2,4.5,3.3c0.1,0,0.2,0,0.6,0c0.4-1.9,1-3.9,1.3-5.9c0.4-2.3-0.1-4.3-2.5-5.5
		c-0.9-0.4-1.7-1-2.4-1.6c-0.6-0.5-1-1.1-1.5-1.6c0.1-0.2,0.2-0.4,0.3-0.7c6.3,1.9,12.4,2.3,18.4-1c-0.2-0.6-0.5-1.2-0.8-1.8
		C166,269.7,161.5,271.1,156.7,269.7z M-25.1,51.4c-0.7-2.8-1.5-5.6-2.3-8.3c-0.5-1.6-0.8-3.1,0.1-4.8c0.9-1.7,1.5-3.5,2-5.3
		c0.3-0.9,0.4-2.1,0-3c-0.7-1.8-1.8-3.4-2.9-5.5c-0.9,1.5-1.6,2.7-2.2,4c-0.6,1.1-1.1,2.3-1.4,3.6c-0.4,1.7-0.2,3.3,1.1,4.8
		c0.7,0.8,1.7,1.7,0.8,3.1c-1.8-1.3-3.5-2.5-5.2-3.9c-0.7-0.6-1.1-1.5-1.8-2c-4.1-3.4-6.7-7.5-6-12.9c0.4-3.4,1.9-6.3,5.3-7.8
		c3.5-1.5,7.2,0.2,7.6,3.5c0.2,1.6-0.7,3-2.3,3.5c-1.7,0.5-2.3-0.5-2.9-1.7c-0.1-0.3-0.4-0.8-0.7-0.8c-0.3-0.1-1,0.2-1.1,0.4
		c-0.5,1.3,0.2,2.7,1.5,3.4c1.6,0.8,4.1,0.4,5.4-0.8c2.1-2.1,2.2-4.8,1.1-6.9c-1.2-2.2-4-3.3-6.7-2.8c-3,0.5-4.9,2.3-6.3,4.7
		c-0.9,1.5-1.7,3.1-2.7,4.8c-0.7-0.5-1.3-1-1.9-1.4c-1.3-0.7-2.7-1.5-4.1-2c-1-0.4-1.4,0.1-1.3,1.2c0.3,2.7,2.2,4.3,4.5,5.4
		c2,0.9,3.3,2,3.7,4.1c0.2,0.8,0.6,1.6,0.9,2.4c0.1,0.3,0.1,0.7,0.2,1c-1.9,0.1-3.7,0.2-5.5,0.4c-3.1,0.3-6,1.2-8.4,3.2
		c-1.3,1.1-2.2,2.5-2.6,4.2c3.4,0.9,6.8,1,10.2,0.4c3.1-0.5,5.3-2.4,7.7-4.1c1-0.7,1.7-0.7,2.6,0.1c2.7,2.6,5.5,5.1,8.2,7.7
		c0.7,0.7,1.3,1.6,1.7,2.4c0.7,1.6,1.2,3.3,1.7,4.9c0.3,0.9,0.7,1.5,1.8,1.6C-25.1,51.8-25,51.6-25.1,51.4z M83.7,137.9
		c0.5-2.1,0.1-4-1.7-5.5c-0.3,0.5-0.3,1-0.4,1.5c-0.3,1.2-0.5,2.6-1.1,3.7c-1.1,1.8-3.1,2.7-5.2,3.3c-4.2,1.2-7.5,0.1-10.1-3.2
		c-0.3-0.4-1.4-0.7-1.5-0.6c-0.4,0.6-0.7,1.3-1,2c-0.1,0.1,0.2,0.4,0.4,0.6c3,3.4,6.2,6.7,10.9,8.1c4,1.2,7.9,1.6,11.4-1.3
		c1.4-1.2,2.9-1.5,4.8-0.8c1.4,0.5,3.1,0.3,4.6,0c1.7-0.3,4.2-2.2,3.7-4c-0.1-0.5-0.4-1.2-0.8-1.4c-0.3-0.2-1,0.3-1.5,0.5
		c-1.3,0.8-2.5,1.8-3.9,2.5c-0.9,0.4-2,0.3-3.3,0.4c0.2-0.7,0.2-1.1,0.4-1.3c1.8-2.7,1.8-5.7,2-8.7c0.2-2.7,0-5.4-2.3-7.3
		c-1.9-1.6-3.9-3.2-6.1-4.3c-2.6-1.3-5.6-1.7-8.4-0.8c-2.9,0.9-5.5,1.2-8.2-0.5c-1.3-0.8-1.5-1.9-1.7-3c-0.1-1.1,0.6-1.8,1.6-2.3
		c0.7-0.3,1.4-0.7,2.1-1.1c-3.3-3.8-5.9-3.3-8.6,0c-1.6,2-1.1,6,0.9,7.1c1.9,1.1,3.9,2.2,6.3,2.2c1.1,0,1.4,0.6,1.1,1.6
		c-0.5,1.5-1,3-1.2,4.5c-0.2,1.4,0,2.9,1.5,3.7c1.5,0.8,3,1,4.8,0.1c-0.6-0.7-1.3-1.3-1.7-2c-0.4-0.8-0.9-1.6-0.9-2.5
		c-0.2-3.4,2.9-6.5,6.5-6.6c5.2-0.2,10.5,3.4,12.2,8.1c2,5.6-0.4,13.9-8.5,16c-2.9,0.8-6.3,0.1-8.6-2.5
		C78,145.3,82.2,143.8,83.7,137.9z M199.4,201.1c0.5-2.1,0.6-4.3,0.7-6.4c0-0.8-0.4-1.7-0.9-2.5c-2.1-3.3-5.1-5.2-9.2-5.7
		c-4.8-0.6-10.3,1.9-12.4,6c-2.3,4.6-2.7,9.5-1.5,14.5c0.5,2.3,1.6,4.4,3.3,6.2c3.4,3.6,7.8,5.1,12.7,5.2c2.9,0.1,5.7-0.4,8.3-1.9
		c0.4-0.2,0.4-1,0.5-1.5c-0.5,0-1-0.1-1.4,0c-0.7,0.2-1.2,0.8-1.9,1c-6.5,2-12.6-0.7-15.4-6.7c-2.5-5.1-1.7-9.8,1.5-14.3
		c1.5-2.1,3.9-2.7,6.4-2.3c2.3,0.3,3.9,1.5,4.4,3.7c0.6,2.4,0.9,4.8,1.3,7.4C197.6,203.9,198.9,202.8,199.4,201.1z M210.8,241.4
		c1.6,2.9,4.1,4.3,6.4,6c1.8,1.3,3.6,1.4,5.6,0.9c2.6-0.7,4.3-3.2,4.3-6c-0.1-2.2-1.7-4.1-4.1-4.6c-2.2-0.5-4.6,1.4-4.4,3.6
		c0,0.4,0.4,0.7,0.7,1.1c0.3-0.3,0.5-0.7,0.8-1c0.4-0.6,0.7-1.5,1.3-1.8c1.3-0.7,2.7,0.1,3.5,1.4c0.9,1.6,0.6,3.4-0.7,4.4
		c-2.7,2-5.4,1.3-7.7-0.5c-4.2-3.2-4.3-9.9-2.4-13.6c1.7-3.3,4-6.4,6.1-9.5c0.2-0.3,0.6-0.5,0.9-0.7c0.1,0.1,0.3,0.1,0.4,0.2
		c-0.1,0.9,0,1.8-0.2,2.6c-0.8,3-0.9,5.9,1.7,8.3c0.3,0.3,0.5,0.7,0.8,1c0.5,0.4,1,0.8,1.6,1.2c0.7-1.9,1.4-3.5,2-5.2
		c0.2-0.6,0.2-1.5-0.1-2.1c-0.7-1.5-1.5-3.1-2.6-4.4c-1.3-1.5-2-2.9-1.7-4.8c0.2-1.5,0.5-3,0.7-4.5c0-0.3-0.3-0.7-0.5-1.1
		c-0.5,0.2-1.2,0.4-1.5,0.7c-0.3,0.4,0,1-0.2,1.5c-0.3,1-0.8,2-1.2,3c-0.2,0.5-0.5,0.9-0.8,1.3c-1.5,2.5-3.1,5-4.6,7.5
		c-0.1,0.2-0.3,0.4-0.5,0.5c-0.7,0.6-1.4,0.8-2.1,0.2c-2.2-2-5.1-1.8-7.8-2c-2.6-0.2-4.9,0.6-7.3,1.6c-2,0.9-2.3,1.4-0.6,2.9
		c0.7,0.6,1.5,1.2,2.4,1.4c2.6,0.4,5.1,0.8,7.7,0.9c1.7,0.1,3.3-0.4,5-0.7c0,3.4-0.2,6.4-3.7,8.3c-2.1,1.2-2.8,3.6-2.4,6.1
		C208.4,245.7,209.6,243.6,210.8,241.4z M133.5,285.9c-4.1,2-8.1,1.6-11.7-1.1c-3.7-2.8-5.2-6.4-4.2-10.9c1-4.3,5.1-7.4,9.8-7.5
		c0.3,0,0.8-0.6,0.7-0.9c-0.3-1.3-1.1-2.1-2.4-2.7c-3.3-1.5-8.2-0.8-10.8,1.8c-2.9,2.9-4.5,6.4-4.2,10.5c0.1,2,0.5,3.9,0.7,5.8
		c-3.3,1.2-4.3,2.5-4.3,5.5c0,2.4,2.4,3.8,5.1,2.8c-0.2-0.4-0.5-0.7-0.7-1c-0.8-1-0.7-1.8,0.2-2.6c1.1-1,1.9-1,3.2,0.2
		c1.8,1.8,3.7,3.3,6.4,3.9c3.3,0.7,6.5,0.5,9.7-0.4c3.7-1.1,7.2-2.7,10-5.5c-0.6-0.5-1.2-0.9-1.5-1.2
		C137.3,283.7,135.5,284.9,133.5,285.9z M-23.1,80.5c1.9,1.1,3.8,2.2,4.9,4.2c3.4,5.9,2.4,12.4-2.9,16.9c-1.5,1.3-3.3,2.3-5.4,2.3
		c-3.3,0-5.2-1.7-5.9-4.8c-0.8-3.2-0.7-5.9,2.2-8.1c-1.3-0.9-2.7-0.9-3.8-0.2c-5.1,3.3-5.7,9-3.4,13.3c2.2,4.3,8.7,6.8,13.6,5.9
		c4.3-0.8,7-3.5,9.1-6.9c1.7-2.8,2.3-6,2.7-9.2c0.8-6.8-4.5-14.3-11.7-15.9C-24.3,79-24.2,79.8-23.1,80.5z M43,104.7
		C32.5,99,21.4,97.5,9.9,101c-7.4,2.2-13.1,6.8-17.6,12.7c-0.9,1.1-0.3,1.8,1,2.3c3-5.4,7.7-8.8,13.7-10.8c-0.9,1-1.8,1.8-2.9,2.7
		c-3.3,2.7-6.3,5.7-8.5,9.4c-2,3.3-3.6,6.7-2.6,10.7c0.7,2.7,1.8,5.1,4.7,6.5c2.3-5.4,4.6-10.7,2.5-16.6c-0.6-1.6-0.3-3,0.6-4.4
		c2.4-4,6.3-6.3,10.3-8.2c2.7-1.3,5.8-2.4,8.8-2.9c7-1.2,13.6,0.5,19.9,3.6c1.2,0.6,2.3,1.2,3.4,1.8C44.3,105.8,44.3,105.4,43,104.7
		z M133,207.9c0.3-2.7-1.3-6-5.3-5.6c-1.1,0.1-2.3,0.3-3.3,0.6c-1.5,0.5-1.7-0.3-1.7-1.3c0-1.6,0.1-3.1,0-4.7c-0.1-2-2.2-4.6-4-5.1
		c-4.9-1.3-8.4,1.8-7.7,6.9c0.2,1.2,0.4,2.3,1.9,2.6c0.4-0.7,0.6-1.4,1.1-1.9c1.9-2.4,4.5-2.1,5.6,0.6c1.2,2.9,1.3,5.7-0.2,8.6
		c-0.6,1.1-1.2,2.3-1.3,3.6c-0.4,3.3-0.4,6.5,0.9,9.8c0.9,2.4,2.2,4.3,4.2,5.9c0.2,0.2,0.4,0.5,0.7,0.9c-1.2,0.5-2.3,0.9-3.3,1.4
		c-2.5,1.1-3.6,3.1-3.4,6.2c0.1,1.9,1.7,3.5,4.1,4.2c2.1,0.6,3.7-0.3,4.2-2.5c-0.1,0-0.2-0.1-0.3-0.1c-2.4-0.2-4.3-4.1-2.9-6
		c0.2-0.2,0.4-0.4,0.7-0.5c2.1-1.6,4.5-1,6.8-0.7c3.3,0.5,6.6,0.1,9.6-1.3c-0.5-2.2-0.6-2.2-2.5-1.2c-0.2,0.1-0.5,0.3-0.8,0.3
		c-1.9,0.2-3.8,0.5-5.6,0.4c-1.4-0.1-2.9-0.4-4.2-1.1c-2.7-1.5-4.2-4-5.5-6.7c-1.3-2.6-1.6-5.3-1.1-8.1c0.4-2.5,1.8-4.3,4.1-5.7
		c2.1-1.2,4.7-1.3,6.4,0.5c0.7,0.7,1.3,1.5,2.3,2.6C132.7,209.2,132.9,208.6,133,207.9z M96.5,110.1c4,2.4,9.4,1.3,12-2.5
		c1.1-1.6,1.9-3.5,2.3-5.4c1-4.2,0.2-8-3.3-11c-4-3.4-8.8-4.6-14.1-4c-2.1,0.3-4.2,1.1-5.6,2.7c-4.7,5.5-7,11.8-5.7,19
		c0.4,2.1,1.1,4.2,2.8,5.8c1.6-0.8,1.3-2,0.7-3.1c-1.2-2.2-1.8-4.5-2.2-6.8c-1.1-5.5,2.6-13.1,10.2-13.5c5.1-0.3,10,2.3,11.2,7
		c0.4,1.6,0.8,3.7,0.1,5.1c-1.1,2.3-5.6,4-8.5,1.9c-0.7-0.5-1.4-0.8-2.1-1.2C93.2,106.3,94.1,108.7,96.5,110.1z M47.6,208.8
		c-2.9-0.1-4.3,2.1-5.4,3.9c-3,4.6,0.5,12,6,13.2c6.2,1.3,12.4-1.6,14.4-7.8c2.6-7.7-1.3-15.1-9.5-18c-6.6-2.3-12.9-0.4-18.6,3.1
		c-2.8,1.8-4.6,4.4-5.8,7.3c-0.4,0.9-0.4,1.7,0.8,2.3c0.2-0.4,0.4-0.7,0.5-1c1.3-2.5,2.9-4.9,5.3-6.6c3.6-2.5,7.7-3.8,12.2-3.9
		c6.6-0.2,11.2,3.7,12.8,8.5c2.2,6.5-4.2,12.2-10.2,11.2c-2.3-0.4-3.8-1.7-4.2-4c-0.4-2.3,0.5-4.1,2.5-5.1c0.8-0.4,1.7-0.7,2.7-1.2
		C50.1,209.5,49.1,208.8,47.6,208.8z M210.9,125.6c-0.9,1.5-1.1,3-0.9,4.7c0.4,3,2.7,4.5,5.8,4c2.7-0.5,4.2-2.6,3.6-5.6
		c-0.6,0.4-1.2,0.8-1.8,1c-0.7,0.2-1.4,0.5-2.1,0.3c-2.6-0.7-3.9-4.8-2.1-6.7c1.2-1.2,2.9-2,3.9-3.3c1.7-2,3-4.1,4.4-6.3
		c0.8-1.2,0.4-1.6-0.8-1.8c-1.4,2.1-2.8,3.9-4,5.9c-1.1,2-2.9,3-5.1,3.3c-1.6,0.2-3.4,0.5-5,0.2c-2.7-0.4-5.6-0.7-7-3.5
		c-0.1-0.2-0.3-0.3-0.4-0.4c-2.9-1.7-3.8-4.4-3.6-7.4c0.3-3.7,2.9-5.7,6.8-5.2c0.3,0,0.9,0,1-0.3c0.2-0.2,0.1-0.7-0.1-1
		c-0.8-1.7-2.4-2.2-4.3-2.3c-1.9-0.1-3.4,0.4-4.3,2.1c-0.6,1.1-1.2,2.3-1.7,3.3c-2.2-1.5-4-2.9-6-4.1c-1.7-1-3.6-1.1-5.5-0.3
		c-2.4,1-3.7,6.1-2.4,8.2c1.2,1.9,3.4,2.7,5.3,2c-0.2-0.9-0.5-1.8-0.6-2.7c-0.2-2,1.1-3.3,3.2-3c1.1,0.2,2.2,0.7,3.2,1.3
		c2.2,1.5,3.2,3.9,4.2,6.2c2.3,5.3,6.4,8.2,12.4,8.7c1.5,0.1,2.9,0.3,4.6,0.5C211.4,124.4,211.2,125,210.9,125.6z M-50.9,136.5
		c-0.3,0.6-0.7,1.2-0.9,1.8c-0.4,1.4-0.7,2.7-0.8,4.1c-0.4,4.5,4.7,8.7,10.2,7.4c4.2-1,6.3-4.1,7.6-7.6c1-2.8,0.6-5.7,0-8.5
		c-0.8-4.1-3-7.3-6.8-9.6c-4.2-2.5-12.2,0.1-15.5,3.6c-4.4,4.6-5.7,10.1-5.6,16.1c0,0.4,0.2,0.9,0.3,1.3c0.2,0,0.3,0.1,0.5,0.1
		c0.2-0.4,0.6-0.8,0.6-1.2c0-0.6-0.2-1.3-0.3-1.9c-0.2-5.5,1.8-10.1,6.1-13.7c2.1-1.8,4.7-2.6,7.5-2.4c4.1,0.3,6.7,2.6,7.9,6.2
		c1.1,3.4,1.9,6.9-0.5,10.2c-2.1,2.8-6.3,2.6-8-0.4c-0.8-1.5-1.2-3.1-1.8-4.7C-50.4,136.9-50.7,136.7-50.9,136.5z M115.7,32.7
		c-0.5,0.7-1.2,1.3-1.9,0.6c-0.4-0.4-0.6-1.6-0.3-2.1c0.8-1.6,3.1-2.3,4.9-1.7c4.1,1.3,6.1,5.1,5.6,8.8c-0.8,6.1-8.4,12.2-15,12.6
		c-6,0.3-13.8-2.5-16.4-9.6c-0.1-0.3-0.5-0.6-0.8-0.6c-1.4,0-2.3,1.2-1.9,2.4c1,3.1,3.3,5.5,5.8,7.6c4.6,4,9.9,5.6,16.1,4.7
		c5.5-0.8,9.2-4.1,12.2-8.3c2.3-3.2,2.9-6.8,2.6-10.6c-0.3-3-3-4.7-4.1-7.3c-0.1-0.2-0.4-0.4-0.7-0.5c-3.9-2.3-7.2-1.6-9.7,2
		c-0.7,1-0.5,3.4,0.3,3.9c1.2,0.7,2.4,0.6,3.5-0.1c1.1-0.6,1.8-1.5,1.3-3.3C116.4,32,115.9,32.3,115.7,32.7z M68.7,248.8
		c0.5-0.5,1-1.1,1.5-1.6c0.6-0.6,0.7-1,0-1.6c-5.7-4.9-12.3-7.2-19.7-4.6c-7.5,2.6-11.8,8-12.5,15.7c-0.3,3,0.1,5.8,1.9,8.3
		c1.8,2.4,4.2,4.2,7.4,4.4c0.8,0,1.6,0,2.3-0.3c2.6-1.1,3.5-2.6,3.2-5.4c-0.1-0.7-0.7-1.7-1.4-2c-1.1-0.6-2.9-0.1-3.7,1
		c-0.6,0.8-0.9,1.7,0,2.8c0.9-0.7,1.7-1.4,2.6-2.2c1.4,1.8,0.4,3.7-2.1,4.1c-2.6,0.4-5.5-1.4-6.5-4.3c-0.9-2.6-0.8-5.2-0.2-7.8
		c0.7-2.9,3.1-4.6,5.1-6.4c3.8-3.4,8.5-4.7,13.6-3.7c2.9,0.6,5.7,2.1,8.5,3.1C68.7,248.5,68.7,248.7,68.7,248.8z M207.7,257.6
		c0.3-2.3-1.2-4.3-2.6-6.3c-1,1.5-2.2,2.8-2.8,4.3c-0.8,2-1.1,4.3,0.3,6.1c1,1.3,1.5,2.4,1,3.9c-0.3,0.9-0.9,1.6-1.3,2.4
		c-0.6,1-0.7,2,0.6,2.8c0.5-0.8,0.9-1.5,1.4-2.3c1.4-2.1,3.1-4,5.6-4.8c2.5-0.7,5-1,7.6-0.7c6.4,0.7,10.1,3.9,11.1,9.9
		c0.5,3-0.7,5.4-3.2,7.1c-2.2,1.5-4.6,1.7-7,0.6c-2.1-0.9-3-3.2-2.4-5.4c0.7-2.2,2.1-3,4.5-2.9c0.2,0,0.4-0.1,0.7-0.2
		c-0.1-1.4-0.8-2.4-2.2-2.6c-3-0.4-6.1,0.7-6.7,4.3c-0.2,1.3-0.4,2.6-0.3,3.9c0.2,3.2,1.7,5.7,4.8,6.9c3.1,1.3,6.2,0.8,8.8-1.1
		c2.8-2.1,4.2-4.9,4.3-8.3c0.1-4.6-1.4-8.5-5.3-11.4c-4-3-12.3-4.3-17.8-0.4c-0.4,0.3-0.9,0.3-1.4,0.5
		C206.3,261.8,207.4,259.8,207.7,257.6z M2.9,26.3c-5.6,2.1-11,4.4-13.4,10.3C-12,40.3-13,44.1-11.8,48c2.6,8.7,12.9,10,19,6.6
		c4.1-2.3,5.3-6.2,5-10.6c-0.3-4.9-4.2-8-9.3-7.3c-2.6,0.3-4.2,2.2-3.8,4.5c0.6-0.2,1.1-0.3,1.7-0.4c2.3-0.5,4.1,0.3,5.4,2.1
		c1.2,1.5,2,3.2,0.9,5.1c-1.8,3-7.8,5.8-12.2,3.8c-4.2-2-6.5-7.7-5-12.5c1.6-5,5.4-8.1,10.4-9.8c1.2-0.4,2.5-0.7,3.9-1
		C4.4,26.4,4,25.9,2.9,26.3z M28.5,77.9c-1.3,1.9-1.6,4.1-1,6.3c0.9,3.2,3.4,5.2,6.7,5.5c4.1,0.3,7.5-1.6,8.9-4.9
		c1.1-2.6,1.3-5.2,1.1-8c-0.4-4.3-2.2-7.8-6.6-9.7c-4.2-1.8-8.2-1.6-11.9,1.1c-7.8,5.5-10.7,13.1-9.6,22.2c0.3,2.1,1.3,4,1.9,6.1
		c0.4,1.2,1.3,0.9,2.1,0.5c1.1-0.5,0.2-1.1-0.1-1.6c-0.9-2.1-2.4-4.2-2.6-6.4c-0.8-6.7,1.7-12.5,6.7-17.2c2.9-2.8,6.4-4.3,10.6-3
		c3.7,1.1,5.7,3.7,6.1,7.3c0.4,3.2-0.5,7.2-4.2,8.7c-1.6,0.7-3.3,0.5-4.3-0.8c-0.8-1-1.3-2.3-1.5-3.6c-0.2-1.1,0.2-2.3,0.3-3.4
		C30.1,76.7,29.1,77.1,28.5,77.9z M168,211.1c0.2,1.2-0.2,2.1-1.4,2.5c-1.2,0.4-2.1,0.2-2.9-0.9c-2-3-6.9-3.1-9-0.3
		c-2.3,3-1.5,6.8,2.1,9.2c1.2,0.8,1.4,2.1,0.3,2.9c-0.9,0.6-2.2,1-3.2,1c-1.3-0.1-1.2,0.4-1.1,1.2c0.1,0.3,0.2,0.6,0.4,0.9
		c0.8,1.4,2.2,2,3.8,2c1.5,0,2.6-0.7,3.3-2.1c0.3-0.7,0.5-1.7,1.9-1.3c2.5,0.9,4,0,4.1-2.5c0-0.8,0.4-1,1.1-1.2
		c1.9-0.4,2.4-1.1,1.8-2.8c-0.4-1.3-0.1-2.2,0.6-3.2c2.2-3.2,1.7-5.5-1.7-8.1C168,209.4,167.9,210.3,168,211.1z M-5.1,83.4
		c-0.3-1.2,0.1-2.1,1.4-2.6c1.5-0.7,2.5,0.1,3.3,1.1c1.5,1.7,3.4,2.2,5.6,1.7c2.5-0.6,3.7-2.2,4-4.6c0.4-2.8-0.7-4.9-2.9-6.1
		C5.6,72.4,5,71.6,5,71c0-0.6,0.6-1.3,1.2-1.7c0.6-0.4,1.5-0.5,2.2-0.7c0.5-0.2,1.1-0.3,1.6-0.5c-0.2-0.6-0.4-1.3-0.8-1.8
		c-1.7-2.1-5-1.8-6.5,0.6c-0.7,1.1-1.2,1.9-2.7,1c-1-0.6-2,0-2.5,1c-0.3,0.6-0.4,1.3-0.7,2c-0.1,0.3-0.5,0.8-0.8,0.8
		c-2,0.4-2.8,1.8-1.9,3.6c0.6,1,0.1,1.7-0.5,2.4c-2.3,2.4-1.8,5.8,1.5,7.9C-4.9,84.6-5,84-5.1,83.4z M69.6,94.8
		c0.9-1.5,2.4-2.6,4.2-1.2c2,1.7,2.2,5.1,0.3,7.3c-2,2.2-5.4,2.5-7.7,0.6c-2.4-2-2.9-4.8-3.3-7.6c-0.4-2.4,0.8-4.5,1.7-6.8
		c1.2-3,3.4-4.5,6.5-5.2c1.4-0.3,2.9-0.6,4.3-0.9c0-0.6,0-1,0-1.6c-0.7,0-1.3,0-1.9,0c-3.8,0-4.6-0.6-6.1-3.8
		c-0.6-1.4-0.4-2.8,0.3-4.1c0.8-1.3,2.4-1.9,3.8-1.5c1.3,0.4,2.7,1.5,2.3,3.2c-0.1,0.4,0,0.8,0.1,1.7c0.8-0.6,1.6-0.9,1.6-1.2
		c0-1.2,0.1-2.7-0.5-3.6c-1.5-2.4-6.7-2.4-8.5-0.2c-1.6,1.9-2.3,6.7,0.4,8.8c0.4,0.3,0.8,0.7,1,1.2c0.2,0.3,0.3,0.9,0.1,1.1
		c-0.3,0.3-0.9,0.5-1.3,0.4c-0.7-0.2-1.3-0.7-1.9-1.1c-2.7-2.1-5.3-2-7.8,0.6c1.4,3.5,4.2,3.8,7.8,2.4c-0.5,1-0.7,1.5-1,2
		c-2.1,3.3-2.6,6.9-2.3,10.6c0.2,2.5,1.1,4.8,3.2,6.5c3.8,3.1,8.6,3.1,11.2-0.4c0.9-1.2,1.5-2.8,2-4.2c1.2-3.4-1.1-7.6-5.9-8
		c-1.6-0.1-3.3,0.7-4.1,2.4c-1,1.9-0.9,3.2,0.6,4.7C69.1,96.1,69.3,95.4,69.6,94.8z M145.1,127.5c1.5-0.3,1.5-1.2,0.9-2
		c-2-2.8-4.3-5.2-7.9-6c-3-0.6-5.8,0.3-8.4,1.5c-2.5,1.2-4.9,2.5-7.3,3.9c-0.4,0.2-0.3,1.1-0.4,1.7c0.5,0.1,1,0.3,1.5,0.2
		c0.5,0,0.9-0.3,1.4-0.5c1.5-0.7,2.9-0.6,4.3,0.4c2.3,1.6,5,2.2,7.9,2.5C139.7,128.6,142.4,128,145.1,127.5z M-57.3,211.9
		c0.5-0.6,0.9-1.3,1.4-1.8c1.8-1.6,3.8-1.2,4.9,1c1,2.1,0.2,3.8-1.2,5.5c-2,2.3-4.4,2.9-7.3,2.2c-2.3-0.5-3.5-2.2-4-4.2
		c-0.4-1.9-0.5-3.8-0.2-5.7c0.8-5,5.8-10,10.9-10.6c1.9-0.2,3.8,0.1,5.7,0.2c1.2,0.1,1.8-0.1,1.5-1.3c-0.1-0.4-0.1-0.7-0.2-1.2
		c-6.8-0.3-12.8,0.5-16.9,6.8c-2.2,3.4-3.3,6.8-2.7,10.7c0.5,3.7,3.9,7.1,7.4,7.6c3.7,0.5,8.1-1.5,9.6-4.8c0.8-1.7,0.8-3.7,1.1-5.6
		c0-0.2-0.1-0.5-0.3-0.8c-0.8-1-1.7-1.9-2.4-3c-1.2-2.1-6.7-1.1-7.7,1.1c-0.5,1.1-0.4,2.4-0.6,3.6
		C-57.9,211.6-57.6,211.8-57.3,211.9z M208.6,209.9c0.6-1.6,2-2.9,2.5-4.7c0.5-2.1,1.5-4.1,2.3-6.2c0.2-0.6,0.2-1.3,0.4-1.9
		c0.3-1,1-1.1,1.8-0.4c0.3,0.3,0.7,0.6,1,0.9c2.8,3,4.1,6.6,4.7,10.5c0.2,1.3,0.6,2.1,2.3,1.7c0-0.4,0.1-0.7,0.1-1.1
		c-0.4-6-2.9-11-7.4-15.2c-1-0.9-1.7-1.8-1.5-3.2c0.1-0.9,0.1-1.8-0.1-2.7c-0.9-5.1-3.2-9.6-6.6-13.6c-0.6-0.7-1.1-1.6-1.9-2.1
		c-0.5-0.3-1.4,0-2.1,0c0.2,0.5,0.2,1.1,0.6,1.5c1,1.3,2.3,2.5,3.2,3.8c6.4,9.5,6.7,19.3,1.3,29.4c-1.2,2.2-2.9,3.9-4.8,5.5
		c-1.2,1-1.2,1.5,0.1,2.7C205.6,213,207.8,212.1,208.6,209.9z M-63.1,51c-3.5,5.6-5.7,11.3-2.3,17.8c2.3,4.3,7.2,6.5,11.6,4.9
		c2.6-0.9,3.9-4.5,2.7-6.7c-0.6-1.1-1.5-1.4-2.7-1c-1.5,0.5-1.9,1.6-1.8,2.9c0,0.5,0.4,0.9,0.6,1.4c0.3-0.4,0.6-0.8,0.8-1.2
		c0.3-0.4,0.5-0.9,0.8-1.3c0.4,0.5,1,1.1,1.1,1.6c0.2,1.6-1.7,3.3-3.6,3.2c-2.9-0.2-5.2-1.5-6.6-4c-1.9-3.4-1.6-10.9,2.3-14.2
		c0.6-0.5,1.1-1.1,1.7-1.7c-1-1.3-1.8-2.4-2.8-3.8C-61.9,49.6-62.6,50.3-63.1,51z M104.2,157.9c-0.1,5.6,1.6,10.8,3.5,16
		c2.1,5.7,6.5,9.6,11.3,13.2c0.4,0.3,1.1,0,1.7,0.1c-0.1-0.6,0-1.3-0.2-1.9c-0.1-0.3-0.7-0.5-1.1-0.7c-1-0.7-2.2-1.3-3-2.2
		c-1.5-1.6-2.9-3.3-4-5.1c-3.5-5.9-5.8-12.2-5.2-19.2c0.1-0.8-0.2-1.7-0.3-2.6C104.1,155.7,104.3,155.5,104.2,157.9z M217,187.5
		c1,2.2,2.1,4.5,3.4,6.5c1,1.5,2.8,2.3,4.9,2.3c1.2,0,1.9-0.7,2.2-1.7c0.4-1-0.3-1.4-1-1.9c-2.2-1.6-4.5-3.2-6.7-4.8
		c-1-0.7-1.8-1.6-3-2.6C216.8,186.1,216.7,186.9,217,187.5z M179.8,168.4c-5.3,1.3-7.6,4.9-7.9,9.4c-0.1,1.1,0.9,1.4,1.6,1.2
		c1.1-0.3,2.5-0.8,3-1.6c1.6-2.8,2.9-5.8,4.4-9.1C180.1,168.4,179.9,168.4,179.8,168.4z M150.4,199.6c1.2,0,2.6-0.7,3.5-1.4
		c1-0.8,1.6-2.1,0.8-3.3c-0.8-1.3-2.1-0.8-3.3-0.5c-0.1,0-0.3,0.1-0.4,0.1c-2.7,1-5.3,2.1-8.3,1.9c-0.5,0-0.9,0.2-1.8,0.4
		C144,198.7,147.1,199.7,150.4,199.6z M-32.1,200.4c-3.1,0.6-5.7,2.1-7.8,4.3c-1.7,1.7-2.2,3.8-1.6,6.1c0.1,0.4,0.3,1.1,0.6,1.2
		c0.5,0.2,1.3,0.1,1.6-0.2c0.8-0.9,1.7-1.9,2.1-3c1.1-2.6,1.9-5.3,4.4-7c0.4-0.3,0.6-0.7,0.8-1.1C-31.9,200.6-32,200.5-32.1,200.4z
		 M-3.2,24.6c-0.3-0.7-0.5-1.5-0.9-2.1C-5,21.2-6,19.9-6.9,18.6c-1.5-2.4-3.8-3-6.5-2.6c-0.6,0.1-1.3,0.9-1.6,1.5
		c-0.3,0.7-0.2,1.6,0.8,2c2.1,0.9,4.1,1.7,6.1,2.7c1.2,0.6,2.4,1.5,3.5,2.2c0.3,0.2,0.6,0.2,0.9,0.4C-3.5,24.7-3.4,24.7-3.2,24.6z
		 M120.9,252.3c-0.9,0.3-1.6,1-2.4,1.5c0.6,0.8,1.1,1.8,2,2.3c2.5,1.5,7.5,0.8,9.8-1.1C128.7,252.6,124.3,251.3,120.9,252.3z
		 M50.1,44.1c1-0.6,1-1.3,0.2-2.1c-2.2-2.5-8.1-2.3-10.7,0.4C41.8,45.4,46.9,46.2,50.1,44.1z M-0.3,201c-3.2,0.9-5.1,3.4-5.3,7.1
		c2.9,0.8,7.3-2.4,9.2-6.6C2.4,200.7,1.1,200.6-0.3,201z M201.6,89.8c1.7-1.1,3.4-2.1,5.1-3.2c2.3-1.5,3.4-3.6,3.1-6.3
		c-0.1-0.7-0.7-1.3-1.1-2c-0.6,0.4-1.3,0.7-1.8,1.2c-0.3,0.3-0.4,0.7-0.6,1.1c-1.5,2.5-2.9,5-4.4,7.5c-0.3,0.4-0.5,0.9-0.8,1.3
		C201.3,89.6,201.5,89.7,201.6,89.8z M7.6,186.4c1.4-0.4,2.9-0.6,4.3-1c0.8-0.2,1.8-0.5,1.6-1.7c-0.2-1.2-0.7-2.1-2-2.1
		c-1.4,0-3.1,0-4.1,0.7c-2.3,1.5-4.4,3.3-5.5,6C3.8,187.6,5.7,186.9,7.6,186.4z M142.5,139.6c-0.7,0.2-1.2,0.9-1.7,1.5
		c-0.2,0.2-0.1,0.9,0.1,1.1c1.9,1.7,8,2.7,10.4,0.8C149.4,139.2,145.9,138.3,142.5,139.6z M57.3,55.6c-1.8,0.6-3.6,1.1-5.4,1.7
		c-1.5,0.4-3.1,0.7-4.5,1.2c-1,0.3-1.7,1-1.6,2.1c0.1,1.1,1,1.3,1.9,1.5c2.1,0.4,4,0.3,5.5-1.5c1.4-1.7,3-3.2,4.6-4.7
		C57.6,55.8,57.4,55.7,57.3,55.6z M122.8,176.4c-2.7-1.5-5.6-1.5-8.6-1.3c-1,0.1-1.3,0.8-0.9,1.5c0.5,0.8,1.1,1.6,1.9,2.1
		c2.1,1.1,4.3,1.3,6.6,0.6c0.9-0.3,1.6-1,2.6-1.7C123.6,176.9,123.2,176.6,122.8,176.4z M-37.6,249c-0.1,0.6-0.1,1.2-0.2,1.8
		c-0.8,3.1-1.7,6.3-2.5,9.4c-0.1,0.5,0,1.6,0.2,1.6c0.8,0.1,1.9,0.2,2.3-0.2c1.4-1.1,2.5-2.6,2.2-4.5c-0.4-2.5-0.8-4.9-1.2-7.4
		c0-0.3-0.3-0.5-0.4-0.8C-37.3,248.9-37.4,248.9-37.6,249z M115.7,114.1c0.9-1.7,0.6-3.4,0.7-5.1c0-0.4-0.5-1.2-0.8-1.3
		c-0.6-0.1-1.4,0.1-1.7,0.5c-2.4,2.8-2.4,6.2-2.7,9.6c0,0,0.1,0.1,0.1,0.1C113.2,117.2,114.7,116,115.7,114.1z M60.4,141
		c-0.6,1.7-1.1,3.5-1.7,5.2c-0.6,1.8-1.3,3.7-1.8,5.5c-0.1,0.5,0,1.3,0.4,1.6c0.4,0.3,1.3,0.3,1.7,0.1c0.8-0.5,1.7-1.2,2-1.9
		c0.4-1.5,0.6-3.2,0.6-4.8c-0.1-1.9-0.5-3.9-0.8-5.8C60.7,140.9,60.6,141,60.4,141z M-3,253c5.2,0.8,9.3-2.1,9-6.6
		C1.9,246.4-2.1,250-3,253z M113.6,204.2c-0.3-0.5-1.6-0.8-2.3-0.7c-0.5,0.1-1,1.1-1.1,1.7c-0.4,3.3,2.4,6.7,6.2,7.3
		C116.2,209.4,115.2,206.7,113.6,204.2z M-23.3,169.8c-1.4,0.5-1.6,1.3-0.4,2c2,1.2,4.1,2.3,6.2,3.2c0.6,0.3,1.9,0,2.2-0.5
		c0.4-0.5,0.1-1.5,0-2.2c0-0.3-0.4-0.6-0.7-0.9c-1.5-1.4-3.5-1.6-5.5-1.9C-22,169.6-22.7,169.6-23.3,169.8z M175.9,88.9
		c0-0.2-0.5-0.6-0.7-0.6c-2.2,0.7-4.3,1.4-5.8,3.2c-0.5,0.6-1,1.3-1.5,1.9c-0.3,0.5-0.6,1-0.9,1.5c0.6,0.3,1.3,0.6,1.9,0.8
		C172.1,95.6,176.1,91.7,175.9,88.9z M168.5,45.4c-2.1-0.5-4.1-0.5-5.8,1c-1.9,1.6-2.6,3.6-2.4,5.9
		C163.4,52.1,167.8,48.5,168.5,45.4z M47.2,116c-0.3-1.5-1-3-3-3.5c-1.4,3.6-1.5,7.1,0.3,10.7C46.8,121.9,47.6,118.7,47.2,116z
		 M225.5,168.4c-1.7,0-3.3,1.8-3.3,3.7c0,1.7,1.1,2.8,2.8,2.8c2,0,3.5-1.4,3.5-3.4C228.5,169.8,227.2,168.5,225.5,168.4z M188,114.3
		c-0.8-0.1-2.1,0.2-2.3,0.7c-0.3,0.6,0.2,1.6,0.4,2.5c0.1,0.3,0.5,0.5,0.7,0.7c2,1.4,6.4,1.5,8.4-0.2
		C193.4,116.2,190,114.4,188,114.3z M-28.5,117c-1.9,0-3.4,1.6-3.3,3.6c0.1,1.9,1.1,3,2.8,3c1.8,0,3.1-1.6,3.1-3.7
		C-25.9,118-26.9,117-28.5,117z M44.6,237.8c1.8,0,3.5-1.7,3.5-3.6c0-1.4-1.4-2.7-3-2.7c-1.8,0-3.2,1.4-3.2,3.4
		C41.9,236.6,43,237.8,44.6,237.8z M-15.1,281.2c1.7,0.1,3.1-1.5,3.1-3.5c0-1.4-1.4-2.9-2.8-2.9c-1.8,0-3.1,1.3-3.1,3.3
		C-18,279.9-16.9,281.1-15.1,281.2z M120,63.1c-0.1,1.5,1.2,2.8,2.8,2.9c1.8,0.1,3.3-1.5,3.4-3.4c0-1.4-1.2-2.7-2.5-2.8
		C121.9,59.7,120.1,61.3,120,63.1z M47.5,92.3c0-0.4-0.7-1.1-0.9-1c-0.8,0.1-1.8,0.4-2.2,0.9c-1.4,1.9-2.6,3.9-4,6.1
		C43.8,99.2,47.9,96.2,47.5,92.3z M180.3,19c-1.8,0-3.2,1.3-3.3,3.2c-0.1,1.6,1.2,2.8,3,2.8c1.9,0,2.8-1.1,2.9-3.4
		C182.9,20,181.9,19,180.3,19z M-31.4,155.7c-0.2,1.3-0.5,2.6-0.8,3.8c-0.1,0.7-0.3,1.3-0.4,2c3.6-0.5,5.6-4.5,4.6-8.3
		C-29.7,152.9-31.1,153.9-31.4,155.7z M185.3,231.9c-1.5,0-2.9,1.4-3,2.9c0,1.4,1,2.4,2.6,2.4c1.5,0,2.7-1.3,2.7-2.9
		C187.6,232.8,186.8,231.9,185.3,231.9z M99.6,267.4c0.7,0.1,1.5,0.6,1.9-0.4c0.3-0.9,0.4-1.8-0.8-2.4c-0.8-0.4-1.4-1-2.2-1.5
		c-1-0.6-2.2-1.1-3.4-1.7C94.6,264.8,97.2,267.2,99.6,267.4z M147.4,243.7c0,1.5,0.9,2.4,2.4,2.4c1.8,0,3-1.2,3-2.8
		c0-1.5-0.9-2.4-2.6-2.4C148.5,240.9,147.4,242,147.4,243.7z M-61.6,17.1c-1.5,0-2.9,1.5-2.9,3.2c0,1.5,0.9,2.5,2.2,2.4
		c1.5,0,2.8-1.6,2.8-3.3C-59.4,17.9-60.2,17.1-61.6,17.1z M70.2,30.1c-0.9-0.2-1.9-0.6-2.3,0.4c-0.5,1.1-0.1,2.1,1,2.7
		c1.7,0.9,3.4,1.6,5.3,2.5C74.5,33.2,72.6,30.7,70.2,30.1z M206.9,189.7c0-1.4-1-2.5-2.5-2.5c-1.6,0-2.6,1-2.7,2.7
		c0,1.6,0.7,2.3,2.2,2.4C205.7,192.3,206.9,191.1,206.9,189.7z M19.2,234.3c0.1-1.5-1.1-2.8-2.5-2.8c-1.4,0-2.5,1.1-2.5,2.5
		c0,1.4,1.3,2.9,2.5,2.9C18,236.9,19.2,235.7,19.2,234.3z M21.6,58.3c1.5,0,2.7-1.2,2.7-2.6c0-1.5-1-2.5-2.5-2.4
		c-1.6,0-2.6,1-2.6,2.6C19.2,57.4,20.1,58.4,21.6,58.3z M55.4,105.5c1.4,0,2.6-1.3,2.6-2.9c0-1.4-0.9-2.4-2.1-2.4
		c-1.5,0-2.6,1.3-2.6,3.1C53.2,104.8,53.9,105.6,55.4,105.5z M119.8,140.6c-1.5,0-2.5,0.9-2.6,2.4c0,1.6,1.1,2.9,2.4,2.9
		c1.3,0,2.4-1.2,2.4-2.6C122,141.6,121.2,140.6,119.8,140.6z M-60.7,228.4c-1.5,0-2.4,0.9-2.5,2.4c-0.1,1.4,1.2,2.7,2.6,2.7
		c1.4,0,2.1-0.7,2.1-2.4C-58.4,229.4-59.2,228.5-60.7,228.4z M213.5,62.1c1.4,0,2.7-1.2,2.7-2.5c0-1.4-1-2.3-2.5-2.3
		c-1.6,0-2.4,0.8-2.4,2.4C211.2,61.3,211.9,62.1,213.5,62.1z M152.6,64c0-1.3-0.8-2.2-2-2.2c-1.4-0.1-2.8,1.3-2.9,2.8
		c-0.1,1.3,0.8,2.3,2.2,2.3C151.7,66.9,152.6,66,152.6,64z M-18.1,47c-1.5,0-2.5,1-2.5,2.6c0,1.5,0.9,2.5,2.2,2.5
		c1.4,0,2.3-1,2.3-2.7C-16.1,47.8-16.8,47-18.1,47z M0,93c-1.5,0-2.5,0.9-2.5,2.4c0,1.4,1,2.5,2.3,2.5c1.2,0,2.2-1.2,2.2-2.6
		C1.9,94,1,93,0,93z M226.2,259c0.4-0.2,0.7-0.8,0.8-1.2c0-0.3-0.4-0.7-0.8-0.9c-2.1-0.8-4.4,0.4-5.1,2.6
		C223,259.9,224.6,259.8,226.2,259z M223.8,137.3c2.3,0.3,3.2-0.4,4.6-3.8C226,133.3,224.3,134.7,223.8,137.3z"/>
	<use xlink:href="#SVGID_1_"  overflow="visible" fill="none" stroke="#FFFFFF" stroke-width="1.7117" stroke-miterlimit="10"/>
</g>
</symbol>
<symbol version="1.1" id="about-3" xmlns="http://www.w3.org/2000/svg" xmlns:xlink="http://www.w3.org/1999/xlink" x="0px" y="0px"
	 viewBox="0 0 141.7 141.7" enable-background="new 0 0 141.7 141.7" xml:space="preserve">
<g>
	<circle fill="#F6AF47" cx="70.9" cy="70.9" r="70.9"/>

		<rect x="30.4" y="64.7" fill="none" stroke="#FFFFFF" stroke-width="2.8346" stroke-linejoin="round" stroke-miterlimit="10" width="81" height="27.5"/>
	<polygon fill="none" stroke="#FFFFFF" stroke-width="2.8346" stroke-miterlimit="10" points="84.7,47.9 86.7,35.4 93,35.4
		94.8,54.2 	"/>
	<polyline fill="none" stroke="#FFFFFF" stroke-width="2.8346" stroke-miterlimit="10" points="90.5,35.4 91.8,23.9 97.3,23.9
		102,58.8 	"/>
	<rect x="41.2" y="74" fill="none" stroke="#FFFFFF" stroke-width="2.8346" stroke-miterlimit="10" width="12.7" height="5.4"/>
	<rect x="64.5" y="74" fill="none" stroke="#FFFFFF" stroke-width="2.8346" stroke-miterlimit="10" width="12.7" height="5.4"/>
	<rect x="87.8" y="74" fill="none" stroke="#FFFFFF" stroke-width="2.8346" stroke-miterlimit="10" width="12.7" height="5.4"/>
	<polygon fill="none" stroke="#FFFFFF" stroke-width="2.8346" stroke-miterlimit="10" points="70.9,39.2 30.4,64.7 111.4,64.7 	"/>
</g>
</symbol>
<symbol version="1.1" id="about-4" xmlns="http://www.w3.org/2000/svg" xmlns:xlink="http://www.w3.org/1999/xlink" x="0px" y="0px"
	 viewBox="0 0 141.7 141.7" enable-background="new 0 0 141.7 141.7" xml:space="preserve">
<circle fill="#F6AF47" cx="70.9" cy="70.9" r="70.9"/>
<g>
	<ellipse fill="none" stroke="#FFFFFF" stroke-width="1.7117" stroke-miterlimit="10" cx="89.1" cy="89.8" rx="15.2" ry="3.8"/>
	<path fill="none" stroke="#FFFFFF" stroke-width="1.7117" stroke-miterlimit="10" d="M104.3,89.8c0,2.1-6.8,3.8-15.2,3.8
		s-15.2-1.7-15.2-3.8v6c0,2.1,6.8,3.8,15.2,3.8s15.2-1.7,15.2-3.8V89.8z"/>
</g>
<g>
	<ellipse fill="none" stroke="#FFFFFF" stroke-width="1.7117" stroke-miterlimit="10" cx="52.6" cy="58.9" rx="15.2" ry="3.8"/>
	<path fill="none" stroke="#FFFFFF" stroke-width="1.7117" stroke-miterlimit="10" d="M67.8,58.9c0,2.1-6.8,3.8-15.2,3.8
		S37.5,61,37.5,58.9v6c0,2.1,6.8,3.8,15.2,3.8s15.2-1.7,15.2-3.8V58.9z"/>
	<path fill="none" stroke="#FFFFFF" stroke-width="1.7117" stroke-miterlimit="10" d="M67.8,64.9c0,2.1-6.8,3.8-15.2,3.8
		S37.5,67,37.5,64.9v6c0,2.1,6.8,3.8,15.2,3.8s15.2-1.7,15.2-3.8V64.9z"/>
	<path fill="none" stroke="#FFFFFF" stroke-width="1.7117" stroke-miterlimit="10" d="M67.8,70.8c0,2.1-6.8,3.8-15.2,3.8
		s-15.2-1.7-15.2-3.8v6c0,2.1,6.8,3.8,15.2,3.8s15.2-1.7,15.2-3.8V70.8z"/>
	<path fill="none" stroke="#FFFFFF" stroke-width="1.7117" stroke-miterlimit="10" d="M67.8,76.8c0,2.1-6.8,3.8-15.2,3.8
		s-15.2-1.7-15.2-3.8v6c0,2.1,6.8,3.8,15.2,3.8s15.2-1.7,15.2-3.8V76.8z"/>
	<path fill="none" stroke="#FFFFFF" stroke-width="1.7117" stroke-miterlimit="10" d="M67.8,82.8c0,2.1-6.8,3.8-15.2,3.8
		s-15.2-1.7-15.2-3.8v6c0,2.1,6.8,3.8,15.2,3.8s15.2-1.7,15.2-3.8V82.8z"/>
	<path fill="none" stroke="#FFFFFF" stroke-width="1.7117" stroke-miterlimit="10" d="M67.8,88.7c0,2.1-6.8,3.8-15.2,3.8
		s-15.2-1.7-15.2-3.8v6c0,2.1,6.8,3.8,15.2,3.8s15.2-1.7,15.2-3.8V88.7z"/>
</g>
<g>
	<path fill="none" stroke="#FFFFFF" stroke-width="1.7117" stroke-miterlimit="10" d="M73.9,68.7c-2.2,0-4.2-0.1-6.1-0.3v2.5v3.5
		c1.9,0.2,3.9,0.3,6.1,0.3c8.4,0,15.2-1.7,15.2-3.8v-6C89.1,67,82.3,68.7,73.9,68.7z"/>
	<path fill="none" stroke="#FFFFFF" stroke-width="1.7117" stroke-miterlimit="10" d="M73.9,74.6c-2.2,0-4.2-0.1-6.1-0.3v2.5v3.5
		c1.9,0.2,3.9,0.3,6.1,0.3c8.4,0,15.2-1.7,15.2-3.8v-6C89.1,72.9,82.3,74.6,73.9,74.6z"/>
	<ellipse fill="none" stroke="#FFFFFF" stroke-width="1.7117" stroke-miterlimit="10" cx="73.9" cy="41.1" rx="15.2" ry="3.8"/>
	<path fill="none" stroke="#FFFFFF" stroke-width="1.7117" stroke-miterlimit="10" d="M73.9,44.9c-8.4,0-15.2-1.7-15.2-3.8v6
		c0,2.1,6.8,3.8,15.2,3.8s15.2-1.7,15.2-3.8v-6C89.1,43.2,82.3,44.9,73.9,44.9z"/>
	<path fill="none" stroke="#FFFFFF" stroke-width="1.7117" stroke-miterlimit="10" d="M73.9,62.7c-2.2,0-4.2-0.1-6.1-0.3v2.5v3.5
		c1.9,0.2,3.9,0.3,6.1,0.3c8.4,0,15.2-1.7,15.2-3.8v-6C89.1,61,82.3,62.7,73.9,62.7z"/>
	<path fill="none" stroke="#FFFFFF" stroke-width="1.7117" stroke-miterlimit="10" d="M73.9,50.8c-8.4,0-15.2-1.7-15.2-3.8v6
		c0,2.1,6.8,3.8,15.2,3.8s15.2-1.7,15.2-3.8v-6C89.1,49.1,82.3,50.8,73.9,50.8z"/>
	<path fill="none" stroke="#FFFFFF" stroke-width="1.7117" stroke-miterlimit="10" d="M73.9,56.8c-8.4,0-15.2-1.7-15.2-3.8v2.5
		c5.4,0.6,9.1,1.9,9.1,3.5v3.5c1.9,0.2,3.9,0.3,6.1,0.3c8.4,0,15.2-1.7,15.2-3.8v-6C89.1,55.1,82.3,56.8,73.9,56.8z"/>
</g>
</symbol>
<symbol version="1.1" id="about-5" xmlns="http://www.w3.org/2000/svg" xmlns:xlink="http://www.w3.org/1999/xlink" x="0px" y="0px"
	 viewBox="0 0 141.7 141.7" enable-background="new 0 0 141.7 141.7" xml:space="preserve">
<g>
	<circle fill="#F6AF47" cx="70.9" cy="70.9" r="70.9"/>
	<path fill="none" stroke="#FFFFFF" stroke-width="1.7117" stroke-miterlimit="10" d="M95.8,42.2c-6.1,0-11.3,3.5-13.9,8.5
		c5.3,3.6,8.8,9.6,8.8,16.5c0,2.6-1.1,6.4-2.8,10.7c4,7.6,8,14.2,8,14.2s15.6-25.7,15.6-34.4C111.5,49.2,104.5,42.2,95.8,42.2z"/>
	<path fill="none" stroke="#FFFFFF" stroke-width="1.7117" stroke-miterlimit="10" d="M95.8,49.5c-4.2,0-7.6,3.1-8.2,7.1
		c1.4,2.3,2.4,4.8,2.8,7.6c1.5,1.2,3.3,2,5.4,2c4.6,0,8.3-3.7,8.3-8.3C104.2,53.2,100.4,49.5,95.8,49.5z"/>
	<path fill="none" stroke="#FFFFFF" stroke-width="1.7117" stroke-miterlimit="10" d="M45.9,42.2c6.1,0,11.3,3.5,13.9,8.5
		c-5.3,3.6-8.8,9.6-8.8,16.5c0,2.6,1.1,6.4,2.8,10.7c-4,7.6-8,14.2-8,14.2S30.3,66.4,30.3,57.8C30.3,49.2,37.3,42.2,45.9,42.2z"/>
	<path fill="none" stroke="#FFFFFF" stroke-width="1.7117" stroke-miterlimit="10" d="M45.9,49.5c4.2,0,7.6,3.1,8.2,7.1
		c-1.4,2.3-2.4,4.8-2.8,7.6c-1.5,1.2-3.3,2-5.4,2c-4.6,0-8.3-3.7-8.3-8.3C37.6,53.2,41.3,49.5,45.9,49.5z"/>
	<path fill="none" stroke="#FFFFFF" stroke-width="1.7117" stroke-miterlimit="10" d="M90.7,67.2c0,11-19.8,43.7-19.8,43.7
		S51,78.1,51,67.2s8.9-19.8,19.8-19.8S90.7,56.2,90.7,67.2z"/>
	<path fill="none" stroke="#FFFFFF" stroke-width="1.7117" stroke-miterlimit="10" d="M90.7,67.2c0,11-19.8,43.7-19.8,43.7
		S51,78.1,51,67.2s8.9-19.8,19.8-19.8S90.7,56.2,90.7,67.2z"/>
	<circle fill="none" stroke="#FFFFFF" stroke-width="1.7117" stroke-miterlimit="10" cx="70.9" cy="67.2" r="10.6"/>
</g>
</symbol>

</svg>