<?xml version="1.0" encoding="utf-8"?>
<!-- Generator: Adobe Illustrator 17.1.0, SVG Export Plug-In . SVG Version: 6.00 Build 0)  -->
<!DOCTYPE svg PUBLIC "-//W3C//DTD SVG 1.1//EN" "http://www.w3.org/Graphics/SVG/1.1/DTD/svg11.dtd">
<svg version="1.1" id="Layer_1" xmlns="http://www.w3.org/2000/svg" xmlns:xlink="http://www.w3.org/1999/xlink" x="0px" y="0px"
	 viewBox="0 0 141.7 141.7" enable-background="new 0 0 141.7 141.7" xml:space="preserve">
<g>
	<path fill="#F6B047" d="M0,0h141.7v62.2H104v79.6H37.7V62.2H0V0z M6.2,65.1V69h28.5l-0.7-3.9H6.2z M12.1,72v3.4h22.6L34.1,72H12.1z
		 M107.7,65.1l-0.7,3.9h28.4v-3.9H107.7z M107.7,72l-0.7,3.4h22.6V72H107.7z"/>
	<path fill="#FFFFFF" d="M128.8,30.4c-0.9-5.8-4-11-8.7-14.5c-3.6-2.7-7.9-4.1-12.3-4.3l-6.8-0.1H40.6l-6.8,0.1
		c-4.5,0.2-8.7,1.6-12.3,4.3c-4.8,3.5-7.9,8.7-8.7,14.5c-0.7,4.9,0.5,9.7,3.4,13.7c2.9,4,7.2,6.6,12.1,7.3c0.7,0.1,1.5,0.2,2.3,0.2
		c7.6,0,14.2-5.7,15.3-13.2c0.5-3.5-0.3-6.9-2.4-9.7c-2-2.8-4.9-4.4-8.4-5c-3.9-0.6-7.6,1.3-9.7,4.8c-1,1.6-0.8,3.6,0,4.6
		c0.9,1.2,2.4,1.8,3.4,1.8c0.2,0,0.8,0,0.9-0.4c0.3-1.7,2.5-3.6,4.1-3.6c1.5,0,3,0.8,4,2.1c0.9,1.3,1.3,2.8,1.1,4.4
		c-0.6,4-4.1,7.1-8.1,7.1c-0.4,0-0.9,0-1.3-0.1c-3-0.4-5.6-2-7.4-4.4c-1.8-2.4-2.5-5.4-2.1-8.4c0.6-3.9,2.7-7.4,5.9-9.8
		c2.4-1.7,5.1-2.7,8-2.9l0.5,0v0.1H50v111.4h8.6V18l7.9,5.9v106.3h8.6V18l7.9,5.9v106.3h8.6V18.8l16.2,0c2.9,0.2,5.7,1.2,8,2.9
		c3.2,2.4,5.3,5.8,5.9,9.8c0.4,3-0.3,5.9-2.1,8.4c-1.8,2.4-4.4,4-7.4,4.4c-0.4,0.1-0.9,0.1-1.3,0.1c-4,0-7.5-3-8.1-7.1
		c-0.2-1.6,0.1-3.1,1.1-4.4c1-1.3,2.4-2.1,4-2.1c1.6,0,3.8,1.9,4.1,3.6c0.1,0.4,0.7,0.4,0.9,0.4c1,0,2.5-0.6,3.4-1.8
		c0.8-1,0.9-3,0-4.6c-2.1-3.5-5.8-5.4-9.7-4.8c-3.5,0.5-6.4,2.2-8.4,5c-2.1,2.8-2.9,6.3-2.4,9.7c1.1,7.5,7.7,13.2,15.3,13.2
		c0.8,0,1.6-0.1,2.3-0.2c4.9-0.7,9.2-3.3,12.1-7.3C128.4,40.1,129.6,35.3,128.8,30.4z"/>
</g>
</svg>
