<svg style="display: none">
	<symbol version="1.1" id="about-1" xmlns="http://www.w3.org/2000/svg" xmlns:xlink="http://www.w3.org/1999/xlink" x="0px" y="0px"
	 viewBox="0 0 141.7 141.7" enable-background="new 0 0 141.7 141.7" xml:space="preserve">
<g>
	<circle fill="#F6AF47" cx="70.9" cy="70.9" r="70.9"/>
	<g>
		<path fill="none" stroke="#FFFFFF" stroke-width="1.7117" stroke-miterlimit="10" d="M90.3,43.8l-9.9-17.2
			c-1.3-2.3-3.8-3.8-6.5-3.8h-6.1c-2.7,0-5.2,1.4-6.5,3.8L50.9,44.7l13.1,7.5l6.9-12l6.4,11.1l-4.9,2.9l22.9,13.2V40.9L90.3,43.8z"
			/>
		<path fill="none" stroke="#FFFFFF" stroke-width="1.7117" stroke-miterlimit="10" d="M70.9,39.9l-7.7-13.3c0,0-0.4-0.8-1.1-0.8
			l-0.3,0"/>
	</g>
	<g>
		<path fill="none" stroke="#FFFFFF" stroke-width="1.7117" stroke-miterlimit="10" d="M37.7,67.6l-9.9,17.2c-1.3,2.3-1.3,5.2,0,7.5
			l3,5.2c1.3,2.3,3.8,3.8,6.5,3.8l20.9,0l0-15.1l-13.9,0l6.4-11.1l4.9,2.9l0-26.5L32.7,64.7L37.7,67.6z"/>
		<path fill="none" stroke="#FFFFFF" stroke-width="1.7117" stroke-miterlimit="10" d="M44,86.4l-7.7,13.3c0,0-0.4,0.8-0.1,1.4
			l0.2,0.3"/>
	</g>
	<g>
		<path fill="none" stroke="#FFFFFF" stroke-width="1.7117" stroke-miterlimit="10" d="M84.6,101.3l19.8,0c2.7,0,5.2-1.4,6.5-3.8
			l3-5.2c1.3-2.3,1.3-5.2,0-7.5l-10.4-18.1l-13.1,7.5l6.9,12l-12.8,0l0-5.7L61.7,93.7L84.6,107L84.6,101.3z"/>
		<path fill="none" stroke="#FFFFFF" stroke-width="1.7117" stroke-miterlimit="10" d="M97.7,86.4l15.3,0c0,0,0.9,0,1.2-0.6l0.2-0.3
			"/>
	</g>
</g>
</symbol>

	<!-- id="about-2"-->

<symbol version="1.1" id="about-3" xmlns="http://www.w3.org/2000/svg" xmlns:xlink="http://www.w3.org/1999/xlink" x="0px" y="0px"
	 viewBox="0 0 141.7 141.7" enable-background="new 0 0 141.7 141.7" xml:space="preserve">
<g>
	<circle fill="#F6AF47" cx="70.9" cy="70.9" r="70.9"/>

		<rect x="30.4" y="64.7" fill="none" stroke="#FFFFFF" stroke-width="2.8346" stroke-linejoin="round" stroke-miterlimit="10" width="81" height="27.5"/>
	<polygon fill="none" stroke="#FFFFFF" stroke-width="2.8346" stroke-miterlimit="10" points="84.7,47.9 86.7,35.4 93,35.4
		94.8,54.2 	"/>
	<polyline fill="none" stroke="#FFFFFF" stroke-width="2.8346" stroke-miterlimit="10" points="90.5,35.4 91.8,23.9 97.3,23.9
		102,58.8 	"/>
	<rect x="41.2" y="74" fill="none" stroke="#FFFFFF" stroke-width="2.8346" stroke-miterlimit="10" width="12.7" height="5.4"/>
	<rect x="64.5" y="74" fill="none" stroke="#FFFFFF" stroke-width="2.8346" stroke-miterlimit="10" width="12.7" height="5.4"/>
	<rect x="87.8" y="74" fill="none" stroke="#FFFFFF" stroke-width="2.8346" stroke-miterlimit="10" width="12.7" height="5.4"/>
	<polygon fill="none" stroke="#FFFFFF" stroke-width="2.8346" stroke-miterlimit="10" points="70.9,39.2 30.4,64.7 111.4,64.7 	"/>
</g>
</symbol>
<symbol version="1.1" id="about-4" xmlns="http://www.w3.org/2000/svg" xmlns:xlink="http://www.w3.org/1999/xlink" x="0px" y="0px"
	 viewBox="0 0 141.7 141.7" enable-background="new 0 0 141.7 141.7" xml:space="preserve">
<circle fill="#F6AF47" cx="70.9" cy="70.9" r="70.9"/>
<g>
	<ellipse fill="none" stroke="#FFFFFF" stroke-width="1.7117" stroke-miterlimit="10" cx="89.1" cy="89.8" rx="15.2" ry="3.8"/>
	<path fill="none" stroke="#FFFFFF" stroke-width="1.7117" stroke-miterlimit="10" d="M104.3,89.8c0,2.1-6.8,3.8-15.2,3.8
		s-15.2-1.7-15.2-3.8v6c0,2.1,6.8,3.8,15.2,3.8s15.2-1.7,15.2-3.8V89.8z"/>
</g>
<g>
	<ellipse fill="none" stroke="#FFFFFF" stroke-width="1.7117" stroke-miterlimit="10" cx="52.6" cy="58.9" rx="15.2" ry="3.8"/>
	<path fill="none" stroke="#FFFFFF" stroke-width="1.7117" stroke-miterlimit="10" d="M67.8,58.9c0,2.1-6.8,3.8-15.2,3.8
		S37.5,61,37.5,58.9v6c0,2.1,6.8,3.8,15.2,3.8s15.2-1.7,15.2-3.8V58.9z"/>
	<path fill="none" stroke="#FFFFFF" stroke-width="1.7117" stroke-miterlimit="10" d="M67.8,64.9c0,2.1-6.8,3.8-15.2,3.8
		S37.5,67,37.5,64.9v6c0,2.1,6.8,3.8,15.2,3.8s15.2-1.7,15.2-3.8V64.9z"/>
	<path fill="none" stroke="#FFFFFF" stroke-width="1.7117" stroke-miterlimit="10" d="M67.8,70.8c0,2.1-6.8,3.8-15.2,3.8
		s-15.2-1.7-15.2-3.8v6c0,2.1,6.8,3.8,15.2,3.8s15.2-1.7,15.2-3.8V70.8z"/>
	<path fill="none" stroke="#FFFFFF" stroke-width="1.7117" stroke-miterlimit="10" d="M67.8,76.8c0,2.1-6.8,3.8-15.2,3.8
		s-15.2-1.7-15.2-3.8v6c0,2.1,6.8,3.8,15.2,3.8s15.2-1.7,15.2-3.8V76.8z"/>
	<path fill="none" stroke="#FFFFFF" stroke-width="1.7117" stroke-miterlimit="10" d="M67.8,82.8c0,2.1-6.8,3.8-15.2,3.8
		s-15.2-1.7-15.2-3.8v6c0,2.1,6.8,3.8,15.2,3.8s15.2-1.7,15.2-3.8V82.8z"/>
	<path fill="none" stroke="#FFFFFF" stroke-width="1.7117" stroke-miterlimit="10" d="M67.8,88.7c0,2.1-6.8,3.8-15.2,3.8
		s-15.2-1.7-15.2-3.8v6c0,2.1,6.8,3.8,15.2,3.8s15.2-1.7,15.2-3.8V88.7z"/>
</g>
<g>
	<path fill="none" stroke="#FFFFFF" stroke-width="1.7117" stroke-miterlimit="10" d="M73.9,68.7c-2.2,0-4.2-0.1-6.1-0.3v2.5v3.5
		c1.9,0.2,3.9,0.3,6.1,0.3c8.4,0,15.2-1.7,15.2-3.8v-6C89.1,67,82.3,68.7,73.9,68.7z"/>
	<path fill="none" stroke="#FFFFFF" stroke-width="1.7117" stroke-miterlimit="10" d="M73.9,74.6c-2.2,0-4.2-0.1-6.1-0.3v2.5v3.5
		c1.9,0.2,3.9,0.3,6.1,0.3c8.4,0,15.2-1.7,15.2-3.8v-6C89.1,72.9,82.3,74.6,73.9,74.6z"/>
	<ellipse fill="none" stroke="#FFFFFF" stroke-width="1.7117" stroke-miterlimit="10" cx="73.9" cy="41.1" rx="15.2" ry="3.8"/>
	<path fill="none" stroke="#FFFFFF" stroke-width="1.7117" stroke-miterlimit="10" d="M73.9,44.9c-8.4,0-15.2-1.7-15.2-3.8v6
		c0,2.1,6.8,3.8,15.2,3.8s15.2-1.7,15.2-3.8v-6C89.1,43.2,82.3,44.9,73.9,44.9z"/>
	<path fill="none" stroke="#FFFFFF" stroke-width="1.7117" stroke-miterlimit="10" d="M73.9,62.7c-2.2,0-4.2-0.1-6.1-0.3v2.5v3.5
		c1.9,0.2,3.9,0.3,6.1,0.3c8.4,0,15.2-1.7,15.2-3.8v-6C89.1,61,82.3,62.7,73.9,62.7z"/>
	<path fill="none" stroke="#FFFFFF" stroke-width="1.7117" stroke-miterlimit="10" d="M73.9,50.8c-8.4,0-15.2-1.7-15.2-3.8v6
		c0,2.1,6.8,3.8,15.2,3.8s15.2-1.7,15.2-3.8v-6C89.1,49.1,82.3,50.8,73.9,50.8z"/>
	<path fill="none" stroke="#FFFFFF" stroke-width="1.7117" stroke-miterlimit="10" d="M73.9,56.8c-8.4,0-15.2-1.7-15.2-3.8v2.5
		c5.4,0.6,9.1,1.9,9.1,3.5v3.5c1.9,0.2,3.9,0.3,6.1,0.3c8.4,0,15.2-1.7,15.2-3.8v-6C89.1,55.1,82.3,56.8,73.9,56.8z"/>
</g>
</symbol>
<symbol version="1.1" id="about-5" xmlns="http://www.w3.org/2000/svg" xmlns:xlink="http://www.w3.org/1999/xlink" x="0px" y="0px"
	 viewBox="0 0 141.7 141.7" enable-background="new 0 0 141.7 141.7" xml:space="preserve">
<g>
	<circle fill="#F6AF47" cx="70.9" cy="70.9" r="70.9"/>
	<path fill="none" stroke="#FFFFFF" stroke-width="1.7117" stroke-miterlimit="10" d="M95.8,42.2c-6.1,0-11.3,3.5-13.9,8.5
		c5.3,3.6,8.8,9.6,8.8,16.5c0,2.6-1.1,6.4-2.8,10.7c4,7.6,8,14.2,8,14.2s15.6-25.7,15.6-34.4C111.5,49.2,104.5,42.2,95.8,42.2z"/>
	<path fill="none" stroke="#FFFFFF" stroke-width="1.7117" stroke-miterlimit="10" d="M95.8,49.5c-4.2,0-7.6,3.1-8.2,7.1
		c1.4,2.3,2.4,4.8,2.8,7.6c1.5,1.2,3.3,2,5.4,2c4.6,0,8.3-3.7,8.3-8.3C104.2,53.2,100.4,49.5,95.8,49.5z"/>
	<path fill="none" stroke="#FFFFFF" stroke-width="1.7117" stroke-miterlimit="10" d="M45.9,42.2c6.1,0,11.3,3.5,13.9,8.5
		c-5.3,3.6-8.8,9.6-8.8,16.5c0,2.6,1.1,6.4,2.8,10.7c-4,7.6-8,14.2-8,14.2S30.3,66.4,30.3,57.8C30.3,49.2,37.3,42.2,45.9,42.2z"/>
	<path fill="none" stroke="#FFFFFF" stroke-width="1.7117" stroke-miterlimit="10" d="M45.9,49.5c4.2,0,7.6,3.1,8.2,7.1
		c-1.4,2.3-2.4,4.8-2.8,7.6c-1.5,1.2-3.3,2-5.4,2c-4.6,0-8.3-3.7-8.3-8.3C37.6,53.2,41.3,49.5,45.9,49.5z"/>
	<path fill="none" stroke="#FFFFFF" stroke-width="1.7117" stroke-miterlimit="10" d="M90.7,67.2c0,11-19.8,43.7-19.8,43.7
		S51,78.1,51,67.2s8.9-19.8,19.8-19.8S90.7,56.2,90.7,67.2z"/>
	<path fill="none" stroke="#FFFFFF" stroke-width="1.7117" stroke-miterlimit="10" d="M90.7,67.2c0,11-19.8,43.7-19.8,43.7
		S51,78.1,51,67.2s8.9-19.8,19.8-19.8S90.7,56.2,90.7,67.2z"/>
	<circle fill="none" stroke="#FFFFFF" stroke-width="1.7117" stroke-miterlimit="10" cx="70.9" cy="67.2" r="10.6"/>
</g>
</symbol>

<symbol version="1.1" id="presentation-down" xmlns="http://www.w3.org/2000/svg" xmlns:xlink="http://www.w3.org/1999/xlink" x="0px" y="0px"
	 viewBox="0 0 141.7 141.7" enable-background="new 0 0 141.7 141.7" xml:space="preserve">
<g>
	<g>
			<polygon fill="none" stroke="#FFFFFF" stroke-width="2.8349" stroke-linecap="round" stroke-linejoin="round" stroke-miterlimit="10" points="
			94.2,100.7 47.6,100.7 47.6,41 80.8,41 94.2,54.4 		"/>

			<polyline fill="none" stroke="#FFFFFF" stroke-width="2.8349" stroke-linecap="round" stroke-linejoin="round" stroke-miterlimit="10" points="
			80.8,41 80.8,54.4 94.2,54.4 		"/>

			<polygon fill="none" stroke="#FFFFFF" stroke-width="2.8349" stroke-linecap="round" stroke-linejoin="round" stroke-miterlimit="10" points="
			77,71.5 77,61.9 64.7,61.9 64.7,71.5 56.3,71.5 70.9,86 85.4,71.5 		"/>
	</g>
</g>
</symbol>
<symbol version="1.1" id="file" xmlns="http://www.w3.org/2000/svg" xmlns:xlink="http://www.w3.org/1999/xlink" x="0px" y="0px"
	 viewBox="0 0 141.7 141.7" enable-background="new 0 0 141.7 141.7" xml:space="preserve">
<circle fill="none" cx="70.9" cy="70.9" r="70.9"/>
<polygon fill="none" stroke="#AEAFB2" stroke-width="1.7008" stroke-miterlimit="10" points="94.2,100.7 47.6,100.7 47.6,41
	80.8,41 94.2,54.4 "/>
<polyline fill="none" stroke="#AEAFB2" stroke-width="1.4173" stroke-miterlimit="10" points="80.8,41 80.8,54.4 94.2,54.4 "/>
<g>
	<g>
		<polyline fill="none" stroke="#AEAFB2" stroke-width="1.7008" stroke-miterlimit="10" points="62.2,60.1 58.7,63.5 56.1,60.9
			"/>
	</g>
	<line fill="none" stroke="#AEAFB2" stroke-width="1.7008" stroke-miterlimit="10" x1="68.5" y1="59.5" x2="88.1" y2="59.5"/>
	<line fill="none" stroke="#AEAFB2" stroke-width="1.7008" stroke-miterlimit="10" x1="68.5" y1="63.8" x2="88.1" y2="63.8"/>
	<rect x="54.4" y="57.5" fill="none" stroke="#AEAFB2" stroke-width="1.7008" stroke-miterlimit="10" width="9.4" height="9.4"/>
</g>
<g>
	<g>
		<polyline fill="none" stroke="#AEAFB2" stroke-width="1.7008" stroke-miterlimit="10" points="62.2,73.8 58.7,77.2 56.1,74.5
			"/>
	</g>
	<line fill="none" stroke="#AEAFB2" stroke-width="1.7008" stroke-miterlimit="10" x1="68.5" y1="73.2" x2="88.1" y2="73.2"/>
	<line fill="none" stroke="#AEAFB2" stroke-width="1.7008" stroke-miterlimit="10" x1="68.5" y1="77.5" x2="88.1" y2="77.5"/>
	<rect x="54.4" y="71.1" fill="none" stroke="#AEAFB2" stroke-width="1.7008" stroke-miterlimit="10" width="9.4" height="9.4"/>
</g>
<g>
	<g>
		<polyline fill="none" stroke="#AEAFB2" stroke-width="1.7008" stroke-miterlimit="10" points="62.2,87.4 58.7,90.9 56.1,88.2
			"/>
	</g>
	<line fill="none" stroke="#AEAFB2" stroke-width="1.7008" stroke-miterlimit="10" x1="68.5" y1="86.8" x2="88.1" y2="86.8"/>
	<line fill="none" stroke="#AEAFB2" stroke-width="1.7008" stroke-miterlimit="10" x1="68.5" y1="91.1" x2="88.1" y2="91.1"/>
	<rect x="54.4" y="84.8" fill="none" stroke="#AEAFB2" stroke-width="1.7008" stroke-miterlimit="10" width="9.4" height="9.4"/>
</g>
</symbol>
	<symbol version="1.1" id="house" xmlns="http://www.w3.org/2000/svg" xmlns:xlink="http://www.w3.org/1999/xlink" x="0px" y="0px"
	 viewBox="0 0 141.7 141.7" enable-background="new 0 0 141.7 141.7" xml:space="preserve">
<g>
	<circle fill="none" cx="70.9" cy="70.9" r="70.9"/>
	<polyline fill="none" stroke="#AEAFB2" stroke-width="2.8346" stroke-miterlimit="10" points="111.4,64.7 111.4,92.3 30.4,92.3
		30.4,64.7 	"/>
	<polygon fill="none" stroke="#AEAFB2" stroke-width="2.8346" stroke-miterlimit="10" points="84.7,47.9 86.7,35.4 93,35.4
		94.8,54.2 	"/>
	<polyline fill="none" stroke="#AEAFB2" stroke-width="2.8346" stroke-miterlimit="10" points="90.5,35.4 91.8,23.9 97.3,23.9
		102,58.8 	"/>
	<rect x="41.2" y="74" fill="none" stroke="#AEAFB2" stroke-width="2.8346" stroke-miterlimit="10" width="12.7" height="5.4"/>
	<rect x="64.5" y="74" fill="none" stroke="#AEAFB2" stroke-width="2.8346" stroke-miterlimit="10" width="12.7" height="5.4"/>
	<rect x="87.8" y="74" fill="none" stroke="#AEAFB2" stroke-width="2.8346" stroke-miterlimit="10" width="12.7" height="5.4"/>
	<polygon fill="none" stroke="#AEAFB2" stroke-width="2.8346" stroke-miterlimit="10" points="70.9,39.2 30.4,64.7 111.4,64.7 	"/>
</g>
</symbol>
	<symbol version="1.1" id="compass" xmlns="http://www.w3.org/2000/svg" xmlns:xlink="http://www.w3.org/1999/xlink" x="0px" y="0px"
	 viewBox="0 0 141.7 141.7" enable-background="new 0 0 141.7 141.7" xml:space="preserve">
<circle fill="none" cx="70.9" cy="70.9" r="70.9"/>
<g>
	<path fill="none" stroke="#ADAEB1" stroke-width="2.8346" stroke-miterlimit="10" d="M74.2,39.1c0,1.4-1.1,2.5-2.5,2.5H70
		c-1.4,0-2.5-1.1-2.5-2.5v-7.5c0-1.4,1.1-2.5,2.5-2.5h1.7c1.4,0,2.5,1.1,2.5,2.5V39.1z"/>
	<path fill="none" stroke="#ADAEB1" stroke-width="2.8346" stroke-miterlimit="10" d="M72.8,58.9l0.8-0.5c1.4-1,2.2-2.5,2.2-4.2
		c0-2.8-2.3-5-5-5s-5,2.3-5,5c0,1.7,0.9,3.3,2.2,4.2l0.8,0.5l-20.4,46.8l-2.2-11.1l15.2-34c-1.3-1.9-2-4.1-2-6.4
		c0-6.2,5.1-11.4,11.4-11.4c6.2,0,11.4,5.1,11.4,11.4c0,2.3-0.7,4.5-2,6.4l15.2,34l-2.2,11.1L72.8,58.9z"/>
	<g>
		<path fill="none" stroke="#ADAEB1" stroke-width="2.8346" stroke-miterlimit="10" d="M87.3,76.4c1.8-1.1,3.4-2.5,4.9-4
			c1.2-1.2,1.2-3.3,0-4.6c-1.2-1.2-3.3-1.2-4.6,0c-1,1-1.9,1.8-3,2.5L87.3,76.4z"/>
		<path fill="none" stroke="#ADAEB1" stroke-width="2.8346" stroke-miterlimit="10" d="M54.5,76.4l2.7-6c-1.1-0.8-2.1-1.6-3-2.5
			c-1.2-1.2-3.3-1.2-4.6,0c-1.2,1.2-1.2,3.3,0,4.6C51,73.9,52.7,75.2,54.5,76.4z"/>
		<path fill="none" stroke="#ADAEB1" stroke-width="2.8346" stroke-miterlimit="10" d="M79.2,73.2c-5.4,1.9-11.2,1.9-16.5,0l-2.5,6
			c3.5,1.3,7.2,2,10.8,2c3.7,0,7.4-0.7,10.8-2L79.2,73.2z"/>
	</g>
</g>
</symbol>
<symbol version="1.1" id="instruments" xmlns="http://www.w3.org/2000/svg" xmlns:xlink="http://www.w3.org/1999/xlink" x="0px" y="0px"
	 viewBox="0 0 141.7 141.7" enable-background="new 0 0 141.7 141.7" xml:space="preserve">
<circle fill="none" cx="70.9" cy="70.9" r="70.9"/>
<g>
	<g>
		<path fill="none" stroke="#AEAFB2" stroke-width="2.8346" stroke-miterlimit="10" d="M46.8,101.7c-2.4,2.4-6.3,2.4-8.7,0l0,0
			c-2.4-2.4-2.4-6.3,0-8.7l18-18l8.7,8.7L46.8,101.7z"/>
		<path fill="none" stroke="#AEAFB2" stroke-width="2.8346" stroke-miterlimit="10" d="M84.4,61L63.2,82.2l-5.7-5.7l21.2-21.2
			l8.3-8.2c0-0.1-0.1-0.1-0.1-0.2c-0.3-0.3-0.6-0.6-1-0.9c-3.5-2.8-7.5-3.9-11.9-3.5c-0.1,0-0.3,0-0.4-0.1c-0.6-0.6-1.2-1.1-1.8-1.7
			c0.2-0.1,0.3-0.2,0.4-0.2c5.8-3.5,13.4-2.9,18.5,1.5c2.2,2,4.3,4.2,6.4,6.3c0.2,0.2,0.3,0.4,0.2,0.7c-0.8,3.2,2.1,6,5.2,5.2
			c0.3-0.1,0.5,0,0.7,0.2c1.5,1.5,2.9,2.9,4.4,4.4c0.1,0.1,0.2,0.2,0.3,0.3c-3,3-5.9,5.9-8.9,8.9c-1.6-1.6-3.2-3.3-4.9-4.9
			c-0.1-0.1-0.1-0.3,0-0.5c0.4-1.8-0.2-3.6-1.6-4.6c-1.7-1.2-4-1-5.6,0.5L84.4,61z"/>
	</g>
	<path fill="none" stroke="#AEAFB2" stroke-width="2.8346" stroke-miterlimit="10" d="M101.1,93c2.4,2.4,2.4,6.3,0,8.7l0,0
		c-2.4,2.4-6.3,2.4-8.7,0l-18-18l8.7-8.7L101.1,93z"/>
	<path fill="none" stroke="#AEAFB2" stroke-width="2.8346" stroke-miterlimit="10" d="M45.8,41.3c-0.1-0.1-0.1-0.1-0.2-0.1
		c-0.8,0.8-1.7,1.7-2.5,2.5c-0.8,0.8-1.7,1.7-2.5,2.5c0,0.1,0.1,0.1,0.1,0.2c2.9,3.2,5.8,6.3,8.7,9.5c0.2,0.2,0.4,0.3,0.7,0.4
		c0.9,0.2,1.7,0.3,2.6,0.4c0.5,0.1,0.8,0.2,1.2,0.6c7.3,7.3,11.5,11.5,11.5,11.5l2.8-2.8c0,0-4.1-4.1-11.5-11.5
		c-0.4-0.4-0.5-0.7-0.6-1.2c-0.1-0.9-0.2-1.8-0.4-2.6c0-0.2-0.2-0.5-0.4-0.7C52.2,47.1,49,44.2,45.8,41.3z"/>

		<rect x="73.8" y="71.7" transform="matrix(0.7071 -0.7071 0.7071 0.7071 -31.7265 75.7586)" fill="none" stroke="#AEAFB2" stroke-width="2.8346" stroke-miterlimit="10" width="3.6" height="9"/>
</g>
</symbol>
	<symbol version="1.1" id="beton" xmlns="http://www.w3.org/2000/svg" xmlns:xlink="http://www.w3.org/1999/xlink" x="0px" y="0px"
	 viewBox="0 0 141.7 141.7" enable-background="new 0 0 141.7 141.7" xml:space="preserve">
<circle fill="none" cx="70.9" cy="70.9" r="70.9"/>
<g>
	<path fill="none" stroke="#AEAFB2" stroke-width="2.8346" stroke-miterlimit="10" d="M37.2,83.4c0,2.3-3.1,3-6.3,4.2
		c-3.7,1.4-8.1,0.8-9-0.6c0-3.6,6.1-5.2,9.6-5.2S37.2,81.1,37.2,83.4z"/>
	<path fill="none" stroke="#AEAFB2" stroke-width="2.8346" stroke-miterlimit="10" d="M105.8,88.2c0,3.9-4.2,4.7-10,4.7
		c-1.6,0-7.9,1.6-9.9,1.4c-5.5-0.5-7-3.1-6.3-3.9c2.6-2.8,10.5-9.3,16.5-9.3C101.9,80.9,105.8,84.3,105.8,88.2z"/>
	<path fill="none" stroke="#AEAFB2" stroke-width="2.8346" stroke-miterlimit="10" d="M52,94.9c0,4.6,4.2,5.6,10,5.6
		c1.6,0,7.9,1.9,9.9,1.7c5.5-0.6,7-3.7,6.3-4.7c-2.6-3.3-10.5-11-16.5-11.1C55.9,86.3,52,90.3,52,94.9z"/>
	<path fill="none" stroke="#AEAFB2" stroke-width="2.8346" stroke-miterlimit="10" d="M56.9,69.2c7.2-7.9,16.8-15.9,22.4-18
		c11.4-4.2,23.9-3,27.3-3c8.2,0-6.2,16.2-5.5,23c0.3,2.9-1.4,6.5-4.3,9.7"/>
	<path fill="none" stroke="#AEAFB2" stroke-width="2.8346" stroke-miterlimit="10" d="M115,82.7c-1.3,2.2-5.4,2.5-8.5,2.1
		s-2.7-2.3-2.3-4.9c0.3-2.6,10.9-4.1,11.8-3.7C118.8,77.4,115.7,81.6,115,82.7z"/>
	<path fill="none" stroke="#AEAFB2" stroke-width="2.8346" stroke-miterlimit="10" d="M80.5,87.9c0,1.8-3.7,3.9-5.8,3.6
		c-4.8-0.6-3.7-3-3.7-4.8c0-1.8,1.6-2.4,3.7-2.4C76.8,84.4,80.5,86.1,80.5,87.9z"/>
	<g>
		<path fill="#AEAFB2" d="M59.9,34.9c-1.2,1.1-2.4,2.2-3.7,3.3c-1.3,1.1-2.8,2.2-4.1,3.3c-0.7,0.6-1,1.5-0.8,2.5
			c0.1,0,0.3,0,0.3-0.1c1.6-1.6,3.6-2.4,5.6-3.4c0.5-0.3,0.9-0.9,1.2-1.4c0.3-0.4,0.5-1,0.8-1.4c1.4-1.8,3-3.4,3.9-5.5
			c0.2-0.6,0.7-1,1.3-1.4c-1.8,2.8-3.5,5.6-5.4,8.6c1.4-0.1,2.6-0.4,3.7-1.3c1.8-1.4,2.4-3.6,3.5-5.4c0.9-1.5,1.9-3,2.9-4.5
			c0.1,0.1,0.2,0.2,0.4,0.2c-0.5,0.7-1.1,1.3-1.5,2c-1,1.7-1.7,3.5-2.7,5.1c-1.2,1.9-2.7,3.6-5.1,4.4c-4.6,1.5-8.4,4-10.3,8.6
			c-0.2,0.6-0.4,1.2-0.5,1.9c-0.1,2.3-0.3,4.6-0.3,6.9c0,0.7,0.4,1.4,0.6,2.2c1.4-0.6,2.1-1.6,2.1-2.8c0-0.6-0.3-1.3-0.1-1.9
			c0.1-0.8,0.4-1.6,0.9-2.2c0.8-0.9,1.8-1.5,2.1-2.7c0.2-0.6,0.8-1.1,1.3-1.8c-0.4,1-0.8,1.8-1.2,2.7c1.5-0.5,2-0.9,3.2-2.9
			c-0.1,1.2-0.7,2-2.1,2.9c-1,0.7-1.9,1.4-2.8,2.2c-0.9,0.9-0.9,1.5-0.3,2.1c1.3,1.1,2.1,1.2,2.9,0.2c2.1-2.9,4.2-5.8,6.2-8.8
			c0.5-0.7,0.3-1.7,0.6-2.6c0.2-0.6,0.5-1.2,0.7-1.8l0,0c-0.1,0.4-0.3,0.8-0.4,1.2c0.1,0.1,0.2,0.1,0.4,0.2c0.9-1,1.7-2,2.6-3
			c0.1,0,0.1,0.1,0.2,0.1c-0.8,1.1-1.6,2.1-2.4,3.2c-0.3,0.4-0.6,0.8-0.8,1.3c-0.5,1.3-0.9,2.7-1.3,4.1c0.8-1.2,1.7-2.3,2.7-3.7
			c-0.6,1.3-1.1,2.4-1.6,3.5c-0.1,0.1-0.2,0.3-0.4,0.4c-1.6,0.8-2.5,2.1-3.4,3.5c-0.6,0.9-1.2,1.7-1.8,2.5c-0.1,0.2-0.2,0.5-0.3,0.8
			c2.5-0.2,6.1-2.8,7-4.7c0.5-0.4,1.1-0.7,1.5-1.1c1-1.2,1.9-2.4,2.9-3.6c-0.1,0.3-0.2,0.6-0.4,0.8c-2.4,3.5-5,6.7-8.7,8.9
			c-1.1,0.7-2.3,1.1-3.7,1c-1.6-0.1-2.8,0.5-3.6,2c-1.1,2-1.7,4-1.2,6.3c0.4,2.1,0.5,4.6,1.3,6.4l-4,1.9c0-1.4-0.2-2.8-0.7-3.9
			c-0.3-0.8-1.1-1.4-1.8-1.9c-2.2-1.7-4.4-3.4-6.7-5.1c-0.4-0.3-0.8-0.6-1.2-0.9c-1.3-1-1.3-1-1.2-2.8c0.2,0.5,0.3,1.1,0.6,1.5
			c0.3,0.4,0.8,0.7,1.3,0.9c-0.1-0.4-0.3-0.8-0.4-1.3c-0.1-0.3-0.2-0.7-0.2-1.1c-0.1-0.8-0.1-1.6-0.1-2.3c0.4,0.4,0.8,1,0.8,2.1
			c-0.1,2,0.6,3.7,2.8,4.6c0.4-1.5,0.5-3-0.1-4.4c-1.2-2.9-1.5-5.9-1.7-9c-0.1-0.9,0.2-1.8,0.5-2.6c0.9-2,1.1-3.9,0-5.9
			c-0.2-0.4-0.2-0.8-0.2-1.3c0.6,1.2,1.1,2.4,1.7,3.6c2.1-1.2,0.7-3,0.9-4.5c0.2,0.7,0.6,1.5,0.6,2.2c0,0.7,0,1.6-0.4,2
			c-1.6,1.5-1.9,3.6-2.1,5.6c-0.2,1.9,0.2,3.9,0.3,6c1.5-1.5,2.2-3,1.6-5c0.3,1.5,1.2,3.1-0.4,4.5c-0.6,0.6-0.8,1.3-0.6,2.3
			c0.6,2,1,4.1,1.5,6.2c0,0.1,0.1,0.3,0.2,0.4c1.4,1.3,2.6,3,5,3.2c-0.2-0.7-0.2-1.3-0.4-1.9c-0.6-1.5-0.6-3.1-0.4-4.7
			c0.3-2.1,0.1-4-0.9-5.9c-1.4-2.7-1.8-5.8-2.4-8.7c-0.1-0.6,0.2-1.4,0.5-2c0.4-0.9,1-1.7,1.4-2.5c0.1-0.3,0.1-0.7,0-1.1
			c-0.1-0.6-0.2-1.3-0.4-1.9c0.1,0,0.2,0,0.3,0c0.1,0.6,0.2,1.2,0.3,1.8c0.1,0,0.2,0,0.3,0.1c0.2-0.6,0.5-1.3,0.8-2.2
			c0.1,1.5-0.3,2.6-0.9,3.6c-0.8,1.5-1.9,2.8-1.8,4.6c0.1,0.7,0.3,1.4,0.5,2.1c0.1,0,0.3,0,0.4,0.1c0.6-1.3,1.3-2.6,1.9-3.9
			c0.3-0.7,0.5-1.6,1-2.3c0.5-0.8,0.9-1.4,0.3-2.3c-0.1-0.2-0.1-0.5,0.1-0.9c0.2,0.4,0.4,0.8,0.7,1.5c1.1-1.1,2-2,2.9-2.9
			c0.1,0,0.1,0.1,0.2,0.1c-0.6,0.8-1.1,1.7-1.9,2.3c-1.6,1.2-1.9,3-2.6,4.7c-0.4,1-0.8,2-1.2,3c-0.2,0.7-0.6,1.5-0.5,2.2
			c0.1,1.6,0.5,3.1,0.8,4.7c0.1,0,0.3,0,0.4,0c0.2-0.4,0.4-0.9,0.5-1.3c1-3.5,1.9-6.9,2.9-10.4c0.3-1.2,0.7-2.1,1.9-2.8
			c0.9-0.5,1.5-1.5,2.1-2.4c1-1.6,2-3.3,2.9-4.9c0.2-0.3,0.3-0.7,0.2-1c-1.2-2.7-1.1-5.2,0.4-7.7c0.2-0.3,0.2-0.6,0.5-0.8
			c-0.5,1.5-1,2.9-1.5,4.4c0.1,0.1,0.2,0.1,0.3,0.2c1.1-1.5,2.2-3,3.2-4.4c0.1,0.1,0.2,0.1,0.2,0.2c-0.9,1.4-1.8,2.9-2.9,4.2
			c-0.6,0.7-0.8,1.3-0.5,2.2c0.2,0.5,0.3,1,0.5,1.7c2.8-2.8,4.7-6,5.6-9.7c-0.8,2.1-0.8,4.4-2.3,6.3c-2,2.6-3.7,5.4-5.5,8.1
			c-0.2,0.3-0.3,0.5-0.4,0.8c0.1,0.1,0.1,0.2,0.2,0.3c0.9-0.4,1.7-0.8,2.5-1.3c0.6-0.4,1.2-0.9,1.8-1.4
			C59.9,34.8,59.9,34.9,59.9,34.9z"/>
	</g>
	<g>
		<path fill="#AEAFB2" d="M76.2,64.8c0,1,0.1,2,0.1,3c0.1,1.1,0.2,2.2,0.3,3.2c0,0.6-0.2,1.1-0.7,1.4c0-0.1-0.1-0.1-0.1-0.2
			c0-1.4-0.5-2.7-0.9-3.9c-0.1-0.3,0-0.8,0.1-1.1c0-0.3,0.2-0.6,0.2-1c0.2-1.4,0.2-2.8,0.8-4.1c0.1-0.3,0.1-0.8,0.1-1.1
			c-0.5,2-1,4-1.5,6.1c-0.6-0.7-0.9-1.3-1-2.2c-0.1-1.4,0.6-2.6,0.9-3.9c0.3-1.1,0.5-2.2,0.8-3.2c-0.1,0-0.2,0-0.3-0.1
			c-0.1,0.5-0.1,1.1-0.2,1.5c-0.3,1.1-0.8,2.3-1.1,3.4c-0.3,1.4-0.4,2.8,0.3,4.1c1.3,2.7,1.9,5.4,0.6,8.3c-0.2,0.4-0.4,0.7-0.6,1
			c-1,1.1-1.9,2.1-2.9,3.1c-0.3,0.3-0.8,0.4-1.2,0.7c-0.4-0.9-0.2-1.6,0.3-2.1c0.3-0.3,0.7-0.5,0.9-0.8c0.3-0.4,0.6-0.9,0.6-1.3
			c0.1-0.7-0.1-1.4,0.3-2.1c0.2-0.3,0.1-0.8,0.2-1.3c-0.3,0.6-0.5,1.1-0.7,1.7c-0.4-0.8-0.4-1.3-0.1-2.7c-0.5,0.6-0.5,1.2-0.4,2.2
			c0.1,0.7,0.2,1.5,0.2,2.2c0,0.8-0.3,1.1-0.8,1c-1-0.1-1.5-0.4-1.3-1.2c0.4-2.2,0.8-4.4,1.2-6.5c0.1-0.5,0.6-0.9,0.9-1.4
			c0.2-0.3,0.3-0.7,0.5-1.1l0,0c-0.1,0.2-0.2,0.5-0.3,0.7c-0.1,0-0.2,0-0.2-0.1c0.1-0.8,0.2-1.6,0.2-2.5c0,0-0.1,0-0.1,0
			c-0.1,0.8-0.2,1.6-0.4,2.4c0,0.3-0.1,0.6-0.2,0.9c-0.4,0.8-0.8,1.5-1.2,2.3c0.1-0.9,0.3-1.8,0.5-2.8c-0.3,0.8-0.6,1.5-0.9,2.2
			c0,0.1,0,0.2,0,0.3c0.3,1,0.2,2-0.1,3c-0.1,0.6-0.2,1.3-0.3,1.9c0,0.2-0.1,0.3-0.2,0.5c-1-1.2-1.4-3.9-0.9-5.2
			c-0.1-0.4-0.2-0.8-0.1-1.1c0.1-0.9,0.3-1.9,0.3-2.9c-0.1,0.2-0.2,0.3-0.2,0.5c-0.5,2.6-0.8,5.1-0.2,7.7c0.2,0.8,0.5,1.5,1.2,2
			c0.7,0.6,1,1.4,0.7,2.5c-0.4,1.3-1,2.5-2.2,3.3c-1.1,0.7-2.3,1.8-3.4,2.2l0.9,2.6c0.7-0.6,1.3-1.1,2-1.4c0.5-0.2,1.1-0.1,1.6,0
			c1.7,0.2,3.4,0.5,5.1,0.8c0.3,0,0.6,0.1,0.9,0.1c1,0.2,1,0.1,1.8-0.7c-0.3,0.1-0.6,0.3-0.9,0.4c-0.3,0.1-0.6,0-1-0.2
			c0.2-0.1,0.5-0.2,0.7-0.4c0.2-0.1,0.4-0.2,0.6-0.4c0.4-0.3,0.8-0.7,1.1-0.9c-0.4,0-0.8,0.1-1.3,0.6c-0.9,0.9-1.9,1.3-3.2,0.8
			c0.5-0.8,1.1-1.5,2-1.8c1.8-0.7,3.2-1.9,4.7-3.1c0.4-0.3,0.7-0.9,0.9-1.4c0.5-1.2,1.3-2.2,2.6-2.5c0.3-0.1,0.5-0.3,0.7-0.5
			c-0.8,0.3-1.5,0.5-2.3,0.8c-0.4-1.5,1-1.6,1.6-2.4c-0.4,0.2-0.9,0.4-1.2,0.7c-0.3,0.3-0.7,0.7-0.7,1.1c0,1.4-0.8,2.4-1.5,3.3
			c-0.8,0.9-1.8,1.6-2.8,2.5c0-1.3,0.4-2.3,1.5-2.8c-0.8,0.5-1.9,0.8-1.8,2.1c0,0.5-0.2,0.9-0.7,1.2c-1.1,0.6-2.3,1.3-3.4,2
			c-0.1,0-0.2,0.1-0.2,0.1c-1.2-0.1-2.5,0.1-3.6-0.8c0.4-0.2,0.7-0.5,1-0.6c0.9-0.4,1.6-1.1,2.2-1.9c0.8-1,1.8-1.8,3-2.1
			c1.8-0.5,3.3-1.7,4.9-2.7c0.3-0.2,0.5-0.7,0.7-1.1c0.2-0.6,0.3-1.2,0.5-1.7c0.1-0.2,0.3-0.3,0.5-0.5c0.3-0.2,0.7-0.5,1-0.7
			c0,0-0.1-0.1-0.1-0.1c-0.3,0.2-0.6,0.4-0.9,0.7c0,0-0.1-0.1-0.1-0.1c0.2-0.4,0.4-0.8,0.6-1.3c-0.7,0.6-1,1.3-1.2,2
			c-0.3,1-0.4,2.1-1.3,2.8c-0.4,0.3-0.8,0.5-1.2,0.7c-0.1-0.1-0.1-0.1-0.2-0.2c0.3-0.8,0.6-1.7,0.9-2.5c0.2-0.5,0.5-0.9,0.6-1.4
			c0.1-0.6,0.2-1,0.9-1.1c0.1,0,0.3-0.2,0.3-0.4c-0.3,0.1-0.5,0.2-1,0.3c0-0.9,0-1.7,0-2.6c0,0-0.1,0-0.1,0
			c-0.1,0.6-0.3,1.2-0.2,1.8c0.2,1.2-0.5,2.2-0.9,3.2c-0.3,0.6-0.5,1.2-0.8,1.8c-0.2,0.4-0.4,0.9-0.7,1.2c-0.8,0.6-1.6,1.1-2.4,1.7
			c-0.1-0.1-0.1-0.1-0.2-0.2c0.1-0.3,0.2-0.6,0.4-0.8c1.1-1.9,2.2-3.8,3.4-5.8c0.4-0.6,0.6-1.2,0.4-2.1c-0.2-0.6,0-1.3,0.2-2
			c0.3-1.1,0.6-2.3,0.9-3.4c0.1-0.2,0.2-0.4,0.4-0.5c1.7-0.6,2.8-1.8,3.2-3.5c0-0.2,0.2-0.4,0.1-0.6c-0.4,0.9-0.9,1.7-1.3,2.6
			c-0.1,0-0.2-0.1-0.2-0.1c0.2-1.1,0.4-2.2,0.6-3.3c-0.1,0-0.1,0-0.2,0c-0.2,1-0.5,2.1-0.6,3.1c-0.1,0.6-0.3,0.9-0.8,1.2
			c-0.3,0.1-0.6,0.3-1,0.5c0-2.4,0.6-4.6,1.9-6.7c-0.6,1.3-1.6,2.3-1.8,3.8c-0.3,2-0.8,4-1.2,5.9c0,0.2-0.1,0.4-0.2,0.5
			c-0.1,0-0.2,0-0.2,0c-0.2-0.6-0.4-1.1-0.5-1.7C76.3,65.8,76.3,65.3,76.2,64.8C76.2,64.8,76.2,64.8,76.2,64.8z"/>
	</g>
	<path fill="none" stroke="#AEAFB2" stroke-width="2.8346" stroke-miterlimit="10" d="M53.8,89.8c-3.1,0.9-6.3,1.4-8.2,1.4"/>
	<path fill="none" stroke="#AEAFB2" stroke-width="2.8346" stroke-miterlimit="10" d="M35.7,82.6c0-4.2,18.7-13.8,23.8-13.8
		s4.2,10.6,4.2,14.8c0,1-0.8,2-2,2.9"/>
	<path fill="none" stroke="#AEAFB2" stroke-width="2.8346" stroke-miterlimit="10" d="M46.1,91.6c0,2.7-3.4,3.6-6.5,3.6
		c-3.1,0-10.1-1.4-10-4c0.1-2.7,7.1-6.4,9.8-6.3C42.6,85.1,46.1,88.9,46.1,91.6z"/>
</g>
</symbol>

<symbol version="1.1" id="sculpture" xmlns="http://www.w3.org/2000/svg" xmlns:xlink="http://www.w3.org/1999/xlink" x="0px" y="0px"
	 viewBox="0 0 141.7 141.7" enable-background="new 0 0 141.7 141.7" xml:space="preserve">
<circle fill="none" cx="70.9" cy="70.9" r="70.9"/>
<path fill="none" stroke="#AEAFB2" stroke-width="2.8346" stroke-linejoin="round" d="M58.9,116.3c-0.1-3.4,0.5-4.1,1.6-4.2
	c1.2-0.1,1.4-0.7,1.7-1.7c0.5-1.9,0.7-3.5-1.2-4.8c-1-0.7-0.5-1.7,0-2.6c0.5-0.8,1.1-1,2-0.5c0.1,0.1,0.3,0.1,0.8,0.3
	c-0.2-0.7-0.3-1.3-0.5-1.8c-1.7-3.8-2.4-7.7-1.9-11.9c0.2-1.5,0.1-3,0.1-4.5c0-0.6-0.3-1.3-0.5-1.9c-0.1-0.3-0.4-0.5-0.4-0.7
	c-0.4-2.1-1.3-3.1-3.6-3.8c-3.2-1-5.2-6-4.6-9.3c0.1-0.7,0-1.4,0.1-2.2c0.2-2,0.4-3.9,0.7-5.9c0.3-1.6,0.6-3.3,1-4.9
	c0.6-2.2,0.9-4.4,1-6.6c0.1-1.2,0.7-2.5,1.4-3.6c0.4-0.6,1.2-1.1,1.9-1.4c1.5-0.8,3.1-1.3,4.5-2.1c1.6-0.8,2.1-2,1-3.4
	c-1.7-2.2-1.4-4.7-1.7-7.1c-0.3-2.2,1.4-5.6,4.3-6.1c2-0.3,4-0.3,6.1-0.4c0.3,0,0.6,0.2,0.8,0.4c1.2,1.4,1.9,4.6,0.7,5.8
	c-1.7,1.7-1.1,4.3-2.8,5.9c-0.4,0.4,0,1.6,0.1,2.5c0,0.1,0.9,0.1,0.9,0.1c0.3-0.9,0.7-1.9,0.7-2.8c0-0.8,0.2-1.1,0.9-1.3
	c1.2-0.3,2.5,0.2,3.1,1.2c1.2,2,2.5,4.1,3.9,6c1.1,1.6,2.5,3,3.8,4.4c1.4,1.5,2,3.2,1.9,5.2c-0.1,2.2-1.7,3.1-3.5,1.9
	c-0.6-0.4-1.2-1-1.7-1.5c-1.1-1-2.1-2.1-3.4-3.4c-0.2,1.1-0.4,2-0.6,3c-0.4,1.8-0.8,3.6-1.2,5.4c-0.2,0.8-0.2,1.7-0.2,2.5
	c0.1,3,0.1,5.9,0.3,8.9c0.1,1.9,0.5,3.7,0.8,5.6c0.2,1.6,0.7,3.2,0.5,4.7c-0.3,2.7,0.7,5.2,2.2,7.1c2.9,3.7,3.4,7.9,3.7,12.2
	c0.2,2.8,0.7,5.4,1.9,7.8c0.4,1,1.5,1.8,2.4,2.4c1.1,0.7,1.6,1.3,1.2,2.6c-0.2,0.7,0.2,1.5,0.3,4.2H58.9z M82.9,111.4
	c-0.3-0.4-0.9-0.7-1-1.1c-0.4-1.7-0.6-3.5-1.1-5.1c-0.8-2.6-1.6-5.3-2.9-7.6c-1.1-1.9-2-3.8-2.2-6c-0.1-0.9-0.2-1.9-0.7-2.5
	c-1.6-1.9-2.3-4.2-3.2-6.4C71,81,70.5,79.1,69,77.9c-0.4-0.3-0.4-1-0.6-1.5c-0.1-0.4-0.2-0.8-0.3-1.2c-0.4,1.6-0.8,3.1-1.1,4.6
	c-0.1,0.4,0.1,0.8,0.2,1.2c0.2,0.8,0.4,1.6,0.4,2.4c0,1.8-0.1,3.6-0.2,5.4c0,0.7,0,1.4,0,2.1c0.4-0.3,0.5-0.7,0.8-1
	c0.3-0.4,0.7-1,1.1-1c0.4,0,0.9,0.5,1.1,1c0.2,0.5,0.2,1.2,0.1,1.8c-0.1,2.3-0.3,4.5-0.4,6.8c0,0.5,0.5,1.1,0.6,1.6
	c0.1,0.7,0.1,1.5,0,2.2c-0.1,0.7-0.5,1.5-0.3,2.2c0.5,1.7,1.2,3.2,1.8,4.9c0.7,2.2,2,2.9,4.3,2.5C78.5,111.5,80.7,111.5,82.9,111.4z
	 M59.7,54.1c-0.8,2.4-2.1,4.6-2.2,6.8c-0.2,2.9-0.8,5.5-2.1,8.1c-0.1,0.3,0,0.9,0.2,1.1c1,0.9,2.1,1.6,3.4,2.6
	c-1.2-2.8-0.1-5.4,0.8-8c0.2-0.6,0.2-1.2,0.4-1.8c0.3-1,0.5-2.1,1-3c0.7-1.1,0.8-2.2,0.2-3.3C61,55.8,60.4,55.1,59.7,54.1z"/>
</symbol>

</svg>