<?xml version="1.0" encoding="utf-8"?>
<!-- Generator: Adobe Illustrator 17.1.0, SVG Export Plug-In . SVG Version: 6.00 Build 0)  -->
<!DOCTYPE svg PUBLIC "-//W3C//DTD SVG 1.1//EN" "http://www.w3.org/Graphics/SVG/1.1/DTD/svg11.dtd">
<svg version="1.1" id="Layer_1" xmlns="http://www.w3.org/2000/svg" xmlns:xlink="http://www.w3.org/1999/xlink" x="0px" y="0px"
	 viewBox="0 0 283.5 101.1" enable-background="new 0 0 283.5 101.1" xml:space="preserve">
<g>
	<g>
		<path fill="#FFFFFF" d="M143.4,31.4v-31H154v2.4h-8.1v11.9h7v2.4h-7V29h8.1v2.4H143.4z M174.8,31.4l-10.3-16.2l9.6-14.8h-3
			l-8.5,13.5V0.4h-2.6v31h2.6V16.6l9.1,14.8H174.8z M184.1,31.4V2.8h5V0.4h-12.6v2.4h5v28.7H184.1z M134,31.4V2.8h5V0.4h-12.6v2.4h5
			v28.7H134z M203.9,30.2c1.9-2,2.2-4,2.2-14.2c0-10.3-0.3-12.3-2.2-14.2c-1-1-2.5-1.6-4.3-1.6c-1.8,0-3.3,0.6-4.3,1.6
			c-1.9,2-2.2,4-2.2,14.2s0.3,12.3,2.2,14.2c1,1,2.5,1.6,4.3,1.6C201.4,31.8,202.9,31.2,203.9,30.2z M202.1,3.4
			c1.2,1.3,1.5,2.6,1.5,12.6c0,10-0.3,11.2-1.5,12.5c-0.6,0.6-1.4,0.9-2.5,0.9c-1.1,0-2-0.3-2.5-0.9c-1.2-1.3-1.5-2.6-1.5-12.6
			c0-10,0.3-11.2,1.5-12.6c0.6-0.6,1.4-0.9,2.5-0.9C200.7,2.4,201.5,2.8,202.1,3.4z M224.9,31.4v-31h-2.6v14.1h-7.2V0.4h-2.6v31h2.6
			V16.8h7.2v14.6H224.9z M244.6,31.4v-31h-2.4l-7.9,23.2V0.4h-2.6v31h2.4l7.9-23.2v23.2H244.6z M266.3,31.4L256,15.2l9.6-14.8h-3
			L254,13.9V0.4h-2.6v31h2.6V16.6l9.1,14.8H266.3z M279.8,26.8h-8.1l-0.9,4.6H268l6.7-31h2.2l6.5,31h-2.7L279.8,26.8z M273.1,20h5.4
			l-2.7-13.5L273.1,20z M279.3,24.4l-0.4-2.1h-6.3l-0.4,2.1H279.3z"/>
		<g>
			<path fill="#FFFFFF" d="M136.9,57.7v-9.9h-5.2v9.9h-1.2V46.8h7.5v10.9H136.9z"/>
			<path fill="#FFFFFF" d="M145.4,53.3h-2.9v4.5h-1.2V46.8h4.1c2,0,3.4,1.3,3.4,3.2C148.8,52,147.4,53.3,145.4,53.3z M145.3,47.9
				h-2.8v4.3h2.8c1.4,0,2.3-0.7,2.3-2.2S146.7,47.9,145.3,47.9z"/>
			<path fill="#FFFFFF" d="M157.5,56.8c-0.7,0.7-1.6,1.1-2.7,1.1c-1.1,0-2-0.4-2.7-1.1c-1-1-1.1-2-1.1-4.5c0-2.5,0.1-3.4,1.1-4.5
				c0.7-0.7,1.6-1.1,2.7-1.1c1.1,0,2,0.4,2.7,1.1c1,1,1.1,2,1.1,4.5C158.6,54.8,158.5,55.7,157.5,56.8z M156.7,48.6
				c-0.5-0.5-1.1-0.8-1.9-0.8c-0.7,0-1.4,0.3-1.9,0.8c-0.7,0.7-0.8,1.5-0.8,3.7c0,2.2,0.1,3,0.8,3.7c0.5,0.5,1.1,0.8,1.9,0.8
				c0.7,0,1.4-0.3,1.9-0.8c0.7-0.7,0.8-1.5,0.8-3.7C157.4,50.1,157.4,49.3,156.7,48.6z"/>
			<path fill="#FFFFFF" d="M168.1,57.7v-8.9l-5.5,8.9h-1.1V46.8h1.2v8.9l5.5-8.9h1.1v10.9H168.1z"/>
			<path fill="#FFFFFF" d="M171.9,54.6h1.1c0.3,1.3,1.3,2.2,2.6,2.2c1.4,0,2.4-0.8,2.4-2.1c0-1.4-0.8-2-2.2-2h-1.4v-1h1.4
				c1.3,0,2-0.7,2-2c0-1.2-0.9-1.9-2.2-1.9c-1.4,0-2.3,0.9-2.6,2.2h-1.2c0.4-2,1.8-3.2,3.8-3.2c1.9,0,3.4,1.1,3.4,2.9
				c0,1.2-0.5,2-1.6,2.5c1.1,0.4,1.7,1.3,1.7,2.6c0,1.9-1.6,3.1-3.6,3.1C173.7,57.8,172.3,56.6,171.9,54.6z"/>
			<path fill="#FFFFFF" d="M186.3,57.7h-4.2V46.8h4.1c1.9,0,3.2,1.1,3.2,2.9c0,0.8-0.3,1.4-0.8,1.9c-0.2,0.2-0.4,0.3-0.8,0.5
				c0.5,0.2,0.7,0.3,1,0.6c0.5,0.5,0.8,1.2,0.8,2C189.6,56.6,188.3,57.7,186.3,57.7z M186.1,47.9h-2.8v3.8h2.8
				c1.3,0,2.1-0.7,2.1-1.9C188.2,48.6,187.4,47.9,186.1,47.9z M186.2,52.7h-3v4h3c1.3,0,2.2-0.8,2.2-2
				C188.4,53.5,187.5,52.7,186.2,52.7z"/>
			<path fill="#FFFFFF" d="M198.6,56.8c-0.7,0.7-1.6,1.1-2.7,1.1c-1.1,0-2-0.4-2.7-1.1c-1-1-1.1-2-1.1-4.5c0-2.5,0.1-3.4,1.1-4.5
				c0.7-0.7,1.6-1.1,2.7-1.1c1.1,0,2,0.4,2.7,1.1c1,1,1.1,2,1.1,4.5C199.7,54.8,199.6,55.7,198.6,56.8z M197.7,48.6
				c-0.5-0.5-1.1-0.8-1.9-0.8c-0.7,0-1.4,0.3-1.9,0.8c-0.7,0.7-0.8,1.5-0.8,3.7c0,2.2,0.1,3,0.8,3.7c0.5,0.5,1.1,0.8,1.9,0.8
				c0.7,0,1.4-0.3,1.9-0.8c0.7-0.7,0.8-1.5,0.8-3.7C198.5,50.1,198.4,49.3,197.7,48.6z"/>
			<path fill="#FFFFFF" d="M202.3,56.7c1-1.6,1.4-3.5,1.4-6.2v-3.7h5.9v9.9h1.3v3.7h-1.1v-2.6h-7.3v2.6h-1.1v-3.7H202.3z
				 M208.5,56.7v-8.8h-3.7v3.3c0,2-0.3,3.9-1.2,5.5H208.5z"/>
			<path fill="#FFFFFF" d="M216.6,57.8c-1.1,0-2-0.4-2.7-1.1c-1-1-1.1-2-1.1-4.5c0-2.5,0.1-3.4,1.1-4.5c0.7-0.7,1.6-1.1,2.7-1.1
				c2,0,3.4,1.2,3.8,3.2h-1.2c-0.3-1.3-1.2-2.2-2.6-2.2c-0.7,0-1.4,0.3-1.9,0.8c-0.7,0.7-0.8,1.5-0.8,3.7c0,2.2,0.1,3,0.8,3.7
				c0.5,0.5,1.1,0.8,1.9,0.8c1.4,0,2.3-0.9,2.6-2.2h1.2C220,56.6,218.6,57.8,216.6,57.8z"/>
			<path fill="#FFFFFF" d="M226.4,47.9v9.9h-1.2v-9.9h-3.2v-1h7.5v1H226.4z"/>
			<path fill="#FFFFFF" d="M236.2,57.7h-4.2V46.8h4.1c1.9,0,3.2,1.1,3.2,2.9c0,0.8-0.3,1.4-0.8,1.9c-0.2,0.2-0.4,0.3-0.8,0.5
				c0.5,0.2,0.7,0.3,1,0.6c0.5,0.5,0.8,1.2,0.8,2C239.4,56.6,238.2,57.7,236.2,57.7z M235.9,47.9h-2.8v3.8h2.8
				c1.3,0,2.1-0.7,2.1-1.9C238.1,48.6,237.3,47.9,235.9,47.9z M236.1,52.7h-3v4h3c1.3,0,2.2-0.8,2.2-2
				C238.3,53.5,237.4,52.7,236.1,52.7z"/>
			<path fill="#FFFFFF" d="M242.2,57.7V46.8h6.8v1h-5.6v3.8h4.8v1h-4.8v3.9h5.6v1H242.2z"/>
			<path fill="#FFFFFF" d="M257.9,57.7v-5h-5.2v5h-1.2V46.8h1.2v4.9h5.2v-4.9h1.2v10.9H257.9z"/>
			<path fill="#FFFFFF" d="M268.6,57.7v-5h-5.2v5h-1.2V46.8h1.2v4.9h5.2v-4.9h1.2v10.9H268.6z"/>
			<path fill="#FFFFFF" d="M279.2,56.8c-0.7,0.7-1.6,1.1-2.7,1.1c-1.1,0-2-0.4-2.7-1.1c-1-1-1.1-2-1.1-4.5c0-2.5,0.1-3.4,1.1-4.5
				c0.7-0.7,1.6-1.1,2.7-1.1c1.1,0,2,0.4,2.7,1.1c1,1,1.1,2,1.1,4.5C280.3,54.8,280.3,55.7,279.2,56.8z M278.4,48.6
				c-0.5-0.5-1.1-0.8-1.9-0.8c-0.7,0-1.4,0.3-1.9,0.8c-0.7,0.7-0.8,1.5-0.8,3.7c0,2.2,0.1,3,0.8,3.7c0.5,0.5,1.1,0.8,1.9,0.8
				c0.7,0,1.4-0.3,1.9-0.8c0.7-0.7,0.8-1.5,0.8-3.7C279.2,50.1,279.1,49.3,278.4,48.6z"/>
			<path fill="#FFFFFF" d="M134,78.5c-1.1,0-2-0.4-2.7-1.1c-1-1-1.1-2-1.1-4.5c0-2.5,0.1-3.4,1.1-4.5c0.7-0.7,1.6-1.1,2.7-1.1
				c2,0,3.4,1.2,3.8,3.2h-1.2c-0.3-1.3-1.2-2.2-2.6-2.2c-0.7,0-1.4,0.3-1.9,0.8c-0.7,0.7-0.8,1.5-0.8,3.7c0,2.2,0.1,3,0.8,3.7
				c0.5,0.5,1.1,0.8,1.9,0.8c1.4,0,2.3-0.9,2.6-2.2h1.2C137.4,77.3,136,78.5,134,78.5z"/>
			<path fill="#FFFFFF" d="M143.8,68.5v9.9h-1.2v-9.9h-3.2v-1h7.5v1H143.8z"/>
			<path fill="#FFFFFF" d="M153.4,73.9h-2.9v4.5h-1.2V67.5h4.1c2,0,3.4,1.3,3.4,3.2C156.7,72.6,155.3,73.9,153.4,73.9z M153.3,68.5
				h-2.8v4.3h2.8c1.4,0,2.3-0.7,2.3-2.2S154.6,68.5,153.3,68.5z"/>
			<path fill="#FFFFFF" d="M165.5,77.4c-0.7,0.7-1.6,1.1-2.7,1.1c-1.1,0-2-0.4-2.7-1.1c-1-1-1.1-2-1.1-4.5c0-2.5,0.1-3.4,1.1-4.5
				c0.7-0.7,1.6-1.1,2.7-1.1c1.1,0,2,0.4,2.7,1.1c1,1,1.1,2,1.1,4.5C166.6,75.4,166.5,76.4,165.5,77.4z M164.7,69.2
				c-0.5-0.5-1.1-0.8-1.9-0.8c-0.7,0-1.4,0.3-1.9,0.8c-0.7,0.7-0.8,1.5-0.8,3.7c0,2.2,0.1,3,0.8,3.7c0.5,0.5,1.1,0.8,1.9,0.8
				c0.7,0,1.4-0.3,1.9-0.8c0.7-0.7,0.8-1.5,0.8-3.7C165.4,70.7,165.3,69.9,164.7,69.2z"/>
			<path fill="#FFFFFF" d="M176.1,78.4v-8.9l-5.5,8.9h-1.1V67.5h1.2v8.9l5.5-8.9h1.1v10.9H176.1z"/>
			<path fill="#FFFFFF" d="M184,68.5v9.9h-1.2v-9.9h-3.2v-1h7.5v1H184z"/>
			<path fill="#FFFFFF" d="M189.5,78.4V67.5h6.8v1h-5.6v3.8h4.8v1h-4.8v3.9h5.6v1H189.5z"/>
			<path fill="#FFFFFF" d="M205.5,78.4v-9.9h-3.7v3.7c0,4.6-1.1,6.1-3.2,6.1h-0.6v-1h0.3c1.3,0,2.3-0.9,2.3-5.4v-4.4h6v10.9H205.5z"
				/>
			<path fill="#FFFFFF" d="M214,78.4h-4.1V67.5h1.2V72h2.9c2,0,3.4,1.3,3.4,3.2C217.3,77.1,216,78.4,214,78.4z M213.9,73H211v4.3
				h2.8c1.5,0,2.3-0.8,2.3-2.2C216.2,73.8,215.3,73,213.9,73z"/>
			<path fill="#FFFFFF" d="M226.1,78.4v-5H221v5h-1.2V67.5h1.2v4.9h5.2v-4.9h1.2v10.9H226.1z"/>
			<path fill="#FFFFFF" d="M237.2,78.4l-0.9-2.5h-4.8l-0.9,2.5h-1.2l4-10.9h1l4,10.9H237.2z M234,69.2l-2.1,5.8h4.1L234,69.2z"/>
			<path fill="#FFFFFF" d="M241.7,78.4h-1.4l2.5-4.6c-1.4-0.4-2.3-1.5-2.3-3c0-1.9,1.3-3.2,3.4-3.2h4.1v10.9h-1.2v-4.5H244
				L241.7,78.4z M246.7,68.5H244c-1.5,0-2.3,0.8-2.3,2.2c0,1.4,0.9,2.2,2.3,2.2h2.8V68.5z"/>
			<path fill="#FFFFFF" d="M130.7,99V88.1h1.2V99H130.7z M136.9,99l-5-5.7l4.7-5.2h1.5l-4.8,5.2l5.2,5.7H136.9z"/>
			<path fill="#FFFFFF" d="M146,98c-0.7,0.7-1.6,1.1-2.7,1.1c-1.1,0-2-0.4-2.7-1.1c-1-1-1.1-2-1.1-4.5c0-2.5,0.1-3.4,1.1-4.5
				c0.7-0.7,1.6-1.1,2.7-1.1c1.1,0,2,0.4,2.7,1.1c1,1,1.1,2,1.1,4.5C147.1,96.1,147.1,97,146,98z M145.2,89.8
				c-0.5-0.5-1.1-0.8-1.9-0.8c-0.7,0-1.4,0.3-1.9,0.8c-0.7,0.7-0.8,1.5-0.8,3.7c0,2.2,0.1,3,0.8,3.7c0.5,0.5,1.1,0.8,1.9,0.8
				c0.7,0,1.4-0.3,1.9-0.8c0.7-0.7,0.8-1.5,0.8-3.7C146,91.3,145.9,90.5,145.2,89.8z"/>
			<path fill="#FFFFFF" d="M158.2,99v-8.3l-3,6.6h-1l-3-6.6V99H150V88.1h1.2l3.5,7.7l3.5-7.7h1.2V99H158.2z"/>
			<path fill="#FFFFFF" d="M168.9,99v-9.9h-5.2V99h-1.2V88.1h7.5V99H168.9z"/>
			<path fill="#FFFFFF" d="M180,99l-0.9-2.5h-4.8l-0.9,2.5h-1.2l4-10.9h1l4,10.9H180z M176.8,89.8l-2.1,5.8h4.1L176.8,89.8z"/>
			<path fill="#FFFFFF" d="M189.8,99v-5h-5.2v5h-1.2V88.1h1.2V93h5.2v-4.9h1.2V99H189.8z"/>
			<path fill="#FFFFFF" d="M200.9,99v-8.9l-5.5,8.9h-1.1V88.1h1.2V97l5.5-8.9h1.1V99H200.9z"/>
			<path fill="#FFFFFF" d="M206,99h-1.4l2.5-4.6c-1.4-0.4-2.3-1.5-2.3-3c0-1.9,1.3-3.2,3.4-3.2h4.1V99H211v-4.5h-2.7L206,99z
				 M211,89.2h-2.8c-1.5,0-2.3,0.8-2.3,2.2c0,1.4,0.9,2.2,2.3,2.2h2.8V89.2z"/>
		</g>
	</g>
	<g>
		<path fill="#F6B047" d="M0,0h99.3v44.3H72.9v56.8H26.4V44.3H0V0z M4.4,46.5v2.8h20l-0.5-2.8H4.4z M8.5,51.3v2.4h15.9l-0.5-2.4H8.5
			z M75.5,46.5L75,49.2h19.9v-2.8H75.5z M75.5,51.3L75,53.8h15.8v-2.4H75.5z"/>
		<path fill="#FFFFFF" d="M91,21.7c-0.6-4.2-2.8-7.8-6.2-10.4c-2.6-1.9-5.6-3-8.8-3.1l-4.9-0.1h-43l-4.9,0.1
			C20,8.4,17,9.4,14.4,11.3c-3.4,2.5-5.6,6.2-6.2,10.4c-0.5,3.5,0.3,6.9,2.4,9.8c2.1,2.8,5.2,4.7,8.6,5.2c0.5,0.1,1.1,0.1,1.6,0.1
			c5.4,0,10.1-4,10.9-9.4c0.4-2.5-0.2-4.9-1.7-6.9c-1.5-2-3.5-3.2-6-3.5c-2.7-0.4-5.4,0.9-6.9,3.4c-0.7,1.2-0.6,2.6,0,3.3
			c0.6,0.8,1.7,1.3,2.4,1.3c0.1,0,0.6,0,0.6-0.3c0.2-1.2,1.8-2.6,2.9-2.6c1.1,0,2.1,0.6,2.8,1.5c0.7,0.9,0.9,2,0.8,3.1
			c-0.4,2.9-2.9,5-5.8,5c-0.3,0-0.6,0-0.9-0.1c-2.1-0.3-4-1.4-5.2-3.2c-1.3-1.7-1.8-3.8-1.5-6c0.4-2.8,1.9-5.3,4.2-7
			c1.7-1.2,3.7-1.9,5.7-2.1l0.4,0v0h11.2v79.5h6.1v-80l5.6,4.2v75.8h6.1v-80l5.7,4.2v75.8h6.1V13.4l11.6,0c2.1,0.1,4,0.8,5.7,2.1
			c2.3,1.7,3.8,4.2,4.2,7c0.3,2.1-0.2,4.2-1.5,6c-1.3,1.7-3.1,2.8-5.3,3.2c-0.3,0-0.6,0.1-0.9,0.1c-2.9,0-5.4-2.2-5.8-5
			c-0.2-1.1,0.1-2.2,0.8-3.1c0.7-1,1.7-1.5,2.8-1.5c1.1,0,2.7,1.4,2.9,2.6c0,0.3,0.5,0.3,0.6,0.3c0.7,0,1.8-0.4,2.4-1.3
			c0.5-0.7,0.7-2.1,0-3.3c-1.5-2.5-4.1-3.8-6.9-3.4c-2.5,0.4-4.5,1.6-6,3.5c-1.5,2-2.1,4.5-1.7,6.9c0.8,5.4,5.5,9.4,10.9,9.4
			c0.6,0,1.1,0,1.6-0.1c3.5-0.5,6.5-2.4,8.6-5.2C90.7,28.6,91.5,25.1,91,21.7z"/>
	</g>
</g>
<rect x="0" y="-74.5" fill="#F6B047" width="50.1" height="50.1"/>
<rect x="50.1" y="-74.5" fill="#F1BE56" width="50.1" height="50.1"/>
</svg>
