<?xml version="1.0" encoding="utf-8"?>
<!-- Generator: Adobe Illustrator 17.1.0, SVG Export Plug-In . SVG Version: 6.00 Build 0)  -->
<!DOCTYPE svg PUBLIC "-//W3C//DTD SVG 1.1//EN" "http://www.w3.org/Graphics/SVG/1.1/DTD/svg11.dtd">
<svg version="1.1" id="Layer_1" xmlns="http://www.w3.org/2000/svg" xmlns:xlink="http://www.w3.org/1999/xlink" x="0px" y="0px"
	 viewBox="0 0 141.7 141.7" enable-background="new 0 0 141.7 141.7" xml:space="preserve">
<path d="M96.6,47.9c0,6-4.9,10.9-10.9,10.9c-6,0-10.9-4.9-10.9-10.9s4.9-10.9,10.9-10.9
	C91.8,36.9,96.6,41.8,96.6,47.9z M56,41.6c-6,0-10.9,4.9-10.9,10.9S50,63.4,56,63.4s10.9-4.9,10.9-10.9S62,41.6,56,41.6z M65.2,68.1
	H46.8c-7.1,0-12.9,5.8-12.9,12.9v17.5h9.7v0V81c0-0.8,0.6-1.4,1.4-1.4s1.4,0.6,1.4,1.4v17.5v0h19v0V81c0-0.8,0.6-1.4,1.4-1.4
	s1.4,0.6,1.4,1.4v17.5v0h9.7V81C78.1,73.9,72.3,68.1,65.2,68.1z M94.9,63.4H76.5c-2.1,0-4,0.5-5.8,1.4c6.7,2.3,11.6,8.7,11.6,16.2
	v12.8h12.9V76.3c0-0.8,0.6-1.4,1.4-1.4s1.4,0.6,1.4,1.4v17.5h9.7V76.3C107.8,69.2,102,63.4,94.9,63.4z"/>
</svg>
